<mxfile host="app.diagrams.net" modified="2023-11-28T05:41:14.429Z" agent="Mozilla/5.0 (Windows NT 10.0; Win64; x64) AppleWebKit/537.36 (KHTML, like Gecko) Chrome/109.0.0.0 Safari/537.36" etag="MKGQSXKo1-sLtaIGvSCc" version="22.1.4" type="github">
  <diagram name="Page-1" id="xM1kRJ_PmC5byN_930q4">
    <mxGraphModel dx="1900" dy="1623" grid="0" gridSize="10" guides="1" tooltips="1" connect="1" arrows="1" fold="1" page="1" pageScale="1" pageWidth="850" pageHeight="1100" math="0" shadow="0">
      <root>
        <mxCell id="0" />
        <mxCell id="1" parent="0" />
        <mxCell id="lFqXXls3AUdGfiTC2-5P-1" value="" style="shape=image;verticalLabelPosition=bottom;labelBackgroundColor=default;verticalAlign=top;aspect=fixed;imageAspect=0;image=data:image/png,iVBORw0KGgoAAAANSUhEUgAAAuYAAAGaCAYAAABDkYZ0AAAAAXNSR0IArs4c6QAAAARnQU1BAACxjwv8YQUAAAAJcEhZcwAADsMAAA7DAcdvqGQAAP+lSURBVHhe7J0FgB7F+caflU9Pc3EnSBKkWHDXIsVdiqYtBVoKFIrzp6XQYoUCxVpKcffgGtwhWAjEicv53Wcr//eZ7zZ8OWKEyF14f5fJ2uzu7H6zs8+8+86MFQpQFEVRFEVRFGWlYrdNFUVRFEVRFEVZiagwVxRFURRFUZQOgApzRVEURVEURekAqDBXFEVRFEVRlA6ACnNFURRFURRF6QCoMFcURVEURVGUDoAKc0VRFEVRFEXpAKgwVxRFURRFUZQOgApzRVEURVEURekAqDBXFEVRFEVRlA6ACnNFURRFURRF6QCoMFcURVEURVGUDoAKc0VRFEVRFEXpAKgwVxRFURRFUZQOgApzRVEURVEURekAWKHQNq8oHY4FZU/LstrmFEVRFEVRVh1UmCsdmBBBIS8TEeKOK0skgCV/knXNEuN8N7/yCQIflm3DlmBSxqTxEZNglmV9Mf2KoiiKonRGgiBAPp9HIpFALpdDMpls2/LjUWGudGAka/oFeL5txLkdd+CHAZwO7YEVGot+IHNBEMKRpAa+J6t92SILtsOHrhhVURRFUZROB6Uz3/WFQsGIc0KD3LJAhbnSocm0tmDvfQ5CYMXQJPOxhCPCnDZn1xiiYYsEDjuOULek4mCJ+A4kcbSed+1SiYH9eosu92UjLeaOxKJsVxRFURSlMxKPx1FXV4cbb7zRiHSK82XlZqvCXOmwMGNSwg5ZdxgqqrqhJdMqQr0JleUVspauIlS6bSKX7i7z0ZatuXpeDl/YQ7MUceejGDdyUWGtmcKclvFhG66L2279F+xot4UdVlEURVGUToHneXjqqaew2267LVM3FqLCXOmwMGNSdg9ddzNY8RSy+RxiMdrLQxG6LgIRuaEIc8uI8gUp3tKsvThFvKRx2z8u88d1nZjECI3vWRjkseWmw3D3bTdK/YH7SWCNenFJURRFURSlw0Lp/Mgjj+DAAw8080RdWZRVHmZMX/4bvPYwOIky47EShJ7xMLdDR4Q5FS6le8dxZaH+tixbHtQAoS/CfJMNcNf/bpYLCeShNRslVsdJr6IoiqIoPwxK58cffxz77LOPmXccuqkuG1QhKB0bY11uqztS10owmVZmbFOnZKA47xihrdmnBONo833aLkVRFEVRFKU9KsyVDs88LStKl14rlL2cKXZA2LFgxcFpC0VhHj1iMg2lRm3pI6coiqIoyoJRlaB0aIz0tijCSwS6QdbRZcTIX2bj74LplnBlhNA2/u7G591Mi0I9wszOfxGKoiiKoijzoKJQlA4LZTd7N7GN0GVPJxS9sbYtnHAaiN6NQtGOXpwW1xVt7OZIEtpTXE+BX9xv4YH/01XFdIlYXCFE+7KiIFvlifKtoNgwVR4vJreIpEF2mreboiiKoihKO1SYKx0aY/82YjyS1ZyndZpLInZNH+acZ2DjCy5HVvNoPUMkrxkisR6FaP2iKT2aEegMprIw/7FNciVQnBOeYV63jm3rFEVRFEVR2qPCXOnkUAU7ppcWCvhioI83p8X13P6dBb1otf4uFNdTPs8T2wsJxR3alLVMOMf1tgSHI5JKUBRFURRFWVpUmCurAN/J7EgoGyE9b73MG4dvmV1YWAKoyYtuKzZoJOeRv6Mo7mmrVxRFURRFWRpUmCudHvp2G9EcBiKNfZHGHP6ednCZl/XGTi5KuthlP0W1hMBBEFiwLMest2w5hnGL4TKVOudF4ove5mj6Zj2XRZibYHF0T8rwyL9c5rlO5hVFURRFUZYGFeZKpyeTzyOeSKK5NYNkPCGiO0Q2m4Vtu8hkc7CcGBzHNSI8ly3IdopnC/lcAb7nw3VdtLS0IJFMiUB3kEyVIV/w0dKahePGJaqNpuYWpFJpWS/Hk4qAI8e05ZhF+zyt5/IoyfEVRVEURVGWFhXmSqenXAR1a1MLevfojmxLBqmYCHER3myUmYwnERQ8tDQ3yryLirI0cq2tqEimkUok4IhGL+SySMRjaM00iQYPkJFpZWUZqirLRXH78LwcunevQWP9bDlXDKGXRVw0eL61Wc5OH3VazotBHylFURRFUZYWVRFKpycMPOSyjbCDHI475jCcfcbvJZyCHjUVyLTUIR6z0LWqAuWpuAj2AN26dEFDvax3bBHmAbrXVCNmhagqT6GlsQ5eLiNiPovKsqTMt6IsEUfD3NnYYthGOP3kE3Den07DGgP6wpLzWiLcbbrOFFPSNlUURVEURfnhqDBXOjxG7i7UdTtEId+MG6+/Gi+/+DTOPP13OOzQA3D8MYfj2acfwfnn/BGFXAM232Jj2T4CN998LaZNm4SyshTmzJmJv/z5Arzy0lO44opLkW1tQUU6jcDL48rLLsXIl0dgtQH9kMsUj3/nbTdh+HFH4ugjDsHD992B22/7d5soZwrp0KIoiqIoirL0qDBXOjxRD4WUv9E8YbeIpmtEx0WvPj3wnzvuwF4HHo6fbbY9zr7gr8jnsvjt8KMxZK3V8P577yMoFLDWgN6wLQu5vAcntLHVJhvDDX0MGbwmZtc2wvdcBHkfm2+yEaZMnoxPPvwQ5599DnbZYRvc/+hjWGeTbbDmehvhNyefikmTp0qlAPBDB548SjI7r+9yRVEURVGUH4oKc6VTsDCrOUcC9bw4Dj/s17j5hv9h1uwmZLIhHnjgCdz677vNjusN3RDTps3GW2+9jZqaGvTp2xuJZAKbb7EZ+omg/+Lzz1FZXo76WbPgxhxst/0OqKgsw+hvxqG6azfsseeOxi7+j39chQqJx4rAhx9/gsuuuAp2rNgIlEmzzYigajlXFEVRFGXpUGGudHrCwEdMBHVt3SxMmDgGDfWz0NAwC8+98JzZ3qtXXyRTadx1932mW8StttwUMTfAlltujtr6Ftzy79vQvWsNNtt8U7Q21uPQQ/ZF4Id49JHHTY8sz7/8FvyQYv8BlJfH0dRYh+nTp8MLaLJ3JHAwoxBuWBCBbqoQiqIoiqIoPxgV5krnxgphWTmssUYfjHzlGYz56mN8JWH0mFG48car0ZJpRhBmkUymMXbcRJm38PuTT8D0aZOx8bANMG7CeLz1zvumD/MLzvkT4Oew+moDMae2Fs8+94LIbAtnn3s+Pvn0S/Tp2RtPPfYI3n/nLdx79+0i0lMi4POAR0HuF11r2pKlKIqiKIryQ1EdoXR4LP5Z3/mxFIfRD2E7DjzPw8/WG4qHHrgHFRUVuPyyK/GrX/0Wf/zjmXjxxReRSCTgB+zyMMSU6bMwY9Zs9OvbBy2Nc9C1Wxd89vnnmDmrDl98MQY/33l7+F4W/fv3wYgRzyEWSyJZVo50ugxHHXUcjjz6ePztsquQy2aw/Tab47GH7kKv7tVAkIdj2cj7xbE/FUVRFEVRlgZVEUqHhqKc/4oYid42X1ztFTzs/vPdkIi5eO6ZF/DAfY/hi8/G4dNPvsbHH32JmBuTiBbyhTxcEdpXX/Mv02f5Rhuuj0GD+uOrcROQEuH96MOPwLEtbLDBeqisrMQ777yHZLocQRAaN5lELI7xEybhtjvvwQ477YxRn4xC16pK7Lz91uYhKvihBKZKHylFURRFUZYOVRFK54JqnEPoy5/HsfItEcSFLAIvhCvCOua6sC0bjY2NuPDC8zFpyjRUVlXBdW0kUmk8PeIZM/rnlVdchmQyiVdffQ1xmX711ddoam7FOeedjZwo7C9GfyX7JDFnzixUVVYgn82iqbEZXaprUCaCfdSoUQh8z4j+nIj+mAj3WCwhSdPGn4qiKIqiLB0qzJVOR0BhLiI8lCkt4p989ClijoWjjz4CJ/52OE46aTg++vBNhAjQr18fHHn4oajuUiXLQEvOQ3lZEpttsjkmTJqMyVOnwnZsfPzJxyLgy7DpZpvixVdexsRxE1HwfASBjxFPPIjXR76M035/CrbfZhvccsst+OXRRwEixO9/6DGkyirgi0gvSyfmc7lRFEVRFEX5ITgXCW3zitIhufZfN8NxEgitYo8nopURj7kIgwCuTCeOm4RPPhmF/gMHYKttt0WViPBrr70Ofzz9TKTSVbj/wcdN94Z0ZWEDzdamVsyZPQt33/cgxk+aAsd22bULKioqMbu2Fldc+Q/4oWsaisZiMXws+9ZUd8E222yNPX6xG1pbs3jq6Rdw4u9PRWvel3TRfm+bnln8sGhFN6Z9OWb/Pr2w/357mW4ULUvqwSauoiiKoiidmTFjxmDIkCFm3raXnZ3bCml2VJQOCjPn4LU3hh0vhy8Zn1Zw140hK+KYvt/MvhTFhVxBhHSevRui4OURj8dFvCfg+SHyOQ9lyTIzNmfgefB9iet7cOOuEd7EF+FMP/S8V0AymUJCRDz9y3n8UPbxCgVTEcjn86isrkJLJoN0eYXR39wWk2OxxuD7vqSB6bIQyjm23GQD3PG/G2Fz+H7LUWGuKIqiKJ0caoPHH38c++yzj5l3HHm/LyPUlUXpVPAByGRakUqlZEkkuW3BsUIR4iKy4ynEE+UoL69BzC0TUS4SWMR8ujxdFMwi62PxGJKyb6qsHIlE0tRyKfZ9Ed0xWa6oqELcjYsAzxkBz0GDXNeRfZKyTxI13avR2FSHRNxGPtOI1uY6OLaP1pYG0PCuriyKoiiKoiwtKsyVTgWFOcV0LpdDoVBANpsVMUyruY9ULAE/6yP06H/umBos4/qBB8e1qdERBAV4Xl6C7C/BE/FNMR3VdgMR6Ayu65r1DDwGt3u+By+XxYUXnIMXn30Kzz71GF554RlsvcVmZpj/lpaMCnNFURRFUZYaFeZKp4Ii2YhtX4R4KoWTTzrJdJXoi0i3ECAeFzEu2jgUMU6BHfoU2j4KFOShDzg2LNeBm0jAduNyQNmXbieytxfQpcUSwS77yJQiO5BjFWT/bCFv4p551nmY8u103PivG/DAPfeiT48eOPjAg9Dc2IquNb3kXCrMFUVRFEVZOlSYK50CM6RQWLRmU5jTNzyTyZhh8u+8/TZcd9216N69BvUNM2E7OYmbgWP5ItJDM/gPfdVFphtf8sD4k3tGgNMH3RPxzuA4rsQSQS7CvWhpl3Ui+nO5jJzPNV0xXvvPa/GQnPPll1/GDXLO8WPH4cvPv0C3rl1RkGOqxVxRFEVRlKVFhbnSOShtotw27zg26urq8MujhqOhYS5GjHgQd935X2y22YYixj1kWhuNi4tj/MRFnAe+CfQZZ0POMPRFSIdwHcd0u+iIqKa/uuldxc+LOAe8fB411VXwvRxy2Wa0tNRhs82H4ZJLLsSuu+2K1QYNwMOPPGwGJ6qdO8scU1EURVEUZWlQYa50Sor+30W3Flq//3jGOTj593/E4MFDcOO/rsdbb7yKC8/9EzZd/2eorkijkGtFIdsKiOAOvQIq0gmUJRNIiEiPicCPOSL04UkQIY8C7KCAfEsjvGwjXNvHz9ZZC6ee8luMHPk8brjhOkybMRuD1lwLz770EqbPnIm8l0cqGZc0tSVQURRFURTlB6LdJSodmqi7RCtWBt+2jBsKR/ZkF4l0TmGMTEsGZamkGclz5vTpuPCCP+Gg/fdDhQjyZCJmXFIaJc7rb7yFt995F198/iWmTJkKj10nesXGpEXXFXaVmMDA/v2x2moDsPXWW2GnHbZDuiwBx+FxQnz0ySiceNIpmD59Jv5z6834v4suQUN9o+k6MZvJIKQw1+4SFUVRFGWVhdJ5eXWXqMJc6dDQL3zI0GGw4iLMRdQG8meDw+5TkkvWpesJhbrJxRby2Zzs5BvXkwP23xvnnftHVFZVmm2FnIdEkn7kRh8b1c9RRNnlokF0Po9vUVTLNgr6eMxBNpfDW2++hbPP/z/MrW9GMpVGLu8jK+cqr6xmRNMYtay8DK2ZZhHmtgpzRVEURVlFWZ7CXF1ZlA5LVGOkyEVom4aczLAUzhaN5fDNNjYIZaNOP/ThxF246STKarri6ZdfxzrDtsewLXfBWWedj08/+9wI8nlVUZkvinIqck+O78OVZa6bNWsOrr/hFuy5z6FYa+1hOO63p6GABNxkOTxJixOLoayiQo4labAlXTEbmVzGHFNRFEVRFGVpUIu50mFhxqRVfPCQTczIn6HDHlVCybQxEeghAtuT/13RwkalzwezdSKRMP2cJ0RE+7m8GTSII3R27doFPXp2R1lZCuXlZaaHF3a3WDt7LubMmYva+kbUSYgn0iYNdGFJl5ebEUUX97iYxp/sBUYt5oqiKIqySkItoK4syk+OpRXmpv/xIDA+5BwoiFncRtQFIq3s7I2Fx5b9QvbOwikdZJyia4sTM77iBc833SW6jou8CHda0mm1XxQqzBVFURRl1WZ5CnN1ZVFWOSjI+aCwMSgfFjPQkIhqD775s0VswxGB7Ej2NwMOubA50qcbN4MO2bKNIZlOUGOLmBdRzfgi5RVFURRFUZYXKsyVVQ6KcWMd930jymk1p1M6reTc9l1f4yK2LUeCPAbcyDUypain5dz38rBoXTddKBb7PFcURVEURVleqDBXfhJYIXtuiYKI8e8FEe/0XzHBhm2CCPySwEaniqIoiqIoywsV5spPEArsSIQXhTgJrLAtmH5aJNB7/bsQch9FURRFUZTlhApz5ScC3VcYipLbBNPnYlsTU5n32ZjUKg3Bd4Hx1JVFURRllYPui6t6oFtn+6B0TFSYKx0WY5+mHhZBXOwNha2eS1o+G7cUTpc00Drebl3bDI9jm+UiPDfXzQuMx+2LCZzQ6k4xT+EfcmezSa3tiqIoKx8KVR9BWEAu3wTkpahusWBlJeTbAuczq1awczbsFpF8+RB5K8MOyeazUxVXFN9XyspFu0tUOjRspzlk7Q1gJcrh2a6UHxTXgYhoZtso67YXvaVZmvOl239MXBZciyZg41HZTYp+SXsBW26yIe7+3y2i0TliqRSQZkAjRVEUZWVgymYpj/1CHq5t4/3bPkV2VADP8cw2kbDGSLNYq+WC2hy1dSIwDyN221P6zllC2EFBKT9QtjG2k3DhZF10270cq+3ZD7EwjXCenUtiWOzogOdRe+2SQOms/ZgrP0mYOYessyFsEeYFS4Q5yw8p+4rCfPFCeYXDko4JlOQFfh5bbLoB7vjvDbCL3ZsXpf4CynNFURRl+cM3RyaTRzoRR5gBnj3jRaTfqkKiEJMQhxPE4Tsi3J2o9y7CveYvuEM2RipFFq32cYz75A+Fx+D5IuSo7QT/D5dtIRIpFzmvgLJjXAw5cU3YSdtcJ2HHBsZwxHPPfyplISxPYa5VI6XDwqKHbnAFKQA9+sS1dX8In90ZtvnJSSQGGiYYuHleaNtmQsn65RrXl/88WstlKmVyKGktdZFRFEVRVh4UUclkXESqh9AN4YpADcI8rCAH32pFwW6WV0xOynEpwOcFluulyz7sIGuCFQU/K2W+KP2SYPmeBIkr7wMGzn8XuI3r5g+22Va6jufz5gvRMYpxFx94bq/Rgy2VD/NNIGEj6+flbngcVg+OvKOs9hUNZaWhwlzp0NiSQ2NuTIKLeMxF0nWQiNlIOjIfiyPhxGUd1y8gME4UFrS9NCxR3Jhsl/NFwS6ZjwLjxZhGB/G4LWmmBZ1XIgW7FIkL+vqpKIqirBgsy4fvt8COsUyWECtajGkz5hjRBXnnFJyChNyiA+PJC8prCwXbahdE9spxPCcv8RlyZn5ecGWbW7LcFhh3/uWshMx8wZN1DNwWzc8LblsoWcd9fDQAbgvyyJi3UczhCNocOVuuW9LqizrX91PHQF1ZlA4Nh8XfbsddUVZRZQwVvu/BlULEiFxTkEqBuqgczIJmSXP4YuMywsJLLm5hRSKkKV1mcvksNh22Pv5x5d8lpezZpUjRj09RFEVZ4QS+lMXy5rAchHngpT+NRPr5CqTzSVlLgU2BGsJZnDSyaHFeVBx5I4Si+hfxzlhyFpOWxSJX5ufhy3spfUIa6546tLia3hdy6NAOTDfBtvwti9T+FFieriwqzJUOTGiE+Guvv4ktt94GjusYSRuNwElRzkAid5H2mZkWgPbCPSp4fkzcBcG4gYhyx6brDfcpzttWINsozIsWGZXliqIoKwejePiflM3soeRFEebJF9JIeHFTZhccT94n8q4JFie0uD16QywIORr9GwXGWtg7pP2I0ouK254ljct4lsdrs1F5QgLrnDbY7OeIILc881YtRmqbVRbP8hTmqhGUDg2H1ndjUou3fNOYUiQvrKAgTwUDW9Fz2TPzDFa7YMu29uuWRdz5g28Cu5CxJF3siovdO7oU6BzWv3glJixpgasoiqIsewIrgCchaGuYSV1sBzHEvGLjz2QhAden5Tgy/Sws5CRkFxGk7BdhboloY2CHBdH8fGGBx24X6GrzIwPhl1vjvsPrtwpyB+hnH5g+C8w4eyrKOwQqzJUOTLEKb9txWBICn0WUFJi2I8LXNcHhH5dXamAai8ExfjYizGVCawn944vXoSWeoihKR6D4ZhFFHlD0Ftf4FkNRuEvpLULaWkyQd1AQbwuxYuA6s57LLmLyfojZljHSmCAnc+TYpaH9cSmi51sXyLul/bq28L24CwmMF1iU5TFYvryzPBsxPybnd3mp5nr1FdVxUGGudHAsePm8FGiWafxZrPnzk1HUuROXO0oQWAiatLWtNd1cfbddHzhFUZSVB4WqI+Wx1da1rXmliGQNbPZlXhwUjv7WoUWLui/zIqBFHPPd48lfLJR42RzKkUDg5eCn8si6zbDdAHGJFxNhnpf9MrEc5gZzMMOfjineFEwNpmN6MBuz/Dmo9erRbLXCi/vyXrPBnhltPy6pSCNrucgEeZMOR87he5TvtJwDHr/CShrd0IMrlQqu9Ryml66Si/5jBYQulZyJ3pu8B9+9r4xCVzoAlvqYKx2d1157Ddtuu63x46LQbd+nq6IoiqIsCeY9YuZEinohXjxzJNLPVSLuiTC2iy4nFLqO8Q8PUbAd49riyXsnCwpyF3BjcPOyje4wZTHUZ+vRVJgLryyL8oEV6LNef1T0KkOyexxuhexf7sp7ywbycmbZpZDJo2VuC5rnNGHuZ3Mwd0oj8rND9HB6IN7soiJehnyQgxfz4cQdOFlH0lXsMSawfSQ9WR+4shwTsV4ccG+xb0WffbMDFb9JmsafrJBYIvIt48Mi6Gv1B8F8pI0/lZ8sKswVRVGUZYF5j5i5hQtz/rFDAVrNKYbZrWA+7yNRlkShpRVIxeQ4eTTZzSh0DbHG9gPQfYMu6PmzGqCSJ5GQlUkj0NqSRXNzM3wRxuyiMB6PIVWRRLyLCPwyiVc0zKN2bANqv5yJlpFzkP1c0tacQlwEfcZrQSwsMwKa6QkcT1LuS2WBX5Ad435D6/piUWG+TGE+UmGu/GRRYa4oiqIsC8x7xMwtSphTHMl29nlOi3TgmjEzsvks3ERo3FGautZh2+O2Q59deolQB+pn1iMzNoP6z+vw9Qfj0Dwng3hTothPgRzQpgumCPBQzuEkZblcFlMBeq8/AKut1xdlQxIo651GLBfDowc/igGFwexQHX7CM41VrTAGh/07WgVTWYiJMI/L8XwR5ewGcbHKWoX5MoX5SIW58pNFhbmiKIqyLDDvETO3CFeWojQ38YoCyUbCjqHFa0Rjqg5lG5Zju39sBb/go+HdOjxzw4sIJlnoh/6oDMvhsTeWhG1GgDbjWsgR6cvNP98cX9R6XNIRcxDk2Y4qgyanGXNjzVhj0FrAFE9EvY0gFiKDLBLgiJ1xuOyRTES6Z8k8hbmo/rxUHOiNTt/5RaLCfJnCfKTdJSqKoiiKoixnRLLLfxJEtNK3G5aFXOgjl/KBtVPY5qIt4dV7uO3oO/HeXz7FWhPWxTq5DVDtV8s+gSgrC4HnwGXXi4GEMCHHiYk4to2gToUVcFpTCBqBuS0z0JJqQGNQK0LbwcTREzC1fiq+LUzClMxEzM1Nw4z8txjfNAbjsl9jmjcFrSLkOaJ+IU/rPhuHKqsSajFXOjxqMVcURVGWBeY9YuYW5crime4F6cLiiEJibygxy0FdOBM9f9UDax6+Ou76xRMY6q2FdOgi57UiTEu8IG8aitoixkMR445o9JDdL9occ0POyE5RAnbUaMEPAnhVHip/XoYNh68DiKb3PQ+O5RZNpkykJ4HHcGVvR1bJJjQDX102DjNfnI0yX84j12C5rqR3Me9FtZgvU5iP1GKuKIqiKIqyIjD9C4oqpjKWEGRzcPMeYkkR1qEs5/JIiHgvtLYgISLcbU6gsqUGFZlqJDwRzOyWUNSvK0LcuJ14DuJG6NO4JBWAJDCpeTxWP3wA5s5pwOvXvodR132Oz6/+Ep9dPRqfXPMlRl3/OT67/kt8es0YvHPtx5j08QwgbmHGxOlIBjFk/JzppaX96KFK50aFuaIoiqIoShvFQXk4x4aVAQquh4IjU0vWxBykalLY8y+74qvYZ0A3ix7jsOIJtMZzaElkkBexzGP4TgjPlsD9RG4VfA+ip5F1c2hw6rHOTkNRObAcE+79Bi33NKD1UQ/TRzRg7qMNaH6wCQ0PNaL20UY0PNaECU+MRUVZGrO/rsOcSXOQcivhW0nYsXJ4vkq5VQn9NRVFURRF6TTQdSAKnieiuVCA7/vzrQuCwISlIowhtNgrC9W5YwYZcp0EQlvmEwWEfog+u3bHUY8eiTlb12FSxThkYnPguy0I43JOmw0/feMzDj9nui+PI4Yyx4JXyCLppuAnM1j/rHWQn1zAzHfnoKffGzVuV1QEaZQHCaTDpIQKlPsVZlCj8gHlqBlUhTEvfIHefl8UvBCxeAGun4erfiirFCrMFUVRFEXplNC3N5fLiRa2jRBvbW0169kWaWmFOYWRLZqcga4o9BV3aUWXP6+QR+OERtxw1L8Q5Hz84sLdcNBj+2Gdv62Nwh4hxtV8i7HOeIzDWEyxvkV9rB6NhemY5kzDbCeDRLwcDa1NiK1XBrfCxQuXv4J0YxXisQTm1E2TM4jwF53N0UfNSNdyDXNQi+2P3QaQS2sc2YyklUTGziPIu2i2fOQ5dKiyyqDCXFEURVGUTgmt5S4bP4qApbX866+/xvDhw5HNZo3lfGkwhnLjylJ0aTH9hRfYIJRCWYR63EHZl+V44JBH8Mzpz2PKyOnoNrgrdjprW/zy3gNw2GP7YL/H9sA2d2yKTa7dGFv8bWMMO38DtK4eoDFshtsrxM5nbg+r3oI9ykZ5WIlmvxnpKvqg+6YC4FtsJBrCd/PIVWZRvkkak0dOQ8X0SoQtAXz5SzoVki65dpNWZVVBhbmiKIqiKJ0OCm+Kcrqx3HvvvaaHjE022QQ1NTWIxTjKZrwt5g+Driu0WJtRNWXZdJno0sNFhLOdgCUb434Sq3VbHbO/mIs3rn4DTx7+FJ478kW8cfE7+PLxMch/4yEWxFDRqwZdh3RFt6Fd0aW6DLlEK1KbxGDXhHj83AfRxa+RSkQOSBZ7auFonpDASoDn+GiKNWPQ9mvAqXDx5IgnMMuvQ4PdijnBTNS6s+CKkE9YsWLClVUCFeaKoiiKonQ66MZy9913Y+2118YJJ5yAV155xbiwsHvdyIK+NLCLw0iYB7b8J7jxGHJeoTiSpxOgIV6PjU5bD0f++zCse9g6KO9ZjXBcDNbIBOb8pw5vnfo2njr2WTx1zPO487gH8MzvnoI3qhUNsQas/8v10VqbgfWNCGoR/alUHKHnw2Gfi1ZSKgMWu0I3FYSWshyGHbm+CHdg++O2w/aXb4MNL10f21yxGTY4by3E1wuRCZtNGpVVAxXmiqIoiqJ0Oii8aSXv1q2bmc/n82Y6ePBgY0mn3/nSQClO/3KO1mmgxVyOS1duN+cikU4ANT6+fG0MGr1GrH/8z7Dj9VsjPiiJhIjr6rAavdPdsZY3FENqB2DN1iHoNrsPkANW33kQ0gNSeP2qV9HTHwLb4aieOVi+HN9KSEXAgWd5cGWt6zuIh0m05DOo+6QRg/oOQmygBWfbArrsnkCvXXpgbrIOeSdfTKeySqDCXFEURVGUTgeFNwX4ueeei0wmY6zktKKvscYaZvvSDkbHkT85sJDLtqMy5VD6udYW9ExVYvzIbxBLxvGb20/AF29+hRdPegP37fcwxv5zHAozmuF4NrL5AsLyOFqSeWRTjSadnhvDBGcKhu63JmaMmYJvP5mCVtBVpcEM849q3whyDlLEAY4suZZEGEO3OTV4/eB38Nqv38ZL+7yKu49+AJPfn4h4bRqzbmiA9UkSFRydSFllUGGuKIqiKEqngxbyl156Cccee6xp9HnFFVdg/fXXN9soypfalQX09eYcG2HC9F9eXlEBN7QxZ8pcvPLCG3CGAEc+cgh2/N0WSFfF8N7Lb8ArZFAXzoLbxUW+yUK8kECzG8L2YvADC1scuhXK1y5DVZcu2Oec/bDeWX2wwQVDsMFZG6DvPv1Q680xI4PaYRxeKOeWP8f20TNZg65WV/hVBfzi/N2w/mYbYdod4/HmHa+iPObCD9ViviqhwlxRFEVRlE7HF198YXpgufzyy42V/NRTT8WTTz5pGn3Ses5GoUsDG17Sx9z4mXOQIMdCi4jufCGP1dYciB323AazX2nAF8+OQbdfdMW+d+2Dff5zEDY4Y2NU7VmJuv6zUBufgqbCJEx3ZyOHLGw5jlXhAY1AMpVC17W7o9vWXdBtWBdU71GN9PZlaJG/WOjCQVwkuYU8PDl/wXSNOC0/GxueuSEG/rw/Pr3za3x921T0i/eHXQgl/tJ9GVA6JpbUKJeuSqkoK4jXXnvNNOZhVqUVZGk/TyqKoiidFwptCm72xsLuEDfaaCP86le/wtlnnz2vH3O6tiwK8x4xcxZCL8SLZ45E+rlKxD0R83YIW7bTYm56RrED0xDUCVzkg1aR11l0/0M1huw5BPfsfS/6ZlYHBgYisGvQe5ue6DawK+K9Yzx0MdQDuVkeXvrV26hu6IJMuhlZqxahiGk72QWtyGBOegJ+9fAxGPv4JEz61yxUBuWwPDmnZcP2HXOgKYlv8bOzh2L1vQbiszs+x4T/TUP35hq48i70Xfq/S1zWIhaFLxUVOVzFb5JY99Shpq90y+GXgTb77GJ2V+aH+ejxxx83bRw4TxeqZYVazBVFURRF6dBQ/HDwoKhv8s033xw77rgjzjjjDCOK2J85w7KAA/sUdSpFvIhXSnUR7UFM5pKyJQ40ORl0r+qNxNg0Gh5qwEenfYinjnkaT/zyCbwr81OvnYnpL8xEw0f1SHo+bKuAikIaPcNeqEI1ygoWetpxbL/ztlKZiGH66/Wo8SqRjPtSJyjAz9Nf3se3ydHY9NwNsfoOAzHuvgn44r+jUZavkPRQvtmwglixi0VllUGFuaIoiqIoHRIKclrCGZqbm80X0yOOOALTp0/HjTfeaCzkjEOLeSqVatvrx0EhTmHOQMuyHF3OE4cfArFYAsnyJIZfNRxfWp8hn8qhS1iD1QurY/XGQeg5rTeCjy18dtc3+PjK8Rh94zco81MiuMthZxJAa5mI9G6IOTVobmhEz127oXl8BnO/mI0yJFE3txZuWIZYuhJjMR5rnTgIvbfvhpnP1uLza8dgQH4NJAJ2q+iIII+LMGcil26EU6VjosJcURRFUZQOC4U3Q69evXDNNdfg9ddfx7Rp04wop7WcVvSl7Rpx0YgSD20RwBTpFoKCL+cqIJD15RslcNgj+2HN3w/Ax10/whfJMZiNBtiFJBItCfTwq9HNr0S8JQbLiyMnaQzLCvATzfCtVuTsVjRUZVA5sArj3voaad9Gq59F9+6DUPAsfOtNwronrYd1D98YjR80Y+T1r6CysRxJPw4OJxSnLzrdUKyChKUb4VTpmKgwVxRFURSlwxAJ8VwuZ5Ypumkp/+9//4urrroKb7zxhhnZM2pvxHkK9KVt7NkeumuHosbZAM9YzkMR5TkfSTsOW07ROKUR/zzyn8h8msHq+62GYx88CjvdsgMG/WEAGjaYi2n9J2Js+WhMin2Fcc4kTLBmYTy+xmh8gln2t0gFHuJZD7026A+32kXDqBZUyp/nAnWtGUx1x2Posf2w9iFrYvors/H8ua+in9cPXcor4Yc5SU9oQiB/HLi/eBeUVQUV5oqiKIqidCgosim4CQU6R/U877zzcPvtt2O11VYz26POACKBvswa4MnhSttS8qgx0xhTZvIh4k4MXUb3xIvnvYpnTn8Jox/6xgzbv8YvBmKXy3fAXvf8Aoc8dDD2vWcf7HXHHtjppq2w841bY4+bd8P2Z+2IGbmZyMabsMWvNgIagOavCkh4VQjsAurdb7Hakb0w9Pi1MPPV2Xj1/95Cv2AQ0GKb3mIsmz7lNnw7QMHl6KYurGDRDV6VzoUKc0VRFEVROhz0K2eDzokTJ+KYY47Bn//8Z/z85z9HIpFAOp2eJ8iXPbSVM3yHZTmSnlCmskWmqXQK3bp3R25qFp/89zM8ccozuOPg+/HCKa/ho3+MwujHvsbcMXORr2+CEy8gnrLgxCz4jgW3sgJTgmmIDXUw+qUvEMz1EYj6nxpMxJp798Gmw4dhyhvT8NLVb2D1xFoIEyLAbUvObyMvFQNa8Gkv9zk8KUSYa+PPVQoV5oqiKIqidCho/aYLS0tLi+ku9+ijj8ZRRx1lxHpTUxPq6+vbYi4HQnab2DYvsGmlFwYILJFMki7q4Cnht9jsog2x3/W/wJ5/2A09endHVV13dPuiH4Knk2j4bw6fnT0a753wFl48+hU8f9QreOm4V/DKeW8hma9Er3X7mmv85skJ6FpRg2nhZKx9xFCsc/r6aHi/Fq/+/TXUVHdBYWgLZjZPQzIdh9QHEEvEwaGHOCopByPyLaZLG3+uSqgwVxRFURSlQ0EBzpE9N910U+y33374v//7P2MpjwYPqq6uXo4Wc5FGIQfiLx7f+JuL+LVjNsJWG8nyFCq6V+OB6+5HfaYWXfYqxx637oRgzRY0u7WS7gx3Qtrtih7xgRiYHIq+7lAMCtfBgNRAzA3mYOMDh5luFxNzuqLZzqDbTl2w3olrAzOBp69+HummOHb8wxbY9KwNEOQ9OHCZJKkYeMaWT9eZOHtjsTzT37qy6qDCXFEURVGUlQq7QqQVnI0+o/7KTz75ZCPG2eCTRD7ky1eUE8c0qTT9mYsK9p2sVAgspGwb05+bCr+pgKPuPgTdq3vjkROfxP0HP4bXzngNqak+0tkQ6SAFLycVC98TlZVAuZuGFcvBQ45mbsR7Bui+bSVq36lDU90MVOxWji3P2RSNXzXitoPvRDpVg22v3AGJrZL46vEx6JnsBy9vIRAhbhXY5NNFlkP9y/Hc0DdpVFYdVJgriqIoirJSoQCn4KYgp1X8L3/5ixn1mY0+KcKXWcPOJYAe3LD8opd5yH5PHHi+hWQ8jZnTZ+LT90ch1svCz6/cGbv/dXcMWncQWr8uIKxLoVHEc1MyAyedRyJdgFfIiqgW8Ry4COQa6t1GuANpkQfuu+YB9N9lADb79c9QP7oWI857EuW9KrHXdbui2041aJnUgi9eGI2QVnIR4LYtKQs44JFJZJuvOWXc8qykKCsaFeaKoiiKoqxU6J5CKMLvuOMO/O9//8O9996LqqoqlJeXL2cLeXs4FD+7YGGaeF4HMSuJ5pZWDNlwLWy6y2aYdOdUjLnlG3Qb1AWbXbYBdh+xEza7f2OUnRqHv3kO1gALhRoP9ekGTE1OQWs6I+I+RHPYjLV3G4JskEV5/zJsfNb6aJhUj3fOfQ9rzF4bhekWpr0yCy9d+SoS3ePY9Ywd0VSoFwHO9ISgmzun9IGnz3to/FuUVQn9RRVFURRFWenMnTsXH330Ef70pz/hX//6F9Zdd11jPad7y7Lqo3xJoKWcfuXU5HYo/0ko5AsI7QA1w7qiNd+KZy99Gd/eOhVPHfw0Xjh6JKY+MQduLIVhe2+AHS7fHFs8MAw7PLU19nxjJ+w5cgfsfP8WCPtmgaoCVtu8P4KyAn755yOQnZbDC+e8jm4N/ZFKVGJAWX988/fxmPPfWZj42iRUDKlAwc0hkXQlHSECuq5QpNNabkS5WstXNVSYK4qiKIqyQqEfeSS4I/cVWs333HNPXHrppdh7772RTCaNpZy9s9DVZcUhotdY6C04IoBt+nb7IXJWDtlkBvGyBIJqC5XxKgzwBqLymyqMuu4rjDjqFTy+17O4Z8dH8cShr+KjM8di6rX1mHTXFDQ91gKr2UKfdXoj7OXDr/YRNAd4/ffvoqauBp6fgZfzkJybRlVYAbdMjl8uUyuGFvnzPA4sJHrckXRZkTuLSLgV+iVBWRGoMFcURVEUZYVBQZ5KpUyvK9GonrW1tdhggw0wfPhwHHnkkWb9ykPOTUs5bec0n4sijsdiyHpZIAW4FQ6G33kE5m5Qh49avhTx7KJvrhvWs9dG9/o+6J/pj+ppIt7fbMKkf4/FhOsn4eP/fWGG5a/cqBxW3EF8fAp3HPQgyueWo9JPISYn8oIcWsta8X7qA2xx5ZbosWNP+HlZ7wR0Ximmqy1ZxSALnCqrFCrMFUVRFEVZ4XBkT4pzjux5wAEHGGF+4YUXmsGDKN5XFva8YT8lDSLKPSuAVwiQjKVk6iHXmkOiysYvLtsF+960B5qHNWBC+deYFIxHUF2Ml86l4eVbkHZjqA5rkMyVozWbxYA1BqLl01Y88avnMTS3roh0C42xFkxJTMOU1cehy69TOO7+I9HnZ73ROKtRKgIhCg6TIf+FrhHoxdRZZiRQ43KjrFKoMFcURVEUZYVBCzndVzil+8pf//pXM2jQPffcM9+2lUWxrxMO3ENRDviilHwRxnGkEBaA7Kwcrt7zGox+9CvUrFeJ7a/cGnvetSfWuXBNlO1rITesCdMH1GJq31pM6Pstxvcai+nVU+B1zeKZu57CI1c+injKRsOgWUju5KD6pArscfueOOB/B+BnBw5F/tsMHj/lcYx58Wu6lcPnrSh2Ym5SR9gji7JqYkmtVKtbSoeGXWZx5DdmVRbWK7PAVhRFUX44FOB0T2E5HvXAwuntt9+OCy64AO+99x569Ogxz9c8cmVZ1uW9eY+YOZHfXogXzxyJ9HOViHtyXpu9nUjwXXhuXuL4cII48o6PWCGBOfYs9DujG9bcfHU8sdcLqO5Sjjnl0zFg2GpYZ891Ud6/HPGuDixbzuDK7p6EZnMqoFEC1yUlxCVwW6o4zUtFpGVqBnXvNuCD599DbKKD8lgFVjtxIPrvMQB37fcgNsivKzcsgYKTQdwPpeog6TX3ptgodrF3yQ/gi66v+E0S65461HjBWE4gIrDNPrvYAyilMB89/vjj2Geffcz8suzOUy3miqIoiqIsNyKjSjabNfPRMo0u7IHl5ptvRr9+/YwoJ8tLlC8pIRtVinJlKujWEhehzqR5iQK80EfoBvAqMkhWx1BeSKNuZD3ePOU9PH3ky7hqu+vw2KlP4p1L38Ont47G+OcnY/YHczFnYi1mfTMbU96eii8f/Apv3/QuXv/z27jvkPvxwAEP4bVj38XEa6ei27ie6BsOQliIwfOkgiLpcEV7B3ZOUlMoDjJkBXCMSdWV7XbbvLKqoMJcURRFUZTlBl1TSNSzCoV5S0sLDjroIPztb3/DjjvuaNZ3GKyCBB++COC8iHBO2WOKlbNFCifgxwLMDMZiy4s2wy8e3webXbIpumxdhlRrCnskD0Oft1eH+3iI7B0FzLimFl9eMBafnjMGX547DuMumYL6W1oQe6IM1a/XYMicoVgjtwa6OjVwLAdlYRkc3zJdJDpJR5IhwlxEukv/cj80DU2NuVsITT/rItrN/8qqggpzRVEURVGWG64rolLEOF1UaAWnKGcf5WeeeSYOP/xws53r24eVh5w7jEtImkF8fDtAMhFHKnBhzw6Qrkqj74br4N4rHsGMF2aj10Y9sO3/bY36ftPQak2FLXGbbTb+DOB6FlJynDIviUTeQZLWd4pr30Mm34DWRL3clwJEgpuh+5MizJusZtR1mYMu61ch25BFGcohUYzbCYPxgOftkQpDIEFWFpOtrBKoMFcURVEUZblBkU1hThoaGrDHHntgp512wh/+8AdjRY+2dRSYGg6hbwf0Gw4Q2h5yfgEVbiUmvjwJhXEFHPSPfbHWNkPx1L+ext2H3Y8PL/0YlXWVsDMirHiAmAs3IRUOcwi6xdiIuwk4FPqisn27gNCxkSx0QWWhB2JBHE2JJox1voG1eYg9L94N3Vfris/u+xLlVjn8Qlt/LMY87pg0UpBz0KNiipVVBRXmiqIoiqIsMyLreDRliAYSOuWUU0wXif/85z/NAELsMpHTjkRoFaQykRf5WxCRlBf9K8JX0olCEqnp1XjholdQN2EutjphQxxxy2Hou2svTJ02BXYijTlOFs3BXKQLDfCdHAqxEF7MQ972kWNwfRQSIfLxAE1WBnOtLKbFp2Ny/2/QtOMMrHfpWtj+H1uhoncFPrxkFOY+Xo9yuwwxOrnbFPhtfcYYKzkbb6ooX9XQXlmUDo/2yqIoitJ5KJUVFOWRj/nll1+OW265BV9//bWxlEeuLYxPd5YVgXmPmLmF98oSWB4cWszlMtjokr2f2G45Cq0FpJwYGmNzMbl1Itb+xRCsPXxtpGrSsCotBHNC1E3KYswbozDj80lwmyoRFGS95yNmx0zlhO1a2SW5k7Tg9Ihhrd2HYLXBfeAOtI3reGFOAVNer8OI657ERs76qGysQM6RygGt4nRjkTi8gtCSe2cs5b4IOdpYF2Nn1V5ZlinMR8urVxYV5kqHR4W5oihK5yIS3QyFQgHXX389zjvvPEybNs2I8mi4fW6LfMxXBOY9YuYWLsz5hzAhAoluLHnEAhHjXlbSbaHCS6Lea0DOiqF33y54f/QbiA0sQ/9tB2PjvdZHekM5dEwCe1tMS6DCorcJ9W+hbcrA9S0S+LFgKvDtK9PxwdOfoGVMAX1S/WGLkO5SXoa6GXORKi+Xfdgtog0roLVcDmCEuRxYjlPs03wx90+F+TKF+UiFufKTRYW5oihK54FiOxpqn1bit956C/vttx/uvPNO7LLLLqZbxNbWVpSVlZk4HPkz6rFleWPeI2ZuEcLcyovejYnstY3VPFFIwkv6yIT1KMumEaZiyBfysGMxtGSaUV6egC9KvKlQj0JZHoVUQeLLeSpiKK8uQ0VVhelxhWSbW9FU14R8q5wjK8K60UI6rIKdSaLMLTeCPMx7KI+XIZvLAC7TZKPgFEy6bakkBHIs9sjiMIVGm3PLYt6LKsyXKcxH2o+5oiiKoigdFgoUhqgfclJbW4tDDz0UF110EXbbbTcjyinWKcqj+CvKjWUeck5jsRZRS1dt9mwSGIu0L/OcUqWK3JV4dBcJbA+BX4AbuLBijohyVjwseGEBqbI0vFyAWCaObl4PdG/pg951A9B3el/0/Lo7Uu8mkX82j8wzGbQ+3QL7dQddvqhBrwm90X/mQPRrHIDuzT1Qna9APCtnyxeQkPtRyOeMmHfNaESAEzjFxqiSXjsQUS5pZx/rTCvTKFWgtuCVzDNQfBf7Q+cxLNmH11zU4UXXGB5GrtzcEmXlo8JcURRFUZQfBQV2BN1YOJjQ7NmzscUWW+CQQw7BiSeeaCzptJBH1vRouiytjYuDqaQQNak1/1EGFUWv67siXjk6qSubZH2baM27BZmK+LXipgEnjd+yGjHZ6BQCuLIicEQSS6ADueXJcbwkYhKSfhnSYbkJZahEIkzLfkkR+QnIDnJMDv4vYtqRCoFUCmJ2XO6fnFdOTws+BzTy5R6FpicWCZznaSRw/XfBaQtuyTwDu3tkF4umikE1j1CuwZdzeSLH6bZjhDoDb4ey0lFhriiKoijKUhOJ8sgCzkCr+GGHHYZBgwbhkksuMesowDmlGF+ZGO9sqh8JIQW3iFObI2rKFjb8pP82XVgWFZbkCkS2y/9tJ1pg4FF4MJruo0CB/t0y07Sg888f6HKz6CAHE4FevG72y26ukxUCc92shqgs7yjw11IURVEURfnBUGi3n1KAn3766cZq/tJLLxn/cfqR02WFVvOVCeUn5TL9symKrZCuH0xTAM8pIB9jq80ArijYhYWiVb3YCHNhgZZtO/TbAsU1Q7TstYWi/7gtx1t4cBaYhvlDKMGX4MGV45rAebOO4TtXFtt3ZBoz/abHaN3nbaDlXIS6sagrKx0V5oqiKIqi/GgicX7ZZZfhueeewzPPPGPcWSjU2QsLXVxWuD95OyjM6bZh5kWHUqw6flxCGq5XAbdQJQI1gYKoo4UFT4Ijx0j4Cw+uT/cSW+JaJn4xcJ6B69u2Wc6ig8RbUBrmD4wj1QtO5ZwmzFvHEMJ3slLxYNeP9DmXa/fkTgTfDe8vSVY6CPKTKoqiKIqiLB2ZTAYzZsww7it33XWXEeaPPvqo2da1a1fjS85GnxxMiCK9tHHoioZ1hyCQ/8KiVdtzAngxDvhTQMH14Ll0xSnADrKLDHk7i6yI3YUFbuc4+jb7LvcDM3Xl5N8FqaTQer6AY88fMt9bF7MK8wd4EtiPzIKCVBKkOuLIjO0G8GMF41nuOfK/7RVrGBLDNjFVEnYE9FdQFEVRFGWpoeiurKzEe++9Z1xYbrrpJqyzzjpIp9MrVYQvELqY2BYCLwAKFMhsVEn3lSycwEOSQ9+HMfhWcpHBCiUEiwhhSoR/AoEJcTP15Lhe6LYFzscQsLHnIsP3z10IE/MHxCXEFhoo2+1CEolCCvFsHNTjFi3pVijHY/NPEYNyO9TLvGOgwlxRFEVRlKUi6oe8ubkZBxxwAM4++2zsv//+SKVSZjuH31/ZjT3nw/KR8zLU56KALGT8DJqCRglNyHgt8LI5FLwc8mHmR4YWCU0i+RvnhVxQj2zQMF/IB62LCTzO/MfOeExraWiQ66hfSKiTUItZ1kzMDGYjbxXADwbGf9309MIvB7wv5u4oHQAdYEjp8OgAQ4qiKB0T+o23tLRg3XXXNeX07bffbtYx0JJOi3lUdncEQtMLCdDKxqhODGOfGo+m0a0IHDYCBRzfgcVuD5dBD46RL3sE74nxpSnBdhbvc8+eY0rxfPao8sPwvTzKUYWKLcrQb8c+pvFnINdYtM4W74naapcc5mkd+VP5yaLCXFEUpWNAP3KKEFrJo7KY3SKOGzcOH330kdlOQb6iaS9lFveeKMaWdwobQVLnRpqUG9qroqV95bCTk+hYnPIc7Y+1tMdeHO2vgci6wJVKk8ueYWJSaWpbr/xgmN905E9FURRFUVYqFLzG8iuwh5VzzjkHo0ePNgYUz/vhltxlxQ812jAmx8yEK2I1TrHaFmISuFwauG4pQpgMEabaQlqCLC+rYy82tD8PQ0J+N1rJQ4pISd9i7LLc3j4oyx8V5oqiKIqiLBG0lNMqTm688UbT+8pjjz1mLIaR60pnIxL1pYHXURoWFGdxYUFidkHxlkdYXPpJ+/RFy+3XKysWFeaKoiiKoiwRtJKz28N3330XF198Mf73v/9h9dVXR1lZmbGYR9b0FQlFJCsLS2uxX5RojUL7OEsSIkFMeF/aH3Npj7skof15SPs4hOmK7l37fbitfVCWPyrMFUVRFEX5Hu1FGqcUcRMnTjQ9r1x55ZXYYost5g0axOmy9LVdHJFQ5JTpiqbRutL0l4YoDuejKUMkTkvXcaTS6FikdJ5wuXQdjx2Nblp6jOg4UdwFhQjOL+g87eNG66Ipz126PZpGlB6DRFOuj7ZFaY+OxSm3cVp6/GidsuxxLhLa5hWlQzJp0iQMHDjQzJfW9BVFUZTlC3tciQQcy96mpib06dMHlA4nnHCCWU8xHpXNtBKvKHg+po3TJ554AjNnzjTWe6Y5kUiYbRTb2WzWpJFp43JUeaAI5TqKTK5nxYKDJfGLANe3traaEUt5fMLj0l0nEqiE+zIu9+M84/I4kchn3L/97W/4+OOP8cknn6BXr16oqqoy2xjoGhTF5748BtMVVXaY9jlz5qC8vNzE5bmi/ZiW6PzRuRmi3yw6LtMQ/UZcTzjPbWwbMGLECPMFhPeM6eM5ed10UXr++ecxatQoUxmL3sM8bnSs6Jw/RcaMGYMhQ4aYef4Gywq1mCuKoiiK8j0ovOiiEo3YSTG41157Ye+998Zpp502T/ytLChGmQaK4lNOOQV77LGHEbVMK8Uo+1Bn/+q8BsbjtmhKKCg5z3jRNopTzlPcElZEIhif9yAS9tyP85wSnpNpisRytI2VmB133BG77LKL6cHmN7/5jTkX41Bc87i8j4wbpYnnITwWB2+KKgMUzZEob2hoMMcovYZSGI/7c1uURt4rxuPxeIzrrrvOiHD2QX/bbbdhhx12ML8393vuueeMUOd97devnxGhrKxE17ksxajyHXpXFUVRFEX5HhSJFHKREPvDH/5ghO59991nRCe3c9vKhOl688038bOf/Qx9+/bF119/bdaz68Zbb70Vn376qalM0GI9depUcw0PPvigSTuhAL/88stx8sknG8FK4fntt9/i6KOPxi9/+Usj+O+//36z7e2338aRRx6Ju+66ywhkiukrrrgCY8eONW49/ILA+xPdL4ZooKVBgwZhtdVWw9NPP23Sxvt61lln4csvvzTxaL3mMTjPnm4oqnluWts5girvN7dxmZUinofXwPTzOmm9PeKII0xjXAp4HvuGG24wcZgGpumWW27BcccdZ84Z/XYU971790b//v1Nm4Gtt97adAPIc3E7BXnPnj1Nl8VM/zfffGPWc3+eR1n2qDBXFEVRFGWBUNRRgF5yySXG7eGFF16YZ1FlWJnw/BSITNfvf/97XHXVVXjrrbeMYJw7dy7+/ve/46WXXsKBBx5oBDWF59ChQ/GXv/wFs2bNMvvzuih811xzTTNIEq3IXbp0MRbuPffc07hzbLLJJrjssstw7bXXYqeddjIC/aijjjLnpgsIRT2tzjwG41JE05rMdPAcvF+My2NXV1ebtDz88MNGBLOSwMoABTKFNO817zGt6nTLYSXh9NNPN8c699xzUVNTY4Qy00ZLOtP+17/+FTfddJNJM/c79thjscYaa+Cpp54yx6foP/TQQ023lrSIc3TWf//73+YeRi4/DDze7373O5x66qlGfPM63nvvPSP2afUfMGAANthgA5NGxuc1KcsBubmK0qEZOXJkKIVbKAWFmSqKoijLnmw2G4qIC/P5vAmFQiEU0Rg+8MADoYjV8OWXX26LufLh+4BpZRpFMIYiYMNp06aZdDY1NYVPPvlkuO+++5o4uVwu3HLLLcNPPvkkbG5uDkXEhp999plZz+v85ptvQhGfYXl5eSiC3Rwzk8mEItpDEbrmfP379zfn4P3gfRKBHU6ZMiXcZ599wrvuussch+cVoRw2NjaaYzCNPI4I2FAqCiYO973zzjtDqTSYOCKyTZpERIcirM26IUOGhBMnTjT7ijAOe/XqZc7L448bNy585plnwj59+pi4LS0toVQGzLF5PUcccUQ4YcIEE/8f//hHuP/++4eTJk0Ku3btau4Fz/X555+HIvrN/jznI488YvZl2iZPnmyugXGPP/54s33vvfc291JEfTh16lRz7Oj+/1Tfybxu5pnoPixL1GKuKIqiKIqxntLCS4soEbFnfKxpjb7mmmuMO0NHglZpNkxkGmnJpjWYLiYiLo0riAimeRZrXhPdPniNnDJwPa3QBx98sIkvIstYiTlPS/W9995rLNH19fXmfLRW8zgiaM08p9Gxea+4Hy3nTFepNVm0VttcMc10r2FvNpznVIQx3n//ffznP/8x5yfcn9uZfh6X5zj//PONpZzL3M7ANHPKeITpidLF80bH2HTTTc12Hp/uKdyHx4zSynlOpVJhrP48LrfxSwEt5gxsW3D33Xebe8g0cLuy7NG7qiiKoiiKEXCR2IsEId0pKM7YOJB+0R0JivB77rnHVBzopvH5559j3333Na4mkeiMhC6vhT2bcB+uowsIr/OVV14x7hq77babWReJaPp30yeb10z3E26jH3ckdGfMmGFcXnieSPAz8Pg8RnQPS8Ur7y17GaN7yVZbbWWWL730Unz11VdG8Ea9nnB/HjcS2NFxStPK6+F5GY8uMrwmxuF5uY5E4pzbRo4caSoPjPPOO++gR48eJg63Mx2c8jwU/vSh5z6ROOd5SG1trTkmj8MKCKfKskeFuaIoiqIoRghSoFGM0eeZllP6Kx9++OFGiDF0JJhONqb89a9/bazjra2tpjHmzTffPM9aTtHJ62JcWtYjYUkBTRhv1113xTHHHGMEKC3GFORsUMpGmPTNZoPJhx56yDQIZc8qtHLTgkyhT+FOEVsqlNkwk+fhObmewvmggw4yVn2K6ttvv92s571ee+21jY88/c2ZVl4Dj8cp7zfTxynTReHPhqxMAwN9wqPzcl9eb3RdPDa3cX82ir3jjjuw/vrrmx5W6GNO8U2YTvqPM130v2fDUnbnGFUGTjzxROy3336mIvHyyy+bBrG8Rl43r0tZ9ljy42mzWqVDw0KLn1CZVVn4MCiKoig/HgowwnKVZWwk7titHwXfM888M88ayzicdgSYVgZamykoo/cDp+w5hO4aU6ZMweDBg8069kTCxpkUonV1daZRK4UlRTpdX/hlgHEoXmfPnm2sw9yP2ylUuZ2Ce8KECebYtKITLtNyzmXeO1rrt9lmm3mWa04/++wzc994bvbOwng8P0UzBS4bWw4fPhybb765iUe3lo022sjM8/zsaYaNLinW2Z84G2HyGKwY8Jp5vbw2xuc1d+vWzZyLLjisYNESz2thg1g2emW3h9FvOn78+HmVC1rRea3R78z7wnPyGtjlJM/LeNG9Ztp4Dzn/U4P3gL3X7LPPPmae92VZocJc6fCoMFcURVk+0JrMMpXii1MKMgpFlrsffvihWY7K3I5W/kaVilLar2P6F0d7GcRjtF/XXngt6D4saB2Pw8BjcjvvN8Us7zcHDmKvMexN5oMPPlhgWqP9S1lWv0H747Y/P9PYPg4Ff3s6Up5YUfC+LC9hrq4siqIoivIThJZSCq3I8kmuvvpq47bB0SBp0Y1EF6cdTYBFaSoNFEilYUFxFhdo6eZ9KQ0Lire4UJpGil6mh24pFOmcZ3/mvM8MFMF0tSndv3S/0tA+zpIGHqs0LO64S3oflGWLWsyVDo9azBVFUZY9LFMpyinKOH399ddNI08Ob08/agpIukuQzlLutpc0HSndTBsFOO93lE76jtN9hJb0SCCX0v56yLK4puV13J8KvH9qMVcURVEUZZlCqygbCdJ/mo38OMolB6qhSItE+aoOhVX70J7FbV8QkUtMaYjELytCXK6oqDDxaI1eUtofc0mD0jlQYa4oiqIoP0HoykKBSF9nNnpk13277767EYp0beF2CsnOZEmN0vtD0t1+nwXtt7jtC4LuIqX7RO4jnKdLS2Qhj9YtyOpauv+PDaUsbruy8lBhriiKoig/QWilZU8dtJTTSn7CCScYVwta0Qn77lYUZcWiwlxRFEVRfoLQMs4eWOiywn6towZ+dG0hFOmKoqxYVJgriqIoyk+QCy64wPSZ/eqrrxpXBgp1Bg5kwyldLxRFWbHoU6coiqIoqzhR479oZMh//etfpmtE9sTCQWTY+JN+5ZGfc9Q1nqIoKxYV5oqiKIryE4CuKRTcHG7+zDPPxLPPPotevXoZX/L23SKqKFeUlYMKc0VRFEVZxaHFnEPsjxs3DrvuuituueUWbLfddvN6DolGAFUUZeWiwlxRFEVRVnHoM05hvvXWW+PQQw/FYYcdZoR41Mc13Vi0r2tFWfmoMFcURVGUVYxIcNN9hVP2tEIxzv7K//vf/86zlNO1hX7ljKcWc0VZ+agwVxRFUZRVDIrsuro6I8ApzM8++2zMmjULL774onFbIaUD2kR9lyuKsnJRYa4oiqIoqxjsaaVLly7GhYW9r4wYMQIvv/wyamtrjZVcUZSOiQpzRVEURVnFYF/knufhqaeewj//+U/ce++9pueVmpoaI9Z18CBF6ZioMFcURVGUVQyK79GjR+Pwww/HFVdcgc033xxlZWXGjYXbFEXpmKgwVxRFUZRODH3IGxoajPsKLeG0lE+bNg1bbrklLr/8chx00EHzGney9xW6sqg7i6J0TFSYK4qiKEonp7Ky0rivUIBToB988ME48MAD8dvf/tYI99KGnoqidFxUmCuKoihKJ4bCm+4ptJTTEj58+HAzvfXWW826qDtERVE6PirMFUVRFKUTQxcVim+K8dNOOw1jxozBo48+ataxG0QKd3abqChKx0efVEVRFEXpRNA6XhoovMnNN9+Mhx56CA8++CC6du1qBHu0TQcPUpTOgQpzRVEURelERNbvfD5velnh9JVXXsEZZ5yBu+++G2uttda8OLSYR6N8qjhXlI6PCnNFURRF6WRE/uQU3ZMnT8auu+6K22+/HVtvvTVaWlraYimK0tlQYa4oiqIonQyKcrqxTJkyBdtvv73xLd9tt92MKGd/5YqidE5UmCuKoihKJ4I9rNTX1yObzWL//ffHZpttZgYRolhng8/Ir1xRlM6HCnNFURRF6cDQhzxq5EkXFrqvsN/y3/zmN8Y6fs8995jtHDyIyxTn6lOuKJ0TFeaKoiiK0sGhIGdDT4ptWsxPP/10M+Q+e2FJp9MmjgpxRen8qDBXFEVRlA5M1LMKp3Rh4cBBd911F2677TbTLSJFeyTKVZwrSudGhbmiKIqidAIoyqdOnYrf/e53eOmllzB06NB5I3tSkKsoV5TOjwpzRVEURelA0F+cgptEQ+lz3bRp07DVVlvhxRdfxHrrrYdkMolEIqGCXFFWIVSYK4qiKEoHIWrkSdcVzlN007d87ty5OPjgg3H88cdjyy23nNf7ilrKFWXVQoW5oiiKonQgKLppKafgpuWc3SAefvjhZkTPqFvEqEtECnjtHlFRVh1UmCuKoihKB4FCm90jsqFnJpMxy7/85S/R1NSEBx98cF6XiZE1XVGUVQsV5oqiKIrSgaAopwBPpVK46aabTEPPJ5980ghx+pXTYs44RAW6oqxaqDBXFEVRlA5CLpdDa2urmX/nnXdw6qmnYsSIEejevfu8Yfgj1xUKclrUFUVZddAnWlEURVE6ABTc9C+nAP/666+x4447Gkv5sGHDzDa1jCvKqo8Kc0VRFEVZiVB0R4EW8IkTJ2K77bbD3//+d+y6667GSh41+FRxriirNirMFWUZwg/M5iNz20z75WgdKVm1yEAWtH5FhCIla+afmKCsOsz3m7YtzFsXzZSsWxUD/zPzbSuidcWZ5U9tba3pEnGnnXbCySefbIQ6xXjkwhINy68sJSW/q1SFzCrStnpeWBzt4y8qkAWtX1AgC1q/oEAWtL59iDDLC9oo02hWWfmsWGFemhkWFpaABe3WkYPy04C/tRkKJAxMYKHPZbNOVpkZebmS9nmEa0tD++2lYVFxSeny0sb9bn20pe1KomsLfRRkmychYBRllSD6pU02NYG/ry/rfCMKzUYhyh/zorWFaD0DKV1eWDwGUrq8sLikdLk03o+JK1cn+TmQ/MznNpA/H1lerM88biIscyILeSS4Gdgby69//WvE43Hce++9Zht9zunewkCRzm3Kj6AtMzAP+CzBQgZf8jl/A8CTwCmjLSqQ0uXSvMVQuq19WBFxfbkIXlMUmL8KbdtMfuOcyXtc0bZegrLyseQHWnG/xZKcyWL2WDSdLfNY+mHiR/Haa69h2223NYUJLUUd3lpksrAUfDaFefG35/8MUvzDobjtTFht+TfkfZcgD6Avk6DtZ3DkcrT92aoB3wYsXy35jz+vJzOelMl8idvmz4Er+dcqZvJVhyiPExHhnix6cpVJyeQZB0jKOhOlLc8vC6JXL8U4oeA+//zz8dBDD+Gtt94yI3qWl5cbca4NPJchbXm8WH5JCc38HMr9ZTA/MLdKsDt5Hi+VdmbWhW+LGpF5XhmvPybTnEwTXCdTXj2Dsnj4/D7++OPYZ599zDwrzsuKDvi0MweZbLOKhJKHQ1n14c8tJRs1LH99ChhbAgs7bpKqhbwKLDPtLMFczLyXllwXF82cFCCavVctqMjbft1i6UWzggXaaF2Tl33JDrS2LTivdMbAp5NWcX75MRUTajQaAHgTZNm8JLlQzP7LHPqOM9x66624+uqrzcue3SQy0G1lRdrOfiowmxuDggQWb54EX37oQAo03u2iUaVYVi8sLCgvdaQQ0P0pCiLIA5vfhaSGaSrWxVi8ViMneS/kITCPv7LS6XDC3DwUJZlrQeG7UrIzhOiaFh2UVYC2H9NM2l7stI7bgRSEgQfLl1q1qFo7lKKwNJii0ZH9iiFani/O8oxbsm2+eAxmO69ISm5aTtsCn0RXlIwtooHzyqpB8VVNSV6EeTgmi44oF8fkX+ZlKtfv8siPzl8/Mu73zs+wpHFlmyWBL0KrTQDz2SXFXsIltlm//PI4Bwt69dVXceKJJxpRPmDAAGMt5/rIfUVZdhhLOYOxlBdzPH9ys9osMP+zOip5IwpWyXxbMPloCfLX90LbtuUet20987cVOMjJVjppsfZpSdnNZ9pcKuHFd/YvBKsQK/aJjx4ICXwc+BfIw8Gp59NblctSs5OC/7vAZQnywMwL0br2cUzg9tLQPm67+POOW7JuQXG5fUnjtjs/LR6lIbpmZdUjaLM4hj4LfeYF/tayXoJx/2Aks+a7EOUL+c+EefPt4pnQto0vFCMkovBj4pZsmy8eg2wv/s9F2luKfvP0yWRgyc5r5nal8xP92qayJfmVL4hA8jJ/Y98IVhbejCV/nLblkx+Tv+YLJduWNC7jLXXctu28suK1STkuUz7G/BrUksuYimgx3rKBPuPE3Dth/PjxOPDAA3HzzTdj6623RjqdVl/y5QjvO9sQBEFeflv5DaSctuX9bWa5XXI9p0UzYFuQfeZbblsX7RHlp4Xlr/lC27blHbftaTXIJRat/JKVTbsgS66RAkUw7yZ50BkYT1n5yO9nfuUVQumJeFpmDNPanFZFySie58GN0etpVcod8kIL5JGQ63RsB5lsxlhDjK90yXXq87BwOouPOfO3F0gelsqYlZE0shVRwvn+j9v+ieP29nGKZWbHoDQtVGpMa15EOQv2hFtcl5CV7a9B6XRQcBdf7vKjyu/JrOp7BRT43MnvnfRELPKV4ZT82IzUPk93Nng5UT4383InMlnkaly5VAuuXKAl5fePtWX5vm9EN8syuqnU19djyy23xF577YWrrrrKxOE2FeXLDz/05J3sIS6/Q0smg6SdgmPytWwsfibp/Pl5QTDrevLPDVCQ8jopKpyvUhqMii6J1GM/Ln//lOBzurx8zFeeMJc/WhMz8mD873//M8ML88JCETU/tPBbkktYUWLu+2mR0p5WRblWVjpq5841nyzLKyqk/C+mif+vmNR1TjpN409JX2tTI+o+mYjHLrwRPby0qZTJa6Do8mGscVLxtGmB5DW05RXZZgRRCfMXkCVxDe3zWHQ/oumyiFvcTqs/UxLzJe2yype8HIooc0Vg0CoTJF3MSYf43eNXF1sSKZ2aecI8yh/MEiJSC76U1ZPn4n9HnYtuTrmpcxYpznz3TLafluap0vloO/kxcUvjkaWNGxqXHcZgw09LlEpjeYhf33MF7EpXnl/J745k8B8pXFiGRRZzCvTddtvN+JI/9dRTphFoNLJnNNy+suxhLyx8L4eSry0/hhf+cRtmjPgIqYKL1jjLaRFZNB2zcmqQXMGsYrLP/PnLyJV5+WpR+SuaX9K4pduXRVwR4pJ3bSvEWsfujnWO2QU2K9fFf7JbNPPdHsqi4bO8ygpzFk4cRGH33XdHWVkZ8l6peW7BFGt3nQc34RpLyYQJE/D666/jrLPOQkWJMCfL7idd9ehMwtxrbkHrK9/gwzNvxYD6NGJ2HAWrIC/90Hwu9SxXfnW6ubTtQ9ouJ1rFRT6VC7pKE6d0Q9tOPyZu2+qFxqVQ4TPHyoUnM+xZxqbrmVxTLmlhStcQu70rwjxV3EfpvPBnL37Sl/8sVr5kRZ6fvkW0TKjDmzufjaFhd1jfKfPv8k/bzA/NX6Ws6LjRIl0air1zSOVTCuMgCXwSr8V+b9yEXIWPeFxEjS1iuf2BfyB857H84vTggw/Gt99+i5deesn0vtLQ0GAEOd8NyvIjpD+H/PiFgvyuXgwvnnYDej8zDjWtMWTlJ3ZpSxOhSnePJWVx+auUHxy3XTyyNHFdyXcZOwv/97tgrdN2QyiVkEDEObez9zBGp23lx1U9fzqs0sKc7h3nX3A+TjvtNFRVVErmkWyxwlLUDnNeyabzMveySQgLffpvvfveh3jhhefMtbIgZvOS6AwqzBdOZ3Jlyft55F8Yi/eH/wvrZ7oj8KXQi9ECQ3Ochbw8vI7piK3URi5z7bNayTVyrv3mFQkbw7FdEBvBUZjTSsSGn3RFa0mGmNLDxvZv/02F+apAm10kauTL13WxTY2D7Og6fLPbJeidS34/Py7lMxntxeOVzhvaZfwoTmk8Y+gribO0FBwbjm8VK9CSz0M3xNuJWdh71I3wqx25fg/xZWDFjoT5X//6VzzyyCMm9O/fH9ls1viWt7a2Ggv6snzJK/PD34Dk5HdONlt4/ez/ot/j41CdkcpnrPiF0GJ5HWW0hcCj0GBRmh8Jl9vPl64rZUHrFxZ3QSxpXMaLBzbyqRB1v9kSg8/eA4HUQFy5WD4/xq9e8iXjMSiLZ5UT5lFBappASmY4+5zz8Kc/nYEaEasvX3ML0qJiTTt5ySGMYzLKvJ35X3GBtdoI04jDTIvH/35h/V3c4v6ly0Xajmr+L07k0fvecdrz/eOUIs8Cuqy7GtbabUe89+FneOm553DK6aegoiwt1yjyTK6fEo09BCsLpjP1Y17wcvCeG493h1+PdQpdRdTIr+vwZV/cTlG7LFLPw5Vk/3lE+X7Z3yE5onm4KNjkd5AL8QsBcmlgcq8Ctn/zciPMO/JvoywBLPLMTx3Z0CjK6YoVQ/PXdRi948UY4JctvlhcDHwOPMtGgl4FdPWTPEVLpTwqUnktBpaIxQphMb8X7GLeirPNsVkuVhJj/O9HwGPzmh1WNnko+Y8dWrxfNluE+Q0Iy2QlKynWDxfmnucZIcgvw1F/5RTjv//97025NnToUOO+oqxYjOxhYZm18fop/0a/EeNRmXXgSWZjfihK1IVj8qPEpftTjMYXKfeKXxZtuFLBY5Zk14suB+eSeZOv2uAyV7giDpi3g8X0hsJzLQtYZoeShZt+txXWPHd3SaMnGiRWTJvk72KVRFlSmIdWaWF+1jnn46w//RE16TI8vfvB6J0NEG97LfCzOWcoX82zIhMbnjwAko2i48zL+LIiimaWI+ZbMPBZ4DEoMvhYGIHM4xQ3m+UF7bdASn3R5psCLTEX/m5bYttz/oi33/sYLz3/Ak489STUVFbME+aMrw/FwulUwryQg/98UZgPpTBnXpDSN8rznCzL1PO4kdXGnEJmWPAbrcJtXLdMkAPyASkV5p4I85QlwjwnwvwKFearApJnmI8CEebsdI05iNZiW97ozV/XY/ROIsy9Hy/Mi/uLMJHC15P/mGcTInAoztmnNA0azNsUOxQvRozLSn55zEkkZkV+tWGcYhn64+DxKMyNaGJel/MYYf7pDYBUPo1wsX64gKYLY2mDT7oy0q+cPuXbbLONaeSp/uQrnuK7RPSHEea3oO9TE1BFYR6JisWV0syTkl8Kknfp/kI5z7zLtjjMPHJ0mfL9TnUheVXic5b5mnmaax3RDcy/VluchRGl6EdjMrkI85NFmJ+3W9szLsKcSZYUqQb5YTAPLS9h3rF+Cbm4snwO5dksyjMSZFohy5Um5FGZy6Os4CGVt+cLyXnBkf1tlOVKtzvFKddFQZbTsj7dtj1ZYJD5tsD15fLAVmY9Oaece5GB6WqbZxqjtLaFCgnxgmR6efbisRjyXuG7H1Cek+Ljqyg/DBbWxc+PUk2Vl35Bwrwp10ngoBKK0hFhznTpUiAFIyuR5uunKATjPGPcGWlNtKVCIGJclnMO87e8sCTjO6JuaFjhPouzbK5s2PMKK6ue52Hq1Kk44IADcN1112GXXXYxlnIKdqVz4klFzUNCsrArFUfbCHMO4pNzJcQ8qXB6ItxlHctiydcUvuwAwJYMz8qmkeeLEeXKT5OOVSpIARY4KYRuEn4sAV+mgZuSqazjehNkPVuux1yEEjhl8Dml5cGJmdbzti2BU8ctBtk2L8hyEHOQT0gNOe7IceTpcTmQgwO3LTjyIgjd+LzzLyhwW5TegMGRdMtyaYCdQJKWnmxu3oAR/LS5zGrByk8SChS+CKJynbrGWMkFFvrG+ihBUToq/NTPPEuhbboYlUzsz6tkmm+kxgJJazkt6778l5dMT5lD9xVWTIt9q3dcKMwbGxtNuU9L+b777ovf/OY3pmcWCnZuVzofLG9ZWQzhIOnFEPcSkkfjUubGkfAcCRThbV/1RYyzssl2DMagTonObSaHMyjK/Kx0Ye4HxYwZWT44shz9tlgY81NRzC+OMMiGZ5zSZ8v183C8PMJ8RmqfBXk0CrK+gJgETh0JQF5K/mKwFhRkHyn+Jb4n5/FEPEvdV44dkxB6OQReVo4t5zLpWXDgNpefMJi2thBrF7hOHlk4calZi/gvyDEdWknkcuc9kvp8Ku3gp7FFBVbtCmHxk76p5slLnta3okWxKM45uhs/o0cs6DgMirIyKA5WRbcoKSclm9KC3CpluqxAnMJHyvkGN2fcBQIp0226hUhuL0jxmZE5ZvsYresdGPawwt7GKMrXXHNNM+w+n9NkMmnEuvZX3nmYr8yUsrc8zKDM9SQv5tAao4tVTIR3HHmRH6FDa7pog2wBaZnmMqJVEjHJ01I4t5XN8s+U3e1L4NLzFM/VPoayqtMhSrX5/VI9WWaLoGLgPEW0CZYIankg2LiCNU43lpCMbUG0tHGsZR/opgcBWcdPRqyTMhQvk+4jJUG2G3MNg+zDfT15UnJS+NMSH8bZZy2PxPMvKjBNMp0X2tLK9WZa7O+ZGIkk18qrpW8Z0UdOWRooyJF0ENA9lZmJ+dZjfpN5V3KdKHPT37grebmtgFf/b6UjMa/skxnOZwo5lKVTSEo+DfwcrDIHrSJ+vvVrMTvWiqyTR4UU24kggC2BXzXzeb4nOi60iNOFhdM777yzbW3xnRcFpXOSk/KWI4giKJg+wqUARi2aMausFZMKU5GzG0VHGHGCimQc2eZmxKQyFuV7KZXb2jQoyvxQsXYoIq3MRhLMtPxUycFYGOhrSOIirGNuHAURG6avUduVAk6mEvgpdN7Q0W3CnKH0z6yTp4PWRT4kfHRohfFtC44Icg5BDV+2yPGMf1hJGuYPbdtl3+9C6bZoXs7Ttp3wvG2zxYc0Sq6iLCGm0RA/h+fz5iuTJbVTh3lPpgUvLzrdM/NeW68QKsyVjgbLQWOgkGxJ/3GWkaHk22whg1lOK76qzqD/hYdi8/suwFr/OgGFgzfER7G5yNp5lFkOvKyHWDJRPFgHhV8BBg4ciJdfftlYztWnfNWAjTv9RBly2QDlbgqNVivGd8+j/IStseF/f4stHjwX5WfvielrpjAB9fDcEJXMq9QWArWNMa4oygLocKWESGPJsTQDitgOnbbAZs/FEMp6L57A7EIW9RK1LgaZhmiSK2lsW54bt1DnWqiXXerawlwnmBdqJXDfBgn1Er82XgytqRia6Z4STyLBsXmpqM0tkogLDHyTFNO18FAU6HwIzeEEI6ok8J3EoCg/FFrGKcjzoYfWmOTphIeZsZyZtiQ45LLEcW0jDKJGZhTpitJRMP63JXBUwjAQYZ4S2bPFIOz8zD9QffDGqCvLIFy9K9a45JcYdv0f8LnbaNoFuY6FFqmcdmSifsuNS0LbsrJqUPDoamtJRbGAGQNj2PTm36H/7/dAJm2jTvJwr4N2wrD//gnBVoMwy25FS0szYmw7wXwuWoANmE07obbjKUpEhxPmLLYi0UrxYdxAZAVHZWNi6xJxjOvTDf2OOAR9fnkgeh2yL/oddhB6Hy5Bpn0k9Dr8QPSUbT1KQs+jDpov9DriAPQ8bF90P3Qf9Dx0P/Q5aH/0PeQA9Dv4AMwa2BczAzbYKLoBLBpuX1SYn+hl9P0tsq7tXJxGQVl5lP4OpaF0W0T75UXB/C17mD/238zFYpA/i37jfAqKvVUUc31bMyGJ61s+Mo6PWSkPH6VqMXFwApld10Ty8M3R9Vc7ouvwHZA8ZBM0bdUPE/oCY+L1mBHLIhfz4YiQMb7nEphW87WJLwiZ53NWHDyoOM84Jp6cV1l1ifLsvCl/8RKl0P7353L7de3hdpN3JX9JTppvp++2FQPLQ7NZMlvoBYhL+T4jkcXPzj8WQaGAZ3Y9Hd/s81e8tOtp+OzK+1GxxTrYYPi+mGnnkBfBmypLF589+WPejZ6nKP8ymBUrichCTn9yVpC1a8RVA8m6SDtAIgaMwxys+6fDkOjVBW+d+k+8v9df8NWel+OZgy5BSzaLDS75NWY5LUh2qUReKp4U5cyXbMDMLgvzUt4XJHCaF7Wek8CpJ8uBBMnVRguFbSZ2ls98dpit2YXoSs7iynJAfuO2EnkFEJ3IFJaCafgghes5512IM884HV3Ly/HiLvtjjWa2zpfaJP21JTPSPcRhX7qJKjRvvQmG/um3sLMekGmUg7DaWSYln+xgLoVVUE4Xc1ncLJke9Gd3ElL9lQIzLsfw5WGoSmHCeVcg8/YHSMqxosK11PKxpLS6Nuyf74Ch55+Ctz/9DM88/iT+dOZpqChP84ASg09YgEwmZ0Z8a89P3f2AFqZXX30VO+64o2nIuCJfbNFvzTRwZD7+PlzHobOrq6vNgCFsxEW4nsH3C4vsx5xQHFM+MI+zgGVJzTYTxbxbFOaObMyKIE9L3rbyHjJuDjP8WuSrYxi03aao3nNLxLfsC5eNxzh8mzwjJk/TKM6POVwoSOGeySP3wbeYcd/zmPTyJ+gdlqFXWVfk5fnx5F6yUV1a4jEdLfFiY2V2HcqvPCz083K7zailJp9KMOmT65Edfmw/5j/0WVJ+PO1/Hz5TnueZ54o9hZgySOKwmSW/T5ouOVn2ylLzmHp82daP+aLgr1p0O4wqgkaem6Mx7xhRwSDry/LF3i34LCQklm8XULtTf6xz/W/xyulXYs1nGxFvLCBfmcR0bwY2ffI8WDV98MauZ2PNfBWCfAaW5Hcej+4BbMHjyAIFP7taJL4p583sQuH+y6Mfc6Vjwrz3Q/sxb19eOZYr2SKHLzcqx/b3no+Zd76EKZc+gNX8avowYXrCx5zNumGHW07HF8deDnxYi2o/IVnLQtJ20dhcj4bBZWjIZ83xeHTmQ1bgsq2tIkekfM7mUSHlsD+zCYO7r4l8c0b0iI8c82PoIuFxtFIW+vLOmD9538dkcu3HfFnB/LBKDzBUKsxf3rlNmMs1OkEBbiyObOhJJgowRUTG5v+5Dq1TJuD1S/+JvvISSUheCjIFI955BgqcoqWGYqLk8WKmjJDZUMQ2fXETcgBPhIgv28OUgxYfGHrKsRi47lC8+Zsz0SvTdpwfIDhKWRJhztow3wRem6sBKwI/dUFeCgfl2HrrrefdkxV1b6LPzplMBn/+85/RvXt3nHTSSabg5LaoV4XSR8ijf/diBhjiby7S18wzmFwg+Y8BUlhSuASOC08K5XQijoZCI5p6JdD9iB3Q46CtEKupQjitFTPeG4VJ73yO3FeTYDdkYLqck+cgI+o83qUSibX7ofeW66Lv9psDNQ5y0+ox/e430HzPa+jdkkBeVEhGxHiCX6PkUtnOIk4NI4nKuhyZjuKmmD7zv0nfDxfm0f1pv20FFj1KG+1/g2jwG+bn6PdwRKT/GGHeHh6VZ2W+Yn4qVkxFkEte5TLzO/OaFMhocgsID1gfa150OB488A/YcppUIluypkyPpSRf/2N/9N5ma3yw87noMVuOyXp62zGZh1maykXOa89jTlRcu0iYtVWY/3RgXv8xwpxzzZ6P6qSUq/sORv+LjsErJ/4Na77fhHSYRHOuVZ4jC9/2trDlC5cCD7yNj/76ANYIu8LPesg4AaalMxj22P/B7hGXzFc8bvFhEUXgS36j0JOMHbR4eOP3/8AacuxUJkQ+KcK+wJ6MXLTE2aaueC2LzeUmk6swX1YwP/w0Bhhqw1hUZMpsZkkG9fOeZFIbTUEednkcUyZOwkArjn4t8jJpapEC35d4HhwRCk5BLsoEyWYSrCiI5p0XZLuV56ckF24hBicXoEoK5f5NOQyoz6H562+Bbv2Qk4xcai1fXvBHjR56nofzfGGWBr44f6qB94S9GvA+8N4sKM7yCjw3reKzZs3ChRdeiI022gg33nij2UaiNP0QolFli8KXAr0oCGilBscCl+KyIHkvkXAwIVmP5kPXxXqPXYS+v94dcz8dh3eGX453dj8Dcy54GH1GjMeaY3ysVptCz4YEes1xMXhuGfqMzaP86XGYceEDeG7XU/DWiVcjP3oaegzsX/TLdR1+qDF97HPAi2KDaRE/PodJt5GU5yTuh6ZbUAqqpSXK27xf0XwUlJVP//79cf3115uvP0uTlxcGRS4DS/KiCxZHSWSXclLRlcAh9ykGCg4rooEIogD5lIiMlIum2XMl8zlY7xc7YWprA1JlKViVKYxzcui9+SbAJFnX7CEh4sSW/Cq5VPKolOMBgyvBNl+cXMnHzMuLtSQqylJQlkojLpXY2lrJr5Kfuw3qbyqQED0hBZ4U5T6yXUR0izb5+sNRqI6lkGlpRUGeBTvuStlrYcq/R2DM3x/EV397EKNlOkamYy95EOOueAxfX/EQRl12P/y6Zmx10fH4IlaH+pg8K/EEmuMx1CdFEyXkWCJoil81lVWFDmkxX621aPGI++y7ViJKTaQQ5jE604qdHrkdXz/xHOIPvQBbhHh2j82RrS4TTfGdqCn6zi46o7J+SaRIh2M58EXsJ98bhVxOznnEPhh2zK/w4l77YU05FkUhP/VGQu2HsKSuLBRFkXipq6szQzaT5Vkh6Ax4nofJkydj0KBB5l4wrKgsy9+8paXF9KZw3333YcSIEaaixvXlklevueYaHH744fPSxbBkFnMOqCKVSAoTWwSL5N0wlHUSirZ0qYw6ASaUNWHdi49B1902RO3nk/DFBbch9tUs9I1XImz15bAc1AIi4BNokfOyQkt/ceOWIHmKNXgrl0dC8mBjmEFDQvKvLZXRJh81dplo84SkSxS4xPUk7ezRqGjNLAolJlqeRBHrfK6YTyX8QIs583RUiWlvUViBRY+yEKKvPszjV199tbH+VHfp8qMt5nRfMVMzX8wTXMPjEX4ldAM5i+Ql5jkKdVMxlTJ/SkUW60i+L991E3x+6X2Y+/w7aKlKY6NTD0evn6+LT064GlVvzkTci5kKbVwEOU/B54bvjXCe1bNITCoI7VZ9D+6vFvOfDix7fqzFnG3QEplmfNo3j63vOAeFnIUPTr4G3efKVtErtYkCBv3fL9Fnl43w2janYM2GLnBFVBdE1ISej3I7jjq/FaE8fybvCyx2kw7zdYhGP49G5NH9wE2w1gUH4r1z/4ueT38r6YyhKc73hS/5umiJDKNOMhaFyeRqMV9WMD/8NFxZysrx6k77Y0CWIkEKVCmkXb4YJL4tL4cvW5qx7eN3YtzjzyD28LNokWMMe+k+5LNZBA3NxRNIpjYzFOeLgk8AD+zHEKssh9PajPcP+ZVJm3fEHtjiyOPw2v6Ho2+emV4KdhEtDF67ni0iizpZkGhcUleWqGEHjz927FgzQlx72ouenwL0eW1tbTXXTose7/eKug88F33LSVNTk6kwUfTyAezXrx8ee+wxrLPOOmZ7RKGQW6wwZxZxWRmTQCui5DBZdpGWgrpB8qFfncCEqhbs+p/zEaxeja+vvA/ND3+Ivg1xERkOsm7R+piSh8Rz5L6I8DX96PLLkqSZAw/ZZjArOTvvV9uZjSXR5LXis8cZuonF5JrK6BOQk7UcEVdeTkbgS7B9Vh7oHiZHYR5lhVcuhuME/FBhftlll+GZZ54xvyMrE+2fJWXFEJVR/A1eeeUVk8+5jvmaXcXe98D92O/A/U2ZSwduVs5+qDA3o6eYkq2YH2zJQ/zdXYe+7AWpDBRlPwcP4ii1oomYRVFRkDwZ8/FFrwK2vOMCpFavhM2+FEUxB615TL3zWUy97nGsEfQQEeXCEoGT9EPJs3JKk0VFXsg1xNyYPA45WBwVWrZzVOdFwaytwvynA/P7jxXmeRHGNZI3pzgtyO06GBte/hsE+RAfP/AE3KyH9fbYBc7QGsy460XM/NP96JXoCz/BslDeZ0bXJOQZo34o+odTCfA9weeRfaRb8oz4kh4aaLa673zYUmF+as8/IJ1z0FyVlApAFgMKIvTlnRNPlEsWLT7HkQ753nvSZHIV5ssK3uOfjDB/TYR5/0xRmLPxJ4UFUxiTl/jo5mZsN+JOjHniGbgPPSU6wsYmLz+E92+8FdNlXTKbgyMCJRCxYc8rREszZzQfgsNBs3Gc7yQw+LhDsfpu2+Cjo880I3UFR+6GjY4+Dq/sczD65777vMsbz5dLKdGPUXobSx+IHyrMaZ2nD/OCWFGCtCPB+8o+gLfZZhsjirnM6Yqg9Lc+/vjjcccdd2DjjTfGww8/jAEDBpgKAy3npSyJMJccBY5iyyXmc0fESlwK9NZMK9CjHF8lGrDDf8+CO6AbXjnlSvT+uBapTFIEsiuVVaBc8m3c94yw9StFDSddBC05JERE0XJuibg2oynKveJIiRnJg8xnKRpX5LQU9aFUTOlG43ghmiXNTjqBymQS2VwOoQj0ymQZWuXlkJGXD8cNMHmVefQHCnP+XtGXIIrA8ePHG0HICk9ppVZZsfD3YDnD4eGZz1mOde3aFTfecCN+sfdecCQP8YsOB12Tut9SCPOiKKflj9mGvaXws78nv3tMRLJFBSwHzkjWSkqe5iJzA3uqcF0LTXYOY5165NetwW63/x8mvfUFJv31AZRNbMDqFT3QVJ9DWUUV8nmKHCnHZWc+UWz4ybYWYUGeMsmLvpyDlQK5YJOshcE0qjD/6cD8/2OFeUA1LfogFktgChqR2HEtrHfqQcDgHm0ZSia2h4eP+z/s8GkS+RlSAKelchq2SD6zpTKaEl3jSJy8KZdN+zgem42haVyReal6mn77p66dxNaPXYTc+FmIyXPKZyccOweT73secx/+CL0LKfMeISrMVwy8xz8ZYf76jvtjgAhzViT5mcZjJpX8RGH+lQjzHZ68C2MefwGJBx9DXkrjjV59BBNv/B/myHIXKfC9wEPClelijHGm/1A/RK3MDxp+GKr33havH/9HpFtDJPfdGese/Uu8fsjR6MceK0RYMJMzRNa/iEhcLOw2/hBXlkiUG8tSO/G5An+mDoUnP+Q777yDLbbYwmT87xU2yxHec/bAwk/9FOODBw/G+uuvb3zOmyUvctp+SO0lspizEGxbNvrEs5CWvJtNBPjYnoUtrzoNVdutjZF/vAo9352Nro2uCGQpbCWvcSA5I65tH7YIGPakERNBXubGTcPPnJQN+cCHl8sjKQV1KHmLzxj7PHflGJ6cmB0Q2bIuLgJmcliPgSccgNj6vTHx1bcx88Mv4Y+fgwFONcpjFYjlJIeaLM98KmEphHk0LbWeR2JQWTnw9+D9r6mpMRWlf//739hll12MpZlfW4w7CL9YugmJLHntBwhz/uK+cSssiguzRsrlOEdUluyRkQooz+26SeSkIE5KPjJfZSRrBKxUej4SUil0EjY+y83ADm9fh69e+hj5S0agj5dCMwpIJSsQNkplVLRyVsQPy09azPllpyDHc6USm7bi8FqkAijPSWh8IhcO06XC/KcD8/+Pd2WRfCvvd7r6Jf1AKpl5TLbq4PSskgqhg1muj93+c5aUdSE+OuASrNFcLTt5cC26HUqlUURxWrR6ngJf4BnNnMyYARPlgeD3zmwixBcDC9j5yUtgzWzAnDe+QFyekZoNBwND+uKbvz6EzP3vo3tB3gFy3OK1fT/9xUyuwnxZwfv8k2n8yYKRmZPPR0wK6ug54ZTeJ0V4A7hBVjh8aXhIy00xXc4VJMNnOQy+ZO5FBH7W54ihtAw1f/QVxt4/AlWZHMokswajx+Hb2+9GuWR+Cu8os0cZvjR4tFqKyCjdtjSw8VV7kVdK6Tl/SoEVlKiiwumKvBeksrLSnPvQQw/FJptsYvID01FRUbHUDyL9b02+ZmDRS+uJCOgZTgZrHrkTqrYfjNFX3YPEyPHo1hJDcz7LUfaRkrzmSMHOBnPsxpBWlXQiiULMwlinBaMSLZgoJf2cMCPCJWE0tBQXcj7Jv7J/3hGRLid25SFzC/z642BK0kOXQzZC2W6DscHlw/HzEVdijxf+gerzDgB2XhutHBrdpHPpiO4l7xsDK568nxSDnNew4gPLGQbm38svv9w0bObLhb8L1/P3YgWK29sbIpYUSzIf8zjFLttThCI+6uI5zO5to3mLPpi1XR9M2aYGczbvirrNumH61t0wZ+vumL5pNWZuJdMtumPyZt0RbDcYhXSIeNc46jbuhW+HdUHDlj0xeb0EZmxZhcmblmPWljxOF9Ru1hWzt+iKWXLMxvVrMNltgJWUREiZrijLEr4dmK2SUgG1pQLrSeXVzVsYavdF36ku+k9zMGSaiy+uewLlPbshttUgzJUqJcvAAOzJi63baJiUMt24s0h5LIEtj1gJNm6Hdgx5iTUtUcDu15+L2MwMXj3uKoy9+Al8I+G5Iy7CrLc/w1qnHwB/YOU8DbK0z6zScehYwlxyO/MoLR/M+OwpgmKbnyZZrTOJNdU739Rs+fnSiHNbBLJkRlrw4m5S9nEkk0rURYS8PFX844Mydc4sTP7wM+R7dUNdr2rM8Frx2QfvoqF/T8wY1AczV+/bForz01frbaaz1uiPxjVWw2xJBVPnynE9NmgqpoqPHRO4WPgw8YUZWRSXZc2rsxPdG35N4PyKhvkjEjKRsGRghWxp4BWYCqTM0RrC/G7ZDnIimmf1i2P1Uw5C3dujUfvA2xgYVqO1OYOqqhrTAI/5iT6HzFlJTyR3Rl4I+VbMGhzHWn//JbZ/9gpsfvc5qDx4GKaHLXIeV4Ithb+chxYYOS+9zB0+Tz4tJMBqm68Lp38NCiL4506Zguf/cSNqZ8xBz902xYDDd5XnjF7pRdjos21G/jMPnxyf64rziyOq3PI+rozfUvmO6LegK0vUIwsrS9GLnSKdvxPDwinmRVLwQxQsxzQi5gieUhpL3pCyTMrDUMpaL2ZjhpvDOteehnXuOAMb3Xgqht18Gja+8TQMufmP2OTG07HRv07DFjf+EZvecBo2vPVPsu0M7HzDeYjXVGGNXTbHDv/+Izb+j2z756nY7D9/xEb/PV3inYkNZZ/1bz4d698kx7zhD9jyltPws//+Dl2HDUKL7ZmBWvjOMM+PpI1/THc0NaF4GcsF3k/e61Ki+1+6fkHrIha0jixsvfLjsCTvGtkh8yzjfFvysJHNrukxy7VcCVKO5fIioC34cSlny5JoyovQjqXhhHEpo134L3yO+lHjsOU1p2J2jQ829vfpBeDKsaWy2pQq7mvLPA0ujvmq5Bgjim9J+U43l7W6AgOq8dHNj6D/1BCrZcsxyO+CdZqr8dpf/4swHiC9/mrISBnO55fPbOTaxSL7xxhWlJVDx3JlKS/HKzvth4GZNpErhapjPokWrYNjG5ux3ZP0MX8K9sNPGFeWTUc+hInX34a6h59CJUUIdboRL4smcCyp8fqY7bjY9NarYHfvLQJJxFYg+5oGpDJPAVL8ziOUHJO3zAgdLjiYfMX1aHz+FZTLeQuxYq2X3RfJKw6t8oJzlrAfc2XBvPbaa9h2223NS4gFT0cWdUviylL8vR3EJf+1SFZjl28NaR9r/OtYJDYehNd3vwgDZkglsy3v8XrbP6ZcKvgFNFX5WOve0+H26Yq5r32G1Bp9UbFmL3xxwb2IPf4lyj26ghX9zemfnpcUMavxDtL/NnHmTuh2xLZ4ecTT2HnPPfHQwX9EjwnAzFhBKgTlWPNbF6kYx/cv9q/O66AfL/N/wZejxS2M6xNihzf/tkBXFqWTIb8v81bxMzfn2FuUZyp5zV/XY3SbKwu3FGNyB7qPSH5yJTOHOZSLqMiKcHF8BzEaKqRclCId0ySvbvWs5JNEHiNOuwYp2TUecBA5V8SzVAQkP9P/PIgljZElls1I/grNp35WZoujHPJ9IELGlMHydFkeYjIbyHsiL4IklPiF6jh+fpUIoZPuQcuLXyMpYsmVa6C7DHseMl+MWDpLVjWVTXMJHJiIwp3XJf9JepeFKwtd3tLptHkuWAFipZ7PchRYASLcHlk6o2000HC6KGMN94u+2EbHUhYP79eiXFkozD3JK8ybrgjevCP5TH5/X+LnXEuyhI/GKqBVNEmXZAXsrBSurfL7JhPGoCiPALLycxTyGYxf18bPH74E39z9Msbd9DydRyS/FUyXtM2xuNk3zXcEe3mZ7aOXUy7PQAg5EvKSjjnb9McG/zkJTx/0f1h3VKuUx0nkCwFq0lV4OPwGv3zxasx85H1krn8V5QWTneW5kRxe8I3XAfM5A59TPj7qyrJsYB76SfVjviLIex5yiRjy3cpg9+uBOy+8EI+ecAqeOe5EPHHsbzDi+BPw1LG/xdPHntAWOF8Mzww/SeL9Fvf+8jhk62eh5mdrIuxSJg+yyPk8+xQt3lg+CwyK8h0slCkoWPg7SHi0mACzusv8OoPw8b8eQNdaWhoXk3PkpRJ0TaDs5xsgMagvXjztOmTOeQojdzkf9WOmYN3hu2NqyBYUpl5gYKPPWDyGuIhqWurH5eoR23wtNI/+Fp/9+0lRSQkcdMUFpsKwR6E31qlNIpR5nktRSjHuUVLKMR+b7jPpZpXJoiyVQEvch5ew0FJmo77CRTYlIkHWN9NyXS4ZLx9DzdfN6DfKQ59RAfqO8mW+gD5fehg4Koe1Xp6LDd7KYs1P8hj4XgHrvpHHz17PYZ23Mhj8bjOGvNMooR5DJaz9liy/kcN6b2QlTiPWeK8BXSdwbAsL9a11KBNlwgG0WCKHzPdSIlOEU4TYAc2WIrYpuGloWQ5QlPNrXyScPblPFNpsOB59jYgEefSFgi94BgpuCm/uxykDj8NAuBxNo3ll2cAvjDQOsrxmjz9peblbIqDzcRscX6LObcVaZ+yPDS45GfVSGc2JCI6ny4woZyUusIuGuZpEFfwZTSLas1jrt7th99f/gZ3fuBq7vHk9tnnreuw+8h/4+bv/xDZvX4utX7kSa54qIq8LG/nT6k1NkUZ2er2IdwvVG66OdFnatJ/zEnE0y3kxsBpOTTkav5kMV9JAowk7wJAEFdvRyTUs7lWidDyWT2nUCaiQmmKiXmq4ecm5ktGrJPOvPb0VP5vegp9Na8Y6U5uwtjxQQ2c2zxcGT5f1M1tkvgWrz2xCMhlHRh7ClmwrXClM07Fi39J8IPhc60OhtCfSubTwUSDM9SUv7b8V/KSPb599D11z/OJSjLMweAxfCl9rQDc5kI+mMRMkP+ewSa81kJ3TLBm6Eol03MRjFuThaA0sSKnORs/sUjGTdlDRtRqNn0zEelNdjKc4X7snsqvJy0R2CPOyk0MrpaJ8n6iMo0XcFrFiV8YxtTKPsiO3QMXwLVF9/JYo+/UWSP1mS5T/eiv0PnobEeZSJlaHWG2fzdD9yK1QffTWqP7lNqg5cltUHrMt0gdvikappGblr6GQBbtpZruhjJyJ7TAK1LA+Xf4s5EWEZKVy2yLlbkbESCi1zXhehCxHa26RSqgTQ2shh6y85VpFexfkoeKXIwonNp72nIKk3ZxALqQojpc1FOKRKx5HEB49erSZsu1KZBEnFOeMyxBZwKPtbODNddzG49DyXhqfopyCPhLtUVhetD/P8jzXyqLYPSzlEaufgCtCmQMOsvFmEGTxbR9ZeeDGaGieYboYTcbYra8IZcG88/mFRfatd/LIDKiRfF+Jzx54ER/c+gA+ufkBfHTzfXj/1gfx4b8fxqe3PIR3br0fUyd+g/RBw/BOZjwsyashbSJBiIoZGeCDSdjyzF9i8rByjHPmYq7TiE8q5+Lgi39vRu2q/fgb81WJX0FZthMa/6M2e9F7QOkc/GSFeU4eMC9loyXliPiQeXkKQq6z8pKZ2Wqan+4Z5EGcL0hhzp6nZWpRgcuDY+c8pOyY6XrOkgIzuql8IIoPqVlUFJMViqO0BeaTaE4K0sZ0gAH77ojsFzPQc648lN7iMwwt6t3tCtS/9am8NSxs9Pt98P6GBYxaK4vqwb0xe+THqGhhg+hi/OJ5+cAXP+HnvQJSIlwctwJNn83Amm4PfPPkW0wWcmv3wOyYJy/7GCptNh4tHkNRiMm9koeYpygGinksEJFcQHrDgag5c390PWFndDt2Z/Q+alf0OH4XdD1uR/zsV/sADRmpGAboM3wv1PxqW3T9zXboMlyE+bFby3QLVP/x5/A37I4mNpST47nIi4D2kIkFopP4JclD3JMyluWuX7Qsuj7bX9BJy0cib6N8QivePeU/8D+ajlQuIfFicAMHqYKNMo74bLwU5Sok0IZOX3iKqOVBZO2myP7ggw+w3XbboVevXmYdx2jo06ePGQuBDct33XVXHHjggTjyyCNxzDHH4MQTT8Sf//xn3HTTTbj33nvx/PPPY9SoUZg6daoZU4EC3fgTt4n2xUEBTUG/qLAqiuylgY0vfZtfVmC+atKI4pSnkZI1s9CITS/+NYKsj/fvfgJd6VMueTKdiLN0lT0kyG1kuTk13YgdLjkByISYfvEDiN/wFlLXv4Pqa95D5bXvyPI7yN/0Opzr38SkKx9FvH81dv7b7zHLziDwcki4IaqaPIy66E6gPsCm//4TBv33JPS48pfY6dm/Ir3p6vjk7OtFvLOZqFQEWQmFPA/yXqEol8dD8nqxF7rvOs9QOjodX5iz5irMKzDaln8s9MaLyQvCzUm1NHSRkhzN7uN4Hpd/HHhIHk76aEXBlaj0++W8VQhkypwPJG05mhyLD4AsFsV4G0bUaFmntMGsQKsGrWhxyTfma3rvCqBrEl/e9zT6euWyTiqLJfl8QS9L5rV8Swatn03G5y+/iIEHbo29H/grdrv/L0jUJDHq3mfQJUibiqJUF43vrsuKo+wr+gTJeBK9wyTeP+B8eC9/hnjBQaJWXu4twKZ7bo+MnzU+6Xw5sXF19Lm8GIppUH6asHxj/mMgrCRWOAnTHzmbfdpxG7ft9we8tfOf8NGO5+HNHc/Bazudjfe2ORcfbXchPtjqHLy767l4Z4dzJM55eGens/DWbmfh3uEXMcPBj7uoTJSji5VCrCDlrpS5bl4EimTcVq8FDbEc5sbzqJONdSJDGp1WNDgZ1Mr62ZYImpwH962vYNVmUG97aEh6ZtvcRAGzrFbMkeW5InpSSMDKUZon5FqWz6uQzwuhMN9+++1RX1+PxsZGEyZOnIh3330X99xzjxl86+STT8aee+6JDTbYAKuvvjqqq6sxffp0vP3227jzzjtx0UUX4ZBDDsGmm25qBD2t7hxHgYOdrb322qZLWe5/xBFH4He/+x0uuOACs88VV1yBW2+9FY8++ihGjhyJL774woh7poUuNRTkhOWMJwKfFnpa5rmeoj+achsD40UiPppnKN1Oov24HB2nNET7R8conY+WS9PDwONEx4ziLA+MiJUgKTFD6LdKOZ2Q8+VpAd9uDVRvMQSTbxiBntMlbotkUn6NSRRH0WWSpP4oOdNH5Y7roGaNfvj4wuvRp7UMXbxKVAQVSAdlSIUpVPkJrFbogkH5aqTenIxv73oeNXtthtn9kiI25Dfx5JrleaiaG+Kdff6ECf99BtWJCnTt0wvNTVJYy3Mx9+vJqLISiIWW5GQbCY4cKomgKDfPKq9H/mt7XJVOQMdv/EkJLUlkbyfjJCNuN4L9mI/40Y0/JdsikONO7VqN7e/7D54+8g9Yq65WTpqRM8ZNG9BiTo6O9d0xWdiyUKiTNG328K1oGPk2vrnldnThoBayE32H2QSUfxlaTHbTxp8/hlWp8SeXpc4nFTwXsayNOhEUzfuujg0uPh4vH/x/WG+0CIWYCHa/aAFZOPJicgKMjTVg2OMXIixzMefBN9FkZ7D+SYfjrROuxWpv1iEmFU95xcr5JBl+aPo55yd9424lR2FjJ1deIo4Vw9R0DhvdfQGwRhrvbn4q1pD0tyAHV2oPJj/LDrwOWt75gVcbf66CmN+WL/RFNf5MS24gxd+aPuYJKTXzktOaduyHwbechCd2/h3WmVmNci8meYZfGqUMZ0VUdolRePHoXJCCXrSO5Hngk7Xy2Ovui/HpBbei8tkJiOdkHxHMplFazIKfa0bLoRsCfcqQlePFYiJe8lIbkDxdbAxaTDutg5zhlN2KhhRwbQ+g6dtcdJQ1WhTVM1+ie6IaGfY8FBYkXSL6zCXJf3LKZdH4s/3rlct8d5TCZ4ZiM2oYGsF43FbqphKVf9xGl5ja2lrMnTvXjEzMbi8Z5syZY6azZ882wpuCltOWlpZ5U8aPttEPnv3Zc4CpHj16mGm3bt3mzbOCUFZWZkQnu4nl+A2ccr9oGn0ZiKCgZrpJdM2cRg1US+9BdH2k9Hp5DKaPIyxvttlmGDRoUHHcBrlPrOhwO+dLz7ukFO+l3NOFNP60feZ+itvAfNXkX3lLBp93b8EmD12AmJ3ACzueja3KBiKby5gv8Ek3ZtqYxRMJtAZ5TOkSYJuHzjGuhc/94kwMq1oLrlQEU1Le8ut7XgreFMtkeXbq4gFSkscm9gO2e/oyZD/5Fp8Mv0bK4HI08/mTPGoHOdElPia7UqbLuuaeLvZ5+RrMffpDjLvgLgxqTotysZGVbSFH1pVrpDjns8DRdVmT5rtHG38uG3h/tfHnMkbyqFy81C7ZCk5yb/RJlp81aUnnp1I+7hTNxSDzfJgZzAGK67kQ1UyLG9owx5p/laIwR3AYZlY0LRG2BT+LiqEDREHkkZ1SLy+uJDzj3L1oKPCbUyFWP+EglHfriQ/Pvg3N/34H317zHLyxczF4320wIawzQoODCbESSks98yo1ivm0yTzqxJF1JT3yAhJdjjH3P24a6CV6lsGXF0GlHzdCXFEiojY0LPPY2I1dJNKPO+86kmdkg/ybHdRjYqwWY+N1IiRqMdWea5bHJWoxKTYX37pzMCVWh+l2nSw3YEqiGbMLtSLAbcREOdvyfFAYxSWw8aYjIszr4mLds47A0N/ujQ2P/QXWO3QX/Ozo3bHe4bthncN3N2HdI3fHkKMkyPrVj9sdQyWsc8yeWPfoX2Cdo/bEwMN2weBT98LgP+yPQjcbmXwTAq9Vrmp+sbysiIR0FCg6KU75Eo8C11Fgto8fxSuKyOK+hMsM7N6yZ8+eGDp0qLGi/+IXv8Dw4cNx3nnn4brrrsN9991nhMMzzzyDV1991VjnP/vsM0yYMMG4wrDHGIpbWs+ffvpp/OUvf8EBBxxgrO8UwIzP0Y7PP/98nHTSSWb0Y27/+c9/bs43ZMgQI96ZDqaTAn6jjTbC3nvvjTPPPBN///vfjaX/ueeew/vvv49JkyZh2rRpmDlzpqlMcPA2Vg44CjArJrzG6PoIj8l7wC8KTNM111xjhDrhPtE9Wx74dHMyLofM5+xlJURjuY++x++G8v69MPqvd2O9sr5ormuCG3OQknvAUXJZ4WzOtGJ2PItev/o5wm4V+Pjvd2LLHuvAby0gsEVU0zVLhHiLqOXmONsIhLI/Le02etfF8NnVDyG5QX/4w/qiTmR7RVYqoRkR5bEUglwMQ5K9MLRQjdWnORh787PouscwhBv0Ra0IfTp0sYIgNR+jPSIDDJ9VSh2lc/CT/an4EESBn+qLLxkp8OhXLg+PGYxFarV8OOcFeUnQMsN5+gnzIyhfQoRCx6HxRoK5qXwQzDHNZkUxMDvEaCGUfMTWClnXR5kU3mGLh7A+h4KsZ9egi4OF7PhsHfruswlmfDgKyXfHo2dLAms7vVE36ht023kDuOv1QtYvyKuCVkcgJwqb+dGIclnO09KYC5EOHSTjDqqk4P/2gzFgY+hYdRwtSVosaWpRlO+gaPH5FUjm6e4Up2FD8gwNHcaXTzj2pZuw0zvXYKsPrsAmH1+NYR/+E1u/eyV2ePNKbPH21dj8g6uwxQeXYdN3L8fm712Gzd++FEc9/U/zcHC02ngYg+ukpHh1EMjxLSdhGnqizMU397+ER7c/Ga9s/0e8uv1ZeH2HP+KVnU7Hqzuejte2+xPe2OZsvCnh1e3OxmtbnYE3tzwDI7c+A69sezoe2+NUTH3mIym3bTR6eSRTSXkGpCLQVo4vbyg6F2Qxbw/jUIRGojyC4pzLkWilOKUwphWbgfORcC/dN9qHgcegEI6EPvehNZqC+9hjjzWi+vrrr8cTTzyBt956yzRYpZifPHmycb+hkKeLDQU2rfIU2Zz/6KOPzIBV++67rznm559/jquvvhqHHXYYttlmGzNy8sCBA9G/f38MGDDABLrk0Oe+e/fuxmpPoT9s2DDja8903HLLLebYrECcddZZZv8XXnjBpDu6xuVBIBmCxjuWlWnJ267kyW8qs1hj/+0w/bVRCN6ZBCcXoKK6AvlMxuShMC8VyXgKFZWVQP9yrHHo1pj13KcIvpxhBh+qqawyhj1PsjG77CwTkR2wC8ZkDOVS9sfYDqI+xLc3jYA/cRa2uOBoTKvyEC9LwUnGkcxKguQnC/1WuR9N6BVLYtQVdyCcMgObnHwoZqWBlvj8moOzzNu8FqXzUHwyf4IwnxY/r7Y92CLCjWU8jEvG5kcdqXFKbubrZ74g24pTyvRibi9+2ucxioKJxa4pevVhUBaEayEptTZPCuTQD1GZSMFnQx9+gqRzYyAvBcmB1MSJgg06kvgpF64tUxHSeVn2yh1se+WpsHtUYcK/nkWfQpXkPYnT7OPjy+6GX9eE/sfsgllOxvgdulKw0wrpSv7NibCqkLg2/TXjLvxsznSv5efzKPMkJ0u+zbgcbCYJT9LEz/iKEmH8sWnQEDjCpy8ZteCwYaYF67MZmHbxI5h81Qv49pqnMP6fT2KshEnXPIHP//UQ7PI4LMnjY655BONl+9jrnsDEa0dIvKcx6YoRmHL+Q4i9N4NHxtxsLQquh0AKWH7R9HzJh3LamngZBmbKsXa+K1ZrSWFwawXWbqnGkNZqDG2pwMB8mcyXyXqZNldhnaAr1myWONmeGJCtQM+KbvJgUXDJsyDH5Oi5K+pFSIEciWuyMHEZCe8Ixi8V2RE8VnS8aD33i9YvDG7jObgPRXTkqsJAgc9jROmKXEeiuFxmw1W6sNDHvaqqyri8rLbaath5552NZf2SSy4x1vIPP/zQWOcprGmFp187Rf3YsWNNQ9Z33nnHWPOfffZZ08D1xhtvNP7xm2++uTnfG2+8Yaz80b2ghZ2uA3/84x/nXe/ywOI95f0TjeCHPppdH8Mu+A3sbmlMvflJ1KBSytIAmXwrUhZdX0VtS3lOV5MJLXMw+IwjYOcLkrcfxICyXmiR8ri1qRGMJgeVH55uXQ5iVOki8LMJ2toDJKTMXQu98NlNj8LpXY3+B0lFIC/7yTuBd8BOScUrU0CyvBKtBWDbLkPw0X+ehLNJf3TbewO0WlkzWjMNP7SZsx+Boj6hblE6CyuqPOpwSDFmng9+2i9WJ4viw/RtK7fFNPDkCj78bYEZ22Tutvm2GEVklhZyHsocrmSTopQSSuHNhsN0WDF9Kkteo85xYlLZ8wuIO/JSlAoj+8JlN28c7CLfVAfH9uCX2ZgZb8G4bq1I77QmJt33CsIvZiLtppC1CkinkhhU52DuS5+iz6brorZPHK3lMczKNpr+yy3R4AUngQbfg2258OTYDsW5LGdFmFt5mj4ld8s29iJHb2At0JVSbMm7FMos6FjmsXjkV0Q2jvfrW/DFC6/hy6ffwhfPvo6vnnoNo596E1889zY+enYk0FRAoakVn7zyFr565k18+ewb+PK5N/H5s29i1DNvYPzIj9A6hw0SHXSrrDENP3l8qbKaQeFEvYiQ8VDNhqEtFDIUOCzE2QsF/XBZeofmi6YRJLJzay6L8pgIybyDJFs+syIqR2RboIIIzoJLSbTiobAsFdWlIdpeulzKwta3p/QY7UPp9gXNl6YtEvKcMkRxFhaieFHgOgp6Cnn6r7PB6hprrIF1113XuL+w4Sot9vvtt5/pkeaMM84w4v6uu+4ylnTuyykFOcX+tddea8T+8oP3gVZz+mkXvzSWD+yLzKw5mDZuEoKMJ6JaKqVyK3LsUtaWSosXIpbLI0jYSA/qiblTp6Np1lxk5zaiurqG9hbJn1LJlIeGeZbPDs/B7Jt3OZAW2/GE6FpWic/feh9oyaBijd5yDuZOy4wayi/2bmDLIxCgkPeRmVGHL199B8j46Lb2ICnjJWfzawjfIXLPqfvlkOY6jC5ROgXFJ0xRlBWCKRt9KYBFOPDFYkkB2pzJwIpTIFB3SOErkdhAjiMaZuMijGU+XpnAV5XNaN6uD6z918HWV5wEX/afcs+L6G+XIRRRHY/bxo+8p1OOcQ+9bD77b/Hn4zB+8x7IbNYfY5OtCOU87NqzJemYUeVo1WEpUJCXSyydlhNLSU5xQ59P+kzaUsCblCtKEY6QWWxsWXzZUzc4eVoWPaR+1h+73nspfvHoZdjz0Sux18NXY5+Hr8IvHv47jn3kBiDhIta7Cw6593L84rHLse+jV2Gvx67Avg9ejgMe/we2u/9viA8biHQyhXjGQpwDuxhRUgzIifgRAU4hZIsA4gPFL5ueLNPX3REhn/QsI16K7YZENMVc5AIPjqRX6r6Sx+OSx+W45hIcET48SPHalMXTXoQvq0ABH1nmI0HPLiH79u1r/N/HjBljpvSppysOy0/GWS5I2UibMws/5qOkKPAptz6OVI8+GHLEnvCSNMSxIijltiSB3zhpzKOFmk0wJ9/7KrquPwT999oWge+htrnJDOBmS+WVgpxim8+QMQxKRkxL4U+3Wh9ZTLdrsff5J0n5XYbxj7wsx5P8LvtQaMf8YmWBl11TWYamshD7/98pxn/l69uelHTStSmFQoEVz+Kl8HzG1tK2rHR8llOuVhRlQbBsDKRUzUoRzG8zScTQNL0ObjIJqzIJR4QzfcylDJbinVYYG54U4GOqPAy77Xyse81vsek5RyO1/mr49r3R8KY2AvkA5XHZP1tAk19AHQX7pBlonVOLql2HYIvLjsKG//0DBl96DL5x5iAeZOUlkEfg5VEmQokvFZ6jNRCRXl3sLSjIZBFnIuSNIK8Bk3ZFIXzRM8+YF73kDzaOs1wXGXjI9ykHBqXx1ZuvYPpLb6HhhffQ+OI7qHv5HTQ//wGaHngP9Y+OkvmPMfu5N1BnwptoeGokxrzyAtDPhdc3ySOhNddiBAwFkjwV8jSwBgC0Shb90q3FmHQTJqdaMDORl1DAzGQOU1J5fJvKYVx5HlNleUYih+myPDHVjHEVLVI5bUYhJQmnUJHkO6EcVwVLh4CuM5FIJ3RfobvMK6+8Ynzf2QNMZLWn/z3nl5ePuelmVsphwj7W3NDFZ4+8ijnvfyXCfDd8HatFS4xCmd0sMzMFaLUKiNOtJyzHzPtGou69rzFw+K6YYjegrFoqmqkEAof9o4s6tzypPDLtIuhFbDthDKmCiHz5ez81B1U7ro+Jj72G4OMpqHLSkkfZKJqpCU1PQ7F8AbW5OsxYrwrl26+LCfe/gNSkVrimliD3LVVmxDgrzXxWlc6FvnEVZQXCIrJAC54IDXq2pn0HLWOmyFsoAadXlQhk89EezXELDSnH9E3bEg+w2SV/QGL1Hnj6j1fhyo0PQcMzo7D6zsMwe2glPkzMwetN3+BLfzrGu3V4352Fnx29J9IDeuLNS+/EJcMOxKc3348uu6+Pgb/aC425BnitrSiXwtuj1V7SxAE1PMfC6ttvYlxY/OYsEvLCCOhzrigl8PM4G8fxxc98Q4mbyWcRk0qeeaOI7vjqb/ej7rxHUH/eo5hzwaNoOO9h1P3hHkw/+2HUnv8Esmc8htZzR6D1vKdRf/4ITP/zIxh9w+OS9yi/A7TI8cp6dQO79qQdMc72EWzv4Fnou/s22O/x67DVA3/HFg/+FRs9fDE2vf9ibPngxdjg8YuxMcMTF2OYrN/okYux+f2XYot7Jd4jl+IXT/wTqU0HGFVOv3gKf4sJVlY6FNylwpxT+pTT/51uLGwQy3UU45Gv+/KCebvoasLKm+RJ28FmvYdi0r9HADXl2PzSE1Gb9lCf8mRaQGMyDy/mI1tXD8xpRu98CnPufBmpIb2w6Sn74dvWGWhpqDNiny5WST+Q/ExhX7S4t8RjIrxtNMTzOPbha4FUDKOvewxrhF3kWciZymNc9uUAQgwx38dMqXDu8q9zjRD/8o6n0dftglCO19jSgpb6JtMjC7udVpXX+dCfTFFWMJ4XIBlPSKEZIi4F/txx06T0d9BzgzWQcQrISkGcWKc36nu6EjeH+rAVsb7lmPbSm+j2zmTsE66GF/5yE3LZZux75/nY/YUrsMMH12Pbd6/Gts9fgn1evQZr/mF3NH45CYU7P8avMkMw84anMHf8t3BW7yovARfJRIUU6El5+xVH9mSj0CY3jx4H7ATMboRfnymOZhdjz7jLBva7HPVnXNrrBOf5Al5e1i9l2UI7IhvIFy3n8hKRFUmbA7JZsAsicnP0m40jjCcRJtLwkynkEikRNDVI9+yF5mQMzeUJyX7lojbSCJISJ12O5rafP7Rc8zm+sbbRNCh1HanI5guSD12EH09AyzeTkZ07B9nMHLTm58APOP6ETL1aFPy5yOfmSLqagHwdvMJsBGEjglhW4tXDbqqDNXoumkaORlz+fElv0ri9FM+tdAwicU6LOecp2tkwlfNRI1XOR/GWNXQboVtgKOc1va+xujizEd6bYzHpsZHouuNgNGzdEz0uPwa9bzgZ1SfsjEnds5LPc3DLpUxNpzD1jc8x6ck3UX7EDpjWTSqW5TFTljqWjVxMBHSK7otSuYjZaPSzaE1ZaN64L9C7CuOueAiD6uLwciLGTUNcoJVdvskMB4qb6mTh7rIe0CeJz8+/CavV2gjzHiw5brlUZFLJpFQAWOks2ss1e3cuVJh3AihYVLSsGvA1Qku5LaKXpSV9zAsihPFtHQbtuwtmxvOYWxagx18PxYCzD8EsNCPvBvDhobJ7DWa1NJjGRRWpcjPIxYxPv8HYJ0ZizLOv4/2nX8bop17HmOfeRN2kGfIiSJuhnZu6xtBSHUdFebmIk4KIEY7q6aMgBX1ejsyc5chLY248A/Rw8aUcr9Jjt2vyUvCXXQMrWrj4Io36Iuan6qj/YvbywHml40NfWgpZNojzaHV22K1maBpReqGsjIcYcNgOcI7fEt7wTYGjt4B13FbIHL0hMocNhXvI2gh+s4XZlh2+CfzjNoM9fBusM3xPObDkx8BHppBBWcw1PrwcnDkRS6GqDvjg+Cvw+WFX4qtDrsTXB1+OLw+8DB/sfyk+2f/v+HC/v+GTff+GL/f+O97d5y+y7e/4YL9L8NG+l+DjfS/GqH3+jM8kjNr/L5h+9VOobo1JhTQu+VEuhulWlDb4IYguhywbabjgd5xk6GJwWU+8/8AI2FJe7nD971C9y2DUDOqKXsP3wFYPXIzMzgPQJOVoqq4FQ1vSmHbDc3DSZdjsT8dhRjILyy1WAtkmgl+DXH4FyGfRJe1iYkULNr54ONDkYcY9I9GlkIQlFRA2qqZfeZZtkEQHsLI6vU9Kjnk0MDOLphc+RTdPKsKShVlZNu0/JL30Xy/OMW9T6mke7yyoMO/gRKJchfmqAz+N8hMjC/9Q5ru22pjx9OtIrt0b07pYaO1bBndQFea+8yGqkuWoyScw96VRKN9wMIZe8Vtkj98Ku91yPqy6DL666B4UrnkZ1l+eQ8/L30HislfR8PenMPkfI5Du2hXbXnsyZh+8Nra94QzEu3RF87MfoouTlPNLwe1nTVeKQRBilt+C8vUGmBJh9sgvUJGPIcc4NIcuI+gT6nmemVKER4F5m+uVzgEbW7JRpSV/Reki5VPCQYE9TtTmpJKZwUaH7YWhx+2KNY/fAWsduyMGH835XbDW2Xti7fP3xRrH7mC2rXH89hh8zPZY+6idsPHPdwSmZpGanUGcjTulUsjP/qQgAiYVT6JvUIF+fiV6hOXoHpShr1eOgV4N+gU1GOB3kWk1atwusKu6SkKTWCveFz2DStSgDN0kt3dDCl1QgTIRMm4sIZUKWi/lGdA3oVICuxe0pOZJUU7/cZaXHEH520wTBm+yMTMkJt/5Bl7c/CS8vcNpePfoi9BSV4u1/3w8xg904YvQ9pw4UmNbMPmO59Bj780weTUX47oXMKV7gNk1HhqqcpjePY9vavL4uqwW6SM3RbxfF4y88Hr0aJX8SWu95PsE3//yR1FefNqAtXfZybg/Pj38fFTn2RqJLZY4toov8aRMlXKbwp9CvSjINYN3Jjror1XMiBHfzRXnF17va4tZusMPYN5x5Wmc7xBcWMpj/lgoWqLP/8qqAdv88FNp4FooiCDtHsTw9dOvwk7GscnR+yC94SBYbgz1H45BIlaG1dzeGHflo5h275vov8k6WP+YPZGV/d76/TVYc1wGlSI20k4aFS0i8uOVIlDKkXnyQ3x5ya3oNqA3tvrtwWZ00NHn/hv5NychkagS0W0hLhoq7okAch3MdXLY9tgDAbb6Hz0dybwFP+5IGiW95u30HfOWvj+zSJiPo/6IGxsb8cknnxhrOddzutx6WFCWKezFhA0+2XiNQ32z8Rp78akoWHA+/BbvHfRnvLjLBXhtx/Pw6q7n4eWfn4eRO52LEfucAzRIJWx8I57e6TS8vvM5eHWns/C2hNd2Px9P7/L/7Z0HoB1F2f6f029Lh9ADoVdBKYLSFBAUxC4q8qmoiKL4R/lsWLCBvYOfgiLYUSmCKM0GSm+h1wAB0ttN7r2n7Dn7f39zziQnIQk3cJPcJO8vmbt7ZmdnZ3ffmX1mdnbmk7r1jV9W+e+TlbOKYS1rFTnGEjVXMGGUq9XVZWKJKgHHp+UxG0RIxURQ1dJVVX+hqgUTOrTPn09Xcb+JWpDMV5eJqC5Gc7Fl3cQLX3EUrWKRK9dCX9+c5cPB2rCzfsBILAWrrVExpPyjS0i5kGrOBp160Tteq1l3PaJ7vvQL7dOYoPEDIzXmkYpuOvUHyvX0aOIRL1fvgn7lrfK3gXr0yHl/lspVvf6Cz+tlV52pPf5xhvb6+9e017Vf1x7XnamX/+cHesVV39NuH3mtKv19mnPjveooFK2MroXhc2kcwWHHzVFcMpr6h6s07Su/1nbTG9qoOEpVex5QSc5ZWUoXluYcLc23WkARvnzd5Aw3ht2TkGKXQpLaXpiwIhhZ88FdZ8BPE6iFTDEYYp2wjPaW5sylqptR0mc2DJFFgb0ChzhiqKxM+LgN9ZEP62mjpqpliDAGgFl1w9LQID7LpLRu5kxYJPVqqM3ym7QiNqJ4Jp0rC/vheMUf48HRJ5clfnE9hltXX/vHc4wuijZgid+aYllpW1k4k4xJAybxeLpU0f0blfVgca7mMebtP2/WFq/bUxu+9kVK5w1o4eS5yvQnJlBSbZ+M1TPfuEj/PuzTuma/U3TDa7+kje4dUGfarY4kH/rLplaYMxFFwex5YnFj5S66XzcdepquftmpJn4+p8ql92s0QytaGNpYciXTSZa3qmbLnbtOUG7/bTT9l9dos15aewrKmTBCFDFGNanOWh4g/RT63AXyKiKNh9aywE4Ty6fxegGTjDCjIOMYf+c73wn+UZDH++tu9TnuT3Sxzz//rBQK60xU0rw5zUXzFx9+Wgjzq7ZEOm+BEis7e6xs3nh2Xtv1FbX1wqy2XZDR9gs6tH3fKG0wj2EKTfB0jdJ4275d3wjttmCMtqqamOkvaJf+keZf0KYjRqtkeQvR3aiY2KY7FeK5p2i751XP5cw2sypmS/Ys6LakMYNiTiUrp3uwzbzVOEeareVtv5IJfMYdzZmdZjuUs0psiSESkehFszcL32h1rVodtF97yvD28t4ZPlDpNMtulm9mL2FmoM6Cxmw2Vtq8R3N+/w/t1DVe5f4BFbtHqKO/oZ7pA9KMBdr+sP3VscWGYZQrbHjcvLwmvec7ql/+mGqX3KXaRXeau93cHar96TbVLr1VtcseUvmie1Ua0a3Xf/NkzSxVle3oUqFUVG1hn3JW+a3ks2bpJrbNXsc1utV31YMaMa/DtEFNmQKjazXL4xrj/ZMrTL8UqchiWxnTPa3c6wx/hp0wb9I0oTC7JlU9+4VIpxbLT/zMRq1AtQKY341ElUbZBHKqkin1roI9KKygXpErWXwdVrg3shZHtmY11Jw67KFSsMK7kC1qRFpQtz18ClnGSjVxaBWFrBk9r5byDYZpsoyKcMk2WwAXPbmeB8sTJHzgMmXKFL3xjW/Uscceu0iQ0xUgDhW1rrml4cHFWLac99IVl9XtgGVMy/OBWDImCKbXF2qTw/bU4X/9ug7+23d16C/P1A29TyqZMEJbHbK35t71mEaVs2arVkGrl9WV5jWh1qVdk9HaPbOBdipuoK6qFcZmy8hls8Rggs0imZaenHpy3dq8uKF2yI/RNoXR2rIwUqP6rIBu1LWgI2dihom0Et2dTNV2x79GyeyFuvJr51o+sEoqEdnDKWfa5lmWHTyalRIeX3G9nXKZ/NicgZDrhfBjmm+m4T7mmGPC9WMdG4fnU6F1XjjcHxzXn3u2BCu4Je2bls61jDbBDMoI5pyVlUzZT8v6iKLVBM1Ukr5ZeiA/S7dlZum++mzdU5+luxuz9FBtlh6pzjS/GZqk6bo1O1P3FHv1RLZXj9Zn6rp5D+nehHCzdb+Fud3C3JaZrnsa03RnZppuzU3TfwvT9VDXQj7ksHTUmi3tTAATEky6mpUIsGQGVnCaQ060c8oR1t3uhye0NGMm2DaCF6jfVWbPtY1S9+47qcpHzElVYwtdytQyGhjVEz7cVO+AypOnaIzphbS/oo2SHm1w7wI98tnz9NCXLtD9Xz5f93/pl3rgy7/Ug1/4tR7+0u91+5d/rpvO+JUePudyZfbbTTM3KWlBuT/kl8wYq2XmLT/RAGjHRgd11rLqqFGGmw5YjgXjG92zc6kznMlYAbHa7lg8UNDaRmiVsYLp06d9Xv976sc0rqdH/3jlG7XVQD3U/DBAAodZ5aoZ3dffrwP/fJ7uv+QvKl3xV/UuqOpl/7pUt/zyd3rqmmvUY8bbqNZUsoI4QTivgFw90ahqovn2rDj4lz/VHz/5BY2e0avU9FaSp29jc5xpUh1mlkubX2eTRVMmiLFln6X9dT/+jnqv/bcePPvnGkc3AAuBi19y91lmyr3qYO342ZN1w6S79ddLL9Mn/vcUjehpjhcdsg2tT3auiE4EN0umLX7/+9+v6667LghTpiH+wx/+sIQgJOy6DqKBqZt33nnn8BuxtxpNdgl4iNLiS2s300yPHDlyUdeMSM0qi/WrHtNN7/2RdqyNCzZuxrTI5rGQTFJXJptqrhW+A3tsrk332lEb7bqV9JIJSrpNDFelx75+uern/lPFpMCNVjczV2AqGYvRIuPjoUzS7OcbWfohX7dwdRPeWdJt+3WZDXeXTehbxbWvZMLdTKk3v1AD73mpdjv1bbr79PNVvPhOjax0Kl8vqGrmlUtqVv80aybukB+bx8+YqqknDVU6M3py44oO+s83pc4l04Agj8L8ve99b5iim3sXK5VcO64h2/Fj6UJl9cJ1p0yJ9+n2227XVltPNNuh/KNCStnHu8m8Fj44T/e98suakHS39m6ydH7kV4YRf7JmYBaPTJwzcdWDhVk6+LrvS+Maqj05z+wyF2w9NkgS1MzL9rPfLXPLZgt2eIaLa76Xwe5oPW822HAss0XbL4qTetFs3iLp2GScJh//Y2VueEq5/lQFGlFWAMfKWUW0+eqfA0u3dM/UayedzYwxIWGZzAsfno+yHRvnmkV7j+W42/7qg+ufMRtKy1ldd/JPtdlfJmtUOWflatOuKO8wMe4IT/3w7De7e1SztcPPTlHnhHG66ohPaPtktDZIOzU106d5R2yrA7/9Qd16yk804R9T1DdQVs5qiHkzLlQBQ+HSbZDJsYD4adWmoW9uvq6SZZnHRy3Uy6/8nmoPTdek47+tLefmVc6hCyw3VixzWJmZMVvO1SwudIOlt1mJGEQlLxi5tOCkl2nb0w63c7Ry1yrPZHHOklQ6gwcbuvTSS4M2Y30o9diwE+bXHvJGbd1HCd18RWrWZyKhroLVSO8s9+kVl1qt85IrlfvjpcpZQbnLhedIo8dKA1a7ZFzTYPRmwBhhZFln2Khp1mV/0+0XXqJX/el8U+MV8zTDrPCE4NWp7UQUWC1fBrHOUyN8DGfbrBC3BFqhbeLqz1fpvh+eozE1q1CwWyYfMjLpGKwwr1RqQfAlSaLvfve7+uxnPxsK8cioUaO02267BWFIBoyF+7oO4o3+yHHYrDV5zvH4sQJ15ZVXhjF223luYY7ZmFBILCMXspqTlrUgl5idJBqz/Rbqfsn2yo3p0bQL/61Nn66oYKV11WytULE9W+bSaFRVtZiKmZL9xLPJ0gVzEC+Wd0omgBITVwz/Rf5IKdQt/f1m8/P3HaOdv/tBDTw8Q/ed9ANtXR5hQicfZlzsLWXUbdqqYTa/ssIcscc14jfXi+t2/fXXh6m06coCtJx/7nOfW3Q9CbP0OTirllgp4h5Q9uy4w45ml/kXJMyDyVv4hglzszazfRP9VpT1dlQ04rCdley+mRWfdp9pyaYcNXtCD1lI1az4RWzQb50RK+abpe/wP4dp/mNPaeHNk5UvZ1Qu8VEcoobnhKXRbDEIdoN6bKZqIshyXuGCW1SaXiM5IR0rIiRnNQjzeK1uvPFG7bTTTqFiGm3ebX/10SxrVizMGQecX1UrNxnaVrWqkq6sZu61ifb82glqzJmvey6+WunMBRqxy9ba+m2Hq++uR3TLB3+orcodKhRN9IaPdKx8o3HR8lXV4oiWyNT8iOGMilYsN9/6LyhW1Xf0rtr7S8frttN+qvy1D6uzSqNFReMyI5SYDqIrV7aRqGjxYvaM1kIsDFe6QoKRuzAfKrCh9UaYX3PoG7T1QjNiM5PmWLl8qINhZ3RT31wd8edf6tFLr1X+txepo39Ac/fbVbVCh0qWCRgVgPiSes1Ey4qNrIAZPjNLZRMte//0O7rsrB9q/PwFKtmxub4mK5RaLZZpyZn1i+HAmjVdBI49AEyU0Pf8gM99XHP+9g898pMLtKGdF+bNw2xlhTlZi4ckQpSH5GWXXaYzzzxTt912W2jN2mOPPXTKKacs6iKwrhbiS58Xvx966CFtu+224TfGz3VaU3BvuB9UFk444YRnZcbnEubc6brtbxmPUeWab18KJoywWVtfWB5QfVSnFdR5q+hZHjCbY1bObN3sw65FI2siKYpjDNHsh2vUfNAsee3IO8wiWsxZRbE/Ub2YVR+z09mxal0ZTd26S3v9+BSlVg+96QPf1C7TrJCu2jGqVuhbxWGhCfNOO66lMDyoQsE+SGEOiQk9fnO9WMYWQt6AfOITn9D48eP185//PGwHtq3G4sgxsOcI156yhUobrc5WEoWybKWFuYG4poGDRZbvdxpmR2Z3iYn1BY2KMkXeyuRNVCDCzXSsAlgzgdFvzixQnXb8BfV+3dkxR+/85zm657J/a97XL9UWyUhVLG/kLV2FpBryVoU8ZmmgTE/oi2521p/PavNql2n/DgtPy/3i81wWq1OY07iyzz776KijjtLpp5++qAyJ+QDa85Ez9DTLy+ULc2yAVbRuzcpg+pxnLXylUlZvMVHh8N21+UcPV/fETblZsgCqzlqg8w/7sPafMUajuscqZ8bE8LRZRv0JjW9lFfMmhen+auZoKVCDIUatgjpioKq5pdRMraA7+qbowL99SR2bjNA1Z/xCO2+6rRbOn6ve2x5T7pG5GlunQcY0jGkcWuPLFhPfvFGRWCHByF2YDxXY0HokzF8fWsyLVpgnto2Wjw4rfBtW2N6XreqgX/xYD/3t36r85iLtUCjqycZCdZW6yBdBvGOcZK6U16crIAiLWqJpG43Uvr/9mS5/74naZfpslUyklAtkqKLm1waULeZUS+omiDIabQ+EsTUEUbOrzRzbf7eLz9H86240YX5+aDHHvLH+lRHmzdacJTMFH3vS//bqq68OgnybbbbRn/70pzAW9MKFC0Pr+voAxv6f//xH++67b/gdhfFwIfaRjjyXMIesCfAEsYqfmUDNVrCBMNOm/e4v0lJNa0uixGyRwrfeX1Wxq8u2m2CygnzugvnqLHSG68E1an+Q4xcePBYnH+/11RN194ywvMEHQIl68wN6dBPpNVd8U42BRDe//zva4I45GtFvx+zusDTXLS1NAR66s1ii+BcKdjv+YIX50sSiJnadQKAwfjn7RIE4lIWb8zywW8RtthLOpLiVo1YuYYcrEuZLw15UCq0qab+Q2dlg71gkNo49Vc2Gi7Z5YcnMppqqw/z7LESe1kmz08cbc9S7+4ba/3PvUvGl20i9Nc0471rdec5l2iEdp9rMhRo1elQYnUhWLjNqBfFxtJzZbsUEet6EEd0QMclmebx8gmZZDcIcO48VUN6CnnvuuXrTm960qEyjbKcV3Vm1hPLRbHRFwjxiwYJIr5m4rttKZ5JqdldDj9dnaoHZbzq6pK3fcrD2POGtuv3TP9aoK59UR8PK6rKVo1ZBZJbc0AWRHGBlZp2JgHIFE+X5MPJKp1VOu/trmj2iQ6OrJdV7pP+8oqg3nP0JaZ7lxNlVZZm0KFPUoz+7QjPOvcLyYI/ZKx8858LszHQFYxSWFRKM3IX5UIENrSphPuzuBJmArMGSrMHroEq1GmyqZGVrY8GAtt1vX00dO0p3deQ0I9+hKdW6HrWC/ZHgMnq4ntXDZvAPp0lwj1hB/yxXSPVMh51+0YSBhefr5bRWVaNaUblRsTjn6SVnf1e7/+Db2uun39c+535P27zzTZplxlxtVE3eVK0Q52MpUjv0RPFy0EEHhRbGH/7wh0EE4jdixIgg0NcHx/li8PF3nIp5uLjng5lb6B7Cw75gIqLT7BZhwji12BOt6fQfZHzlWnjdb7bf06mFSZ/ypZwqC/uULZtYsmtDCyfXJz7YIV4vlnl7EIwywVLMS3NLNd3emKruE1+to/78LWVref35qFO18T292jDtUeeIkUoGaqFlHkFOJXUorZvCC2ESr9vSBZm3Eq4bUIkLH30mRRWSgpWt2dAiXjThyyOHBpSClcFptmbrVbvvNfUXzJ5HmJFauTq1Pkf5I3fRKy46XcUdN1Xjn/epPnWOxn/4CB187Tf0QH2KNtl8lGoDC1WwimV3lfKbeJvPDBp7EOlUIDkOQn+4EG182rRpoUw//vjj9eijjwZ/HKKcRhlnzcNnPVgsE2oFPWL3p055bGXt2IGi9lu4qQ6rbKP9p26ggQtukp7o1e4feqduX/CEsn29VrZX1DD9wcf29OWi21bVCnPe6jQYitbiL/KGysJUzPSL9gyomb64avaDet1pH1H6wHRdcsyn9I/XflwXveJDevr6m7XNya/R6LccqL5MooKp8QUWHzOGlkMXW2ddYXgJc3tw0/JN6Uq3bgy3RsHKkEHlsiZ0jNTd3z5L+XHdev35Z+vg3/5Uh130S73ykl/p0Mts+ZfzddBffqFD/3KBDrPfh13G8gIdevn5z3KH/PFc7fzed2jmvLmWA61WascayOaVpEVLQ0GjRo7RM7fcrifuuE+P33SXptx4p6Y9M8NEVU4DubzKGRNNJLRV0A41tCQiZGgZR3xtsskmwT+2LLJtfXB0f8Bx3rhlhVmT7vkQ3u6Yw+YqeSuMrVCtmqqo2joteyMqjdCHEKHeY6JDiVUuqzM18rUv0Y2Np/VUrk8jNhwbjs/DAlG+rLTw5mfhyJzqYwp6sH+KsgdtoUMu+romnHiYHr34X7rtNZ/SfnNHqsd0QM0eDuX6QGjhKZLxrNBvvsIN2XFIiF1Z6I5FmhHoVEBJe7RrZ13BbNPsiC5QllNCH12GbauYQVXM+DGxbL2gzmpRuXrRttmyt65CplPlzTbUrv/7bmUeX6h/HHianvrQb3Xz67+p6z90tooju3XQZ0/UA/NnKlPsVqNk4S3OejaxOBuhv22Z+p6Jf95q8gE0jTrDCeyd8vztb3+7PvKRj4QlH/jTWh7fIjlrFmyXCl5oRLHfCGfMik6qtWzBAuQ0r1HWQtMnBbPfjRaW9J+v/VS5LUZoh5OP0j3j+3V352w9lJ+tR3JzzM3Ww7Z+f3amHs3M0bysleHFjEaZYKebS2Iap8NqAjPrvXrxR9+sbHeXrv5/39Nejxa0+8zROjy7na775I818+EntO2xh2p6rmZlcy685QkTcYVUO+sKw6srS3e3rn/FG7RJ1cS4CQN6NqYmFOqVhRqRK2jAKp59hZLmj+rQuE0310CH1TbNj75WSZ7QtTDeZ4qZPldXFuTGrFma2xjQ/j/9vi4/6WPaclqvimXzL9kDxETEQqvx8tU0o8OULYOWCnmNtnTw+QavjRYO1PTyP/5U8/99Q+hjPjp0ZbEHkqWEZwGPJER85vCDtNNnT9Z/J92tKy69TJ8cRFcWbgtCBgGDeKG1HD9ce+vo+sB///tf7bfffq1fXLbh86RdOi2D+fizZvtgJfzlAzcEOCKdD98QL/S5DR9cmq2VzHO+BtR51Iu02ZffqXmPT9Hc/zyi2ZfdpOLjc5UMlJW3ymJHqfkhKAK3ZgU1FVo+hMtus4FGHbmnxu2/vcZsv6UWPjFNj/34z+q/6l5tno5ULaGrmNkor1gtPVnLO0XLO4hyXtsWzQYRNs+nj/nSJHQ7aEFrebTl+HaIfdc32x52mIFym194V5ZG6AfOt/S8/aHFnHkoBgoMn8i39WandqvJD1gML9LHWKE6L1vV3EMmatfvvFdXfPgM7XibHXsgVZfZ2tOF+drpz6epY8Nx+u9hJ2ti7yjlc91h/HQmVimZSBnIm13aCSByFhY5FxNOIQsu3y6BzaurKwvleswLtI4jzKmkXnLJJWF76Ofv+WCVQtmzoq4seVPkA3a7w1sXs1fWR1T4zgebpW+3mUSpZhWpREWrVPI9xeMjerX32R+T9tla8++ebMVhh5Xp9WZru8VJY2PW8kChktG8Wx7VMz+4UJtVLYxtrVlZ32V55Knufu3+609bWZrVv9/+RW3XO9psuktpf786S2VV37WntvrI23TDW76kje8bULarYJqnYumxI2R447QCgpF7V5ahAhtaT7qy0MJhf81SMGYKdGqDxVxJNTMqTrw7rWvj+X3KPfCguu66V11336uCCd6OO+5T8faHlb/rYRXuelCFu+9boStOsuUzM5X0WwFZLKhj7z015+D9Ne2Il2nmQftq3qEvU+2IQ1R+zSHqf80rVX/1Ieo79CA984r9NOOg/TTXws5/5b7q78hooLcvjGQRJr+wAtx+hIcTY53zgVPIlQZ5nrwRGiTD2S4fREosoOm+EUUL14D19cnFltZ4XYaTez4ULBMXzbFkKENejWaswC5ayU2FlPHxQ2tIYhXATE0Fq5xOve52PfzlX6m+oF8TjztIe13+Sb3oslO18dnvUHrq/pr19u31zNETwrL20f20yVnHavdL/1d7XvQZbXPcIVI11WNf+4MmHfct9Vz5qLaq9ISh6kqU1PbgsQRYWrAtqyCE16JWKWQkFyshsNehAHuOjmsXxUfsduNiZJjQEhKw6NZTYBmDMQXLGWY7zV7d9PPOmV3Tx5zvdPjAGREQBLAZFh/Xl2om5O1fX1oze0+UG9Vhx2uoPHWGOmmksYPXraJZKha1YOZMEy3NKgNdBJgsjo9TaRkfMPMJD0hbT/KNkMeYryIMuztMwMaxd1rFeRs6ZsyY8AH0Lbfcoh//+MeLKqyUeSzB3yatfpIcjSbmKBuNDpMJfMfQrKBhb3U1qHWaNilbZTDJWcWyXNINp/1UM666S3NnztXUWVM1Z9oMzZ4+QzNnzDQ3SzNmzNa0aTPVP6ff7jHDOmObzW5YHDNnFdCkr2IHND1B33HbxndCdIOZZwK81oX4s0RV7bnArlaONidgJJXOusIwazHv0T8Peb0mDPDqk/ZEK7CtMA8infBmfOw6FDZI3Fb26ylTy7t/4f+pc+ttwiiJjINrJSHNJxaIJpdl14KCKLNwaf9CPfL1s9X5xHSrRJTtfGi5t020ONojJeEL7CMO0M6fOVk3WgXi8ssu0//+7yka2d3VFGXhMcZZuShZHv/+9791wAEHhAfVCxHEq4PBtJg/V+oJw7j2tNZQOWXfKrY1uqTJ1bmqbDxCOx22n7r2202ljbpV6upUwSpv1PrSbF1JuaqyCfj6rAH1Xz9J9//rJtWfnqst8qM0opJRIbGHP2+ZzORMig9SuFgYwtlD4Pm2mDtrAWZr2F+zNY01Ewa0mKd5LXxonu5vtZiz5YWSMXXOWyLEOkPSpUlNaUdOU180Si8971Q9ccX1mvf5P2nTeleYyOWpzbI64NKvqfbYLE1691e1WXmU5TcrZa3i2s7zsUFMe3W0mLcTH72I8CeffFLbb7+9rr32Wu2///5hW2yEcYae5rPENMAgPv5cLmY0zCdBeYgNd+SymlXu1fyiaYDOgrJWPjJzechRVt4yS26/hWOY5556XuMadF+xsp1XOlQg7ZgDmX6Vjn+ZNvl/b9RNH/uBuq58RJtnR2lBWtWDm1b08l98Rprdp9v+51varb6R5qlq8TVUCGX4c2iIYOTeYj5UYEPrx6gsq1GYE1OhakLKInyyA+FktdZqoj4T5ry64iB2qe3PkkdrZmjymaXI1tO0pg1rWY0tdageXluZgSf18PEcU51Xc3nlDz9IO3/6oy7MnyfrozA3SwpLurngagv6NHrUKFVUU2+9qo5xPZo+Z6YW1CuqlnKq8grf9qBPeE+uoHzVVpKMeoo96rbCnwmKSvmCyqkJdzM18lLGUpe1imez49VzYWHICy7M123M6LC71SHM09CS3rTZMNRbga6L0sPJTO36uWM1+p0v132/uEp3XXSlshuO0KtOMr8dJ+rmd3xFmzzUp/yACVc+JA7iZzFrmzCnRZzvLn72s5/pS1/6km666SZNnDgxCPb4FmkoH/pO89q/YGHeygV8LE9ods1bGcsobowulPIxpxk3to2NM0mWHVQV285b0RLftNWqYfLwhuWFagGtU9UNyRN63b9+pOL4sbr527/U3EmPKjeuWwec9A4VJ26s2z5sgv3GqRrLCC4WVafZSK1hlVqrGKyQYOQuzIcKbGi9GZVldcGrJ0RFZ2dRW3R0aaIJ6C3NwCdmcsFtrZIts9rKrnV0W5rAmmiZZ2I+qwlmyFtZpWGCXcIR2YYWVBeoXE+UJGTWrGXSptxpyivHGTzYDRNS0BmAV/ShL25Pp/ot89NdqpQpqj67rI3SEdq2MF67ZjbUi6pjtGd9Q+3SGKcJ5R5trlHarHNDjTC1nOlH3BfNEhmfOhNGG4Bgo26ezhoAs6O1Meqg8Co/SdSwyt526Sg9eOZv1bjiPu38lsP09t98U8f89Asas+1E3fGxs9V532x1piUVuxhqc+03YAQ4H32eeOKJOuyww3TSSSdp3rx5oYKB8y5eww+sjkocS2wX0V033VCz53/OlHZDRfWZLafmx5CdjK5F40mFSq5VQBPVNKc8P7SW010QMyZcwf69pDZOV77hUypPelr7WGX0VT87TYd+++MqdY3WPR/5sQr/fkzjrDyvpomFtuNaBcCMJKTLWTdY43ezYTYVWw7SpVo+VilmzEzaktQSaaAsVQYsg9VUtJonbY/UJun5aIla5MIzAK+QaLwazDStTCmnfFcpTJVLP10EEJmMD46oKafeR9BZSciYOHsuhxaNbDGvqlUAafFuWCGfLZi95axYZspyU9q5NK+0xitV2kDyyjXyytaaH5Z29nTZgyHVgO1LFxY+8MykLReO5jirFxrvcEXKR1PnjPXMxEahS0td2iYZoes+8WPd8fZv6o4Tvqs7jvuabjziVHX/8zGNzYwUAwr2W5m9qIFzLYY+56NHjw7rzIyLKKflnOcijgpLXHeGDzRyUErTD51yNoPhmobgjXlSK4ehbTsG6ipUrdw1P+ZiSbFvExGm0dXdyUejjFLUtH/e2DAR10YdG2j3vrGa9L6va9K7z9St7/+W7njX13THu7+m7D8e02YNs5Uy3ylZJLY/z4Xmmx5nXWENC/PF1oS5rs5yJ0gSCj27ArzWZ3xSWtHDxxZZk+bmqO0ScknXlEyZsI0pNJDxtmY5gw+d6K9LhqWLTvMjVo7jucZZGSwj8Oo8VPHM2c+sVe5Yp0APXQysUkhhzMyeVpYHE6N7FVkoVAhthRFVSnWGI+Q1pykgiwjrpT9isP+WnTrO6oZGDqwVe6T7QPjwzYQJo2w1cvnQHLlNMlKbPNivDe+coy1um6sdZpW0QdJlZTN7mX1nLSeYGIoty9GtLcT00pUltopvsMEGOuecc/SrX/1KF110UfBfm85pfSJnz/fmtPqU1Ga3Zsc0ojSyJs5zJsRlFaqMWblpBT7ux/GWkgm2CrZkxDeGps3XG7Yf3QqtTLd45jbsb72gLfpHaMP7FmjjO+dpgzvnasNnGhqVG2lCvGDHQ3+gNZoz9DKal7Pu0CwN1kMwZDIC5hymi7bMU6OgpxAMghpHv0KmFV+eC5Lc9mf0FctoFpllTYsrrFj84VDhGI4zeHgQU9xHOw2ei7Hf9A+nrzc/siZoGEGgYC603EQbNJisiNc8oX5o/9hG+Ka/P/CdNQfdtRjpAjvGMXQosypSEQ2v9U20pDUrgytmu5Wses1e+W4na+V1R605kkUU6WszCG+6s9ByjkjfaaedQn/zD3/4w+GjULq5xBZzbzUfHlBy0lJOAwilanO8flsPRWqzHKY85uNmhp4lDBtpqEtNW4SOioh1W3YmLNncsIitoskbUZpfLFxq2/Jm+6V6MWgSRmhpmHAnRrrA0DjDN3FMguSsO6y3wpzpyZkVjtm2mHURYc3whs2aqGWG0MCIKFrsEDO4xX4hC5qjVsyHQ1ZHtppyGJnFHjo8eLwYdZ4PFNzBrrAvK3zDWx3KdttGIW56xmy45cwziPeWsREWRx/ehBabEE/roWDbGZ88PASUhPCOs7rBhpvCuinIqWgyyRZ2y1tHfLD3TDGjQj5ny4KSjkIQJ3R/WVz2EtPaDcKclvEkScISxwdlxx13nLbeeuslBLkL9OFD85nfbASx/6EiSWt4tpEzsZxTyUR1LmUcfWbprJuIbwpqWtZtc7N8DmU0+yHyqaSiSerqQmxb6Gze7CGXs/yAnTTUbWsjQvltzvw4Ht8g8ebfWXcYFrezvWhFRNAVJMzaZgUUtUpqo5h08+V+cxnd0r9X5NrDls3ge0tSf4HRU5pTkFf5QIMC0o5HRqhn8iZdOsyVgqu3XPwd/Cx9PEBqtl8lR4tOM5OQaZr+zcla8OA88ccFFq046xatgpPb3rKllb/ZiwV103Jw9teiaX7lz/cLiG2zV7O9AbPn/kJWZbNhbJHhuZpvfZqvT+lm1YzBWDLK5wQR1A4/OTfSwtmt7Jk5w5+mabT+xhs8xDeaeIkyTnneX2xO5EL5udjVzd4bKiapOsI3FNhe2uyLbvmD7gBDQtu5sRpsO6wErxbNnDzU0EpOiznj+wNCnZlAv/71r4exzt/xjncEfxfjQ8MSV7HtJi95dQdxrW1fKpY4osAe0SvoiH6rTFImx26GQIzNBhGEfLNVncMTjsoo5To6pFKgpb1uOsTK1rqplTDEotm7xVMz1dHPFP5WiWUfWuzLlmcYUv254TjxbG3JSlvaBnPKzurBzGb1scgO7A/mGSZOMKOrlQfCh5MI5rmdHXqqs6jHOwt6wtyTHTlb5vV4Vz4scU+a/5SWe7JjOY5tS4SzfUu2L87Wp5RKeqbQacuCxZ0zv5ym2bap9vtpC/9EOJ75d2aDe6LlnjT/KYtcTk91ZC1+0pS39aKeKXXoGStMn+gqWbylEG5ud6cy9lCp9pfDV9mceygPyCS0fqze2+CsMqywtUI2Y6Uf3ZyYNIWKGxMI0bbHY5chMnl9iQ/LxW7Jf9Tlmo6tOSvEm5MPMXNcg8qjCRMKfUpawhE3Q/AzoFs4jjkL2lppLkPLnHk2/zFMYjO+2P+R7YvdYv9Q5pvBcl75EBktPXbcbKIChkyfYLydtR+7j8FczNaC0bTKqFBimyhmpljKq+XZ7SL/NvtZ7Gx7m31hxzmzqDRbtN9FdSb55oRAloBgz1Q+TXjz1oeGFN5qJpYs0kd+4jsMyxbPinf5rj3ckmHJN1SiQ/60BJB/swkDAHD+ZKJVB8OsxUm3cHGYRJZTp04Nwyf+6Ec/0vz588MsuTw3vdX8+cN7wvCu0C4fYpfrSInId2YI3azde4xs2Xaz2GZwoTwN69gO8TTf49Dvu1kOk49464nhUuZT7vLP4rJ/WFbJjp/YsetmBx31vFVU2Yf4LBzda1vaiGdAJsOkgzkxMVzObITvMUpp3sr+2I99cVrDSYQjNF1i+xcsHPtZgHD+TGDH1SB+sngweGeNY2XumsndDTIFGcIKwVNP/YQ++ZlPa+yokcr0zg8tJIsIBtYG9rSUVzgFzqLNv2mYbSx9lkttXiZxn7awS18udEkQ2RGOu0TcvGqyh0+xpBvvvFOXXf4XfeaTp2pMd3cIS5nfLBac5bE2jWNeqVbV+NtDuuW9P9QuyUZmq3nVcond32bLMveaEnDpM2i+mGzS3Laic1zSBocm7NLhgEcHLfRMBGPrFgTHq1O6beUqJhKsQvropg0dfN0ZPo75ukKr+A2ixW54nZEmrBZYfqBX977qK9qyZmVXqxxst1toWsyyWLZ9LZvFYePaUMfbZHG40M3LhA1BGnyIZ/Z9V+csveres5XptEqwCZhsGMd81ZfUCO8ksUpvoRDGN7/vvvt05JFHho9B99xzzxCmWCyGpee3lafOc8SWzGycWk3vvx86VxMuf1JdVURzooqpcywlDNwwRPa1NDHfLA6x/LArE2972EW20fKq2bOokK1rwYf309afPML8zaaL2HxGVas0MCiAm9PgQY+sk+OYU7YnSUMjR47U7NmzNXX6dM0cqGlapb7ITS0nS7qBRNP6W66v6WYM1DWjbI6luenmFoWJjv3a3dLb210r3mWFjcdYdCw77rPSa+Gie2agqql98zRz4XwNDJStMEhVoPbcxtLZzlk74T4yfKHl0NCiXafgrycKU4dT2TSXYcxZXse3XMvbtpswaDn6QIVGm2R5zrYv4ZYVJrrBhl06XDMsTUukPa1zDs3zYBp1PiANr0VtmQ9j9zvrAuFOth7OzYXZpD0mQhuf2W5aL6tRbyzTbnHBD9t9lv0u276W7Vrb6aayVLztDr+QV5aIE7esOHHLD9c8HzsvPkg1O69mTaBxkKodo7Z6m04QVDzkSQ9dWXbbbTd98IMf1PHHHx+eky7GXxhcPrrgBQOnOLZKWNUqXjUzhKr5V6iMms0t22ai/7LcUuGWstfogi237Hqx/S4rvuja4lzpsObC8ySjYtWEeJ0Wct5+2rHzzZZ4ZCBvQllrFgDOmmYNt5izlurLX/6KcsWCKtWK8vkOyuIVghhYFMTiiAVVqOC2iKcVvUKYeKYtz/hzEe2XIsa7VNj2y0XrYcME2JLYw6stGgLVM+Uw1nRPoUf9vQv06U/9r7p7OpuZI7BG60fDnrWmxdzuO2OJD1zzgK750Le1TTI6jCBBH8Tm1Mym2ekiEAy17Rxstd1khhcI8IYSvja1hNJfPfabzDCFeimnZzbI6LB/f8NbzNcBgh3an/a7WK1VVcgx8+cc/eOoT2tiZXT4uG1puw37tDzay+IXSnu8SzM0x0nVafmWJbbNR6iVYkP3ds7T2288R5kuEzC0mOdpMV/1UM4hyslL/f396urq0sDAgI499ljNnTtX//jHP0K4YV0WDmNMG9tFrltZ3FBazunqj/xIY/7+mEbaOoNB8H1bkqH7ydA8l9EJz8Ju23JMeghZ8giMgFQv1ZX94MHa5ZTXmuywiqjZT+g403x138xsblKDgny6TkzJ304U5gwFRStAX3lA9O+jNXlFdkFih7LQf6GQ6ZZOTnth2bDaeKNgwowhFRv0OpM2HD9Opc5mHbWZaS1TeGZYLmuDMCdt3MqaJS0zdYF6b31UxQGJ2Zfp02ePWrOFbLOVOfYVWA7BJIbRKWKjPMya9mrnwvU3Tx5bCPb5HQ1t/eqX0JXSWRfAAK3cahqhiZR63e6//Z4xoFn/ul/dKRNbLd9Ah9J+lylq2hiKZwGHqNJ9wVZypsxD/98kUWaDHuX32UojRpTUYMSUwpr7lmLhwoVhud122+nd7353mICIfuhRwMcPR51BwA2n2doKMBZzb3lc9SeZabVpbFh+3gxrxUpkcDyn/fJnFdlU+3MynLKV3dlqVcUXb6bCjhspx7cMRcZEb8J5exE+eHjmr6PC3Gqn4UMXPnDI2O9GGCLouRhuwryd2HdsMbTum8m3PqZia7PF0WrstgWhtqjFfBid13BibRLmlbSmkllxtmr3PJ9TtVoTk0kAb4K43/RhXdpKlsXyzrJ93+e6EkMRltECyHMM4chIAO3EUQlKxTUnWpwhJBpBFOZ2vxtWWGPXOatYFut5K7Ox39DuuEKWNofna4srw8rEu2RY22IeYcIY8quVMWkuqz4T7B22iRejoTLyXAdYRSDAKWPuuusu7bfffrryyivDkn7oUaCzdAaB3U9sOkvZZWbO5ICZhHKsOVMyYxnybQXldCv4Ip7r9i8dtv33ilhRvC/k+IvJqF7IqZDY0qRILVtTJ5qEj04tIJZDjkalPNcxnCbkx3VWmEeRxQcZCHM+Bl0RbA0hVpTq9iie6+wGG3bpZLXColOetVubhxXvZvQoG8vsCHPiQc3bgy+0zISwPAhYOstibRLmTfGdqpZUrJSzjGrrRSvumu3LbGuGaZ9xs81cAnHLilpboj5eUZjIYMPGcNAeNiv6JZJus9jwytMCcr4sCGj/c1YJcdZ+7LYGA2w2JtiKGWvohZWz+43xGg2EDPc+/FoS817E0va2PPtaFjFsDNYe74oYbLzPDlejdA4BQokd3nI1y2vaosNug03EKiBJktCIxcP/4osv1vvf/37deeed2njjjRd9COrCfHBw67me+byJ0oRe1nQ3ZAvdW+w6JnmrhJmdty5ntBlYWftq37edGE3c/Pzt9tksOmbIzC1slWGoeRMQJvWyf3n7zahhwJCllOXD8dk6XOGZv852ZcFiSAJ9nejKYlssmzRZOmH8JsRgjHN1QSZYlA9aS4jrFO90Y7DbZp5I8dY5WCHgfcwHx9rVYm4axgw0Txem1O4xv+3RznBZ2ApT6y8yghXRbkxrFEtIaD1lzewUG26V/K0XAYvz4/C7Lc5KEp8Gze5WvMW0NbuvzY9+rYJmZRZvOJ8zDw6V/a6mfNIcXzraciZURZllkYnmQpljD901ad60iDO2OS3kiYnKk08+WXfffbf+8pe/qLu7O6SRbc4gQG9Y2cxzmW9mQkUsx7OZ39hALNiaNvGCGIzRDFVeeS4sI9friRp5s2festSsIpJv9lHgvJksqTmcrzMYeOavk8I8Qhkfflo+GEylvz27YEShn11rxzgGbMAiDg+UZRgbx8N/6dMnHH7E0R4XhXQ8RoAwtniuBxSx00PT9g4ZnoKf8U7twttKDNMU7M6yWVuEOYS53bA5K/h5U8L4/KkZe5g63NKNMGcoNsYjjmMXY1sYCrbGqBBYK1W55rkSa7DKsOStUvNQFKLN8MFGzS+8zm610rNj83rZTzt+sxIY7b0Zd5I0JzWJdt48FDs0Kxnhp7m4jkjLMqKQLUkHYiXERYZsyxqR4Xif1meijUZCudmyE9YRdqxjD9VqRZ2dXWIQoZrdax46zFxYS8xuTcRQgGMziMR8621JsCxsh8I9CHgTPfw2x5tQug9wnBwiKNhZs1yNb0lttWmDrIfYLA5s1v6FPNFKL1OSE5Z4sNdmHBhg81jsR7i6pY0yu5mOeK7RLm3F/sfj03BCmUz5XLfj1HP4SaXQomjrtgsV0mYcbGnGw/ry/GJ6o/8LIebR9mfSvvvuG4ZPZIxz4o/XG17o8dYWON/2c8ZFv3gNWI/XJvgTvPX2J9xYyjOeySG4rVOeWaGWKlliX7aF+LmvrfIU+N1cbf5urvLXjkfZa+t1K2uJJ6YpHiuEsR/YCjTzAgK6+XZkcdzs027HxBttvhWTrbAfy7zl5XCssLEZXz5fDPZeM3FeQJDX2UT+4ZlkedmCh9nOLZ3ttts81uJ1CPtZmPZzWt/gWqwqYd7M4WsA7C86bisJsXs8KELYlmNfPq7rnTdPdRM7DOvGOtvq1aqenjJFTz35ZCikG7YtOraHD3oIZ/tRKMf4qDX2LVzYHMC/FT4IafazZcPCs89gIL68FfoFi90qqnTpahpyONmmI4yzdsM9DffVCj1GYEH0VhlGkI+Zc3n19S4Ir0mxiKSe0fzeflVrVqiadTQaVuCajfBxDtbS118xm7NwjBSR5jVt6kwroHOqVSlAi2FZpxTFsrIlCyf1WnzZbFH9fRVLR0GVsqXDtlfKPBCKIYwlTdWK/bY42J/t8+YuCEu2pWlOCxcMNOOyOPAjLtJBmFy2KeJ5HvBgqluk5JOkYQENCmqEWiy8neEF9sn94z719fWFZXygcN8YM5vfuFKpI4QxQ1RaqYQPxZDJ+WzTtpTJa87cXuXyJc2dt9B+FzQwUDNBb5VOs3vsd8b02SEs69hbzuywaZcF80Nk0AqdN3tu2jnhauQJ869WsHU+TOM7jYbllYbmzV8Y3IKF5fBRdcX8sU/inW9pwMaJF3slj+RypZAfmvZbsPWqHcfyWchbXBFsuhjy1oL5C+w4ieXZZiOK7Hj1AcZKzFqa7BySRhiogGsGfIwZ16lkx2XMAyyHUrAggIB7FcuaG2+8Ub/+9a/1jW98I6SHe0urOpCG9QFslevOvYm2O3PmzHB9uB7YNDCqDRC2ajefRgbuLR82N/hn94v7HMs3iybYJeUrNkWZid2UzcaxG+wT28W2sNdgT7YMNmvLlDKdMtu2l83msV8c9oztkl8YkpEl8eKwRY7JvnmzXfyIi2NjvxyP4xIv5TrHw588RR6h3OZ4pA/7D+W6xdFn+YW4+/sGNGCOiYr6F/SFMjy+tbej6u477gjr80w/cf2iDbHO9YvXl2sEXMvo7wwtzdy+loNh0Nrzve99T9tuu21wu+++ezCcn//85/ryl78cCrT3vOc9Ovfcc0Mhxj74kXFjYcrQVPjzm9eD+EUDPfjgg4NBsh0/N0ZnWWBT2MaZZ56pQw89NPghcKhV//3vfw+2de+992qHHXYIDxO2ffOb39T//d//Bbs67rjjtM0222jzzTfX//7v/wbb23TTTcM24samGTbtwAMPDHETHw9ttmGfnZ2dobCMrR74s2QbD238sf/e3l7tuOOOIR0TJ07U+eefH8LBqFGjQr7g2LHwZVvMMzFfsI3fOMCP2Qk9bwxfuEdA+UhLK/aAHe66666hrzL37n/+53+C7WFLwDja+HNvJ0yYoC222CLYDB8iYlfshx2z/qY3vSlsx4YRjKVSKYwgctVVV4XtI0aMCHFF+8KusCPSxW/e4ES7JVy0OxwjklC2b7311iFP8CYtCgP2DRUJg3OK5xLfSgFjgpMHCEv8pIdjT5kyJZwjgg7/l770pbrlllvCPkC4COnmN3GxL45jxCXpxcW0rCpIA/ftD3/4g7761a/qscceC785b46/vsC9fcc73qEPfOADi36PGzcu3Od2O+J+scQ24v2CeD8B/1iWERZNwTbWZ82aFeIjHq4zYYF44u9Y5hKedPB77733DuUs+WazzTYL+YDthIthcRw32j/7sQ4xbfhxTvE8+Pj3Xe96V1hnH7QP+YLjkE9OPPHEkDei7XMs8iI2vv3224chOBl6k+cAEM9rXvOaEG706NFasGBBOCb+nCNlAeukIcYZ/Z2hZ50Q5hSCv/nNb3Tttdfqn//8p5588skgxsl0iG0MF2P62te+pte97nXh4UBmwugxVhxGR+bAn7A4jBRDxH/69OmL/NiPOGPmcZxILLQQ4RTK2B+VvI022kgPPvhg2E7hvOWWW+qZZ54JBdutt96qd77znXrqqafCFNwPPPCAbr/99iDseThE8YEdzpkzR08//XToXzpt2rRwLGySQjQ6Hs7xocI+5AP8cNgt24466iidddZZevzxx0Mhj9AC8gbCnXRG8cEEYLFQ5lg4bJ/tHI8wHAt/HopsI7wz/KB8+9vf/qa3vOUt4b5H28EfW+X3v/71ryD4sJsZM2YEoY09MMHNBRdcoMmTJ+u3v/1tsCf2xYaxBcQ8No9NXX/99UH8Ex92E+0H8GMf7JB4yR/RxtmGHw5YYrOw4YYbhqF1ozvkkEPC8dmPbVH042LZzL7taeA35X2E+AlLXsTOgUoy5xHHD+fcgLwU8xXXKqYf+2c9ngNp4hgcd6iI1yS6eF5U0D/72c+G+0kauI+cD2lYH+DaIyQffvjhcO35zX3gXnGdon1wTbhvrHPdoh+2B9Hu2B/HdmwGP/YbO3ZsiBN/4sSfa00eYB2IjzC4WB5Slj766KMhz1ABPOywwxbZBfeLY7BfjJfWavaNxOPHcwL2x/7ImxDThVDHj+fHNddcE5bEHfMP8fMc+uMf/xjiIA9i8/F8ORZhlr4ubCNMXGc76SZ/OKuGdSL3UnDS4kcrJTVGCkWEx5gxY4KxRcN94xvfGAwcI6O1h0KNlhJEEf60krz5zW/W29/+du28884hDsJ++MMf1iOPPKJ99tkn1EyJDyPFiB2nHQqte+65Ry960YtCy9unP/3pULBiUzw84He/+12wI1phsCFskUIOIRQf7ggN7I99KUDxwyGqsMP/9//+XxDm0W4POuigYMfY86te9aqwDTslnm9961vB/yUveUmoMFBQky9oPeHhQAsKeQEb5yGHH8flbdOnPvUpPfHEE9p///11wgknhNYYHgDxgXH66aeHuPfYYw9dd911wa/9YeUMH7AfbOn73/9+EAhxFknsYYMNNgh2y/Tv3GMqgNgjIh1bZl9EBv48tOnbjHjFHxuO8dBIgv3Qov36179e5513nn7yk5+EmSuxS+L44Q9/GOwFe6QhBYFD6z22xpvJnXbaKawTZ4yfMh1bRxBgY9EdfvjhYcm2+++/Xx/96EeD3ZNmjv3iF784vBUi3wD7Mw44bwhe9rKX6aGHHtIrXvGKsI1zuuOOO/SrX/0qTOKD+LntttuCP3mE5wDHIl2k8+tf/7r22muvcL3oVsJziI8xCc/xEcyrCp4/XBOuNdeW9NHiyfWKz6f1ge9+97uh/DnyyCND2cbz+j//+U8oH3l7w5ubX/7yl+FtOW9baJyjjAbe5GCDNErQsIcdoiOwP+IkT9BYgrB+5StfGWwGfUBLM2Gxo3POOUevfvWrg42dffbZIc9AzBPYC/mCfMeS7dwr7JC8RB6kPMX/E5/4RCjbsVneBrEvz41f/OIXevnLX65NNtkk2BfiGzun8kulmUpl+/3m/nOO2CNxYIvkQfQQeZz4CE96qExzrsccc0xr7+ZbBH6TX8ePHx+uIfsRJ29riY/rSTjOg/N0hhjLyGs1ZnipZcbUjCe1zJJawR9+R3fqqaemH/rQh8I2yxDpY489llohnloGSE1whP1NXKRWi0xvvvnmdMcdd0xN1KRmhOkuu+ySXn755SEeqzGnZszBsQ2Hv7PqMXEQrjv3iuVwIqYrpo2lFVqpPQzSBx98MN1ss82CvU2dOjU1IZCaGE+t4E+tUEuPPvro8Nse8sGWsFEr+FMrQNMzzjgjffzxx4OdESfb4vbbb7892K49LELcN9xwQ7BV1qPNmxgP+9oDIX3ggQfCvpMmTUqtshDWn3766ZAe8sS5556b2gMipGncuHGpCfTUCtzUKrJhHWcCP7UHQAjDcclHJqpSE+zhmOQ7EzJhP47rDC/a7dSEZGqVsvQb3/hG+u1vfzvcU+wKOzDRnJqgTK2iFu7x2972tvQ73/lOsJnp06enBxxwQGpiNDWBEO55LAvZbkIjNaEc7Pess84KNsVxTz755NSEcTgO++y7774h/JQpU1ITscF+zjzzzGC3rBOOcpg0mtAP8eNvwiS9+OKL04suuii99tprgx9pifnDBFRq4jn4m1BKrWK5KH+85S1vCfGY4E+tshz8582bF2yW/MGjkP1wJ510Ukgv6R81alSwf+InT3Eu2Dj57ac//WlY/+9//5uauAvpIG/wm2ORX/BbFWUWccZ7yrG4Vlx37lXMh7gYjmu6KtKxusEeuEfRJrj/d911V3rllVem++23X/C/6qqrUhPqaW9vbyjzuIfxmb7RRhuF68L1YB/uK3FuueWW4VrG62TiNdxrjrH55psH22ebVcbS448/PsSBTZmYDutPPvlksAn2JU72Y33rrbcO5Sz2TL7jGDwfSCP3yYR3SMc3v/nNcDzSiG1i6xyPZ4RVPhblF8pb1i+44IJwjjG95B8T6aE8p6x+//vfH9JFWBPgQcdw7DvvvDPYN+njOUK6uE7EYxWR4H/JJZeEvEj6TNCHPEM8HI+0Eg9lB/khnuf6COdNeRTz4FCyTjT5UmOjhoqjtY4aY/yNM+MJfrQGmgGGFkBabmgZ+cxnPhNqjrQMWYYItWJqynahQy2XPljsa4YZ4oEYL3E56zeWh4L9WSYNrRPYCN1Q7IEQWuxoFcGuaHmgpYVWvZ6enmCntHjYQ1xWoC9q8fj973+/6FU9rTS0QGKr2BthaA2iCwItPKxjn6SBFkpgnZY8EyNhH1rV6DaDDdMSFFvJSQOtgrQk8mqT1nb8TWyELmHYP60kcV/yBK9BiZN4WH7uc5/TD37wg9BqQh7inEgj14P9neEH3fy4P3TX4FsHWs+wkTe84Q3B1uirTB9zykXCYrO8TYn3l1ZJurmwnRZkwO5xvBY3ARBa3Wnx4+0lrXkcj3yBbVLm0gL3hS98IbQ20mLNvuQTvsOI8RE/9sd6xIRC8KMbF0vskriJF9sl/YTHNrFJWiLxo3We+PG3ikhojedcaPnnvGLeozwnPt5esSRv0deWVkmOdcQRR4RuaKwDrZg8F/gmgzzKPrzlYoxx3gqQx1YHHJfWUFpSOTfeXAHnSz7k+nC+hFvboRUYW+LccHQRoczE3ugGGMth3qSwnWc+dkkXO/bj2x1sAnvhbQddXnnzE/flGmEr2CflG3mA+8j+2MrHP/7xcH0Jx3XlbQVQNhIv15u4o01xTMpT8gR2y7OAlugf//jHIX1XXHFFaG3nOcC+H/vYx0IrNvGjU1jS8o89M2Y95Tf7AcfDFrFbzvmtb31reL7Qys8ziOtCWN7oxLdVpAfYj/Pg7S32zu9oI+QLflMucI5cD45Paz3PFWyM8yGvs519nKFlnRDmGB+vhxArGFQ0PgpNwA/DxcAQ2/zmdQyFP0ZGZkBgYKAYGpmKTEI8hMcoyWw8GGIBTDjicdZvoi2wpODGZng1SLcqXpVeeOGFi0Qy3aPoLvKhD30o2BgP/KuvvjqIXvZvt6fTTjstFLT012Ub+1922WXhQydeeX7yk58MXWUQSrEPLAUrDxJevyOK2A+7xx+RQfpi4cwSfx44CHO60xCeApzuNwgoXo3HvETeID9xrsTJQwE/0sVvzof0EwY/zxvDD+4dH8khCuhmgTDm4c+95NU1D3W6RSFeKB/5eJMPPumawf2l/MOGKBMJx7cRxIl4pSLJPccWEDJUSomHbgD4xfxBdwKE/xlnnBHED/thL4gnbIcwlL10+8Ivfg+EP+u8wif/vPe97w22yTaOi31TRpMXKK/x45j0DY62HkUTQoZzYf94PGyZdJIW9mdfHOeHmAKWiBXCcD0Iz3GIJ+6DKKfSQGUbQbSqiOnDAenhXLjuVHA455gmYEmYtR3Og3uMXSLGaYRAXFPW0p0PO4AoLuP9BWwlXgPC8TEmz35smYYTwnO/6UrCdeQ42Dp+bEM/sIwfx3N9IV5jwmIb0c7YD7uK6+QT0kUlGOFMd0PKX/IJYUgLXXOo1FHu0w0Rf8IA50I8wDGwxWjb0Q6B/MwkVFQEON+Yf6LQZp2wxB0r6oQjHrbTbRFRT5x07aHbZTxX8h/Xm26OHCPmBWdoWSeEOUZGIY9h0wKE+OFhgiBiG0aMMZKhKJD5epmMSY2Ywp9MQksRhkjhS9godjA6DJd9MU4chh4zhrN+Ews1CihsjVbE1772tYsKSQQOooeHOF/n0ycbwYutIeAp+GiJY39aY1hHWNMacdFFF4XWaQQJx6AgpC8lcVGA0leYhxMFMS30CCX6ITKyCx85R1slT2Dn9FfE8UCglYjRYMgrVCIQTFFo0O/yi1/8ot72treFfICtcwzyBdtj/qBwpoWQD5ZoQaEfIw+eKGSc4QVigrcsfJTJPeJefuQjH1nUak15STnH/aUF9uabbw5iA9uj5RzBEsU6fU2xE+wf8YsAednLXqZTTjkl2BQfh7JEnBIffbDZD5tnxAh+08JLix3bsWcqm/jxJodKAy3d7EMasEFsizKX40XBxDHpN0y6ORfOg7zENmyf88T2yY/4kxfoU872P/3pT6EFnIoEeYXrgXhinfOiFZRnBWMVc+3ot3zqqaeGY0AUMuyHY/2kk04KAwUQJ8JndUBaOTfSRR9o8i3lCP7RxfNf28EOcNxTbJA33Nwvzo9vYGjMwE4Q0Zw3tsu9YTv+7EvZRRmIfUAcqY3rd8kll4Q3IYhT7i+NJjT6oRXIE5SrlMFsww6pWBInNoytcUzguIBNkBaWhCcM+3J/GE3nz3/+c0gHH1aTdlq7CUvFAJsmPC6Ww8TLdhp1+Jg0VijxJ17W8SN+5v7gd8wPLGP6SC/5gH7yaCLyAnmNcJT1vOnCn7e65DnsmXxGxZ44aVBie3ucztCRM6Fwemt9rQXD4FU+IoFXQryioWWRjzIQHIyGgRHysR0ZjoxKWFpzfvnLX4ZMyWQNZF6MjnXiJNPx8KFGS22cD5QoBGgNwbDjsZ1VC616dKkArvdwuuYUZKSHJQUnggPbokDHjwIV4YqoQWBjNwh37AyRwgP/fe97X7A9Xr+yD8KEwhhxTEsOYbBZpuDmwcsDn9+82vzrX/8aKqFULhESCCLEAR+ncSw+/ESMI5oROlReaYHhNT+t5OQV4qEYiMKHBxOvWDl+FOQsyQOcK+KJSgbx8DqY1nUeEjwMeHUcK6yeN4YXlHPAaD+x/OLNCmKEe4vNIXRj+cZvWl8pQ7ENhA9inQ82eVvDmxvsEFHAduyeMhOxy/5UOrEtKgKIfkaJ4I0MXbR4+8NDH5ukMsnrftJA3IgTWg7JQ9g6wgVbijYW7YpjUMFkH45JpQGxwPFIB3Yc8ybiiHKdbgPEi82yjWcEeYw0XHjhhUGEcT5UKPCnZZ78SHoRgnzQynF5lnANEFvkT/Izo8QgisiDPFvoNsOxYFXlhRgvy3iu3F/egpG3aZ3Fj/KFdK+qdKwuSD/lLDZB9xNGo6GShj9lLeUg9oXdUKni3BHhiGnCYBeUWegFttMyvN9++4X7T5lJazUt1ZSriE/uL+UpDQ+IVz6apmJJXNgjcVGuA8chDvIE2xGtjKCFnRMXZSrxoSc4Nl3JaLQhrXTv4o0qNoitES9+2BmNM4SJ6UfL8MEqjYukCTvn/lLBppsjx3vPe94T7ABbplKN7iE95A8gTtKCvf/sZz8L+YK8yrXjONgwjZV0daRrDedFpYTjoJkoG8i7pAu7Wl9BW3LtgOs7VKyxmT+HGjIqRhJrrxgXIjr6xYzCkkIUCBfDxMuA4REGcUE49olxUgCT+QmLi3E6qxZahYfzzJ/RHmJrRrSxaEPYD2BDbIcYDnuLhW6Mg4Kd9XbbIx782IZ/tFPsl9ZyhDV9AGO8OMJR+PLAYD3GGePluBwvHps4+c3bJx4ctLwjNPBjH5ZAWtrzWjxmDBfjY90ZPnBPcNwn7Ai459xD7mW0O5bR3ljSEhfvPWFjWRttl3AQ7z/7RDvAAX7xOHFJ+OhPVwREAQKgfX+OhfDCDzFAy107HJt0sJ2ymfxA+uOx4/nG47CNY8dtHIft/Ga9Pa54zsB2IAzHIA7yBukjn5M2rgW0H5tjrg7iOQDppysQFR26elAxJx2kJ6ZxbYVz4x6w5F5hm9xT7gn+EO8x14R1zjvei2h/PMvjm5h2GwC2cW/ZJ97HeFyI/hCPxTLaKulqP247xBHTHW2G9HB8wrIdx3o8h5jXYj5sj5N92Qb4EzbmT36Tzrgv59Ce3kgMD8RPJZfz4NsS9ufNKg0uiP24X7wWgF+8HusTXN91bubPoSQaJMaBwbRnWvwwXvzJvGwjLL8xwmjY/I4Gxn7EiYvhCRv9gfBx3Vm/iXbXXkDFgpDf0aZYxoI1Fsb4sy+wf9wPB9FW2Zd9ItGmEQXEx3b2j4Uuftg1DxjCtvsDx+H47BcfALzGpyWJfuu0DLY/ZHhYxXSwL7AOxBnPlXggbnOGF9wf7IF7hos2wb2N2wB//LC/aDu4eJ/ZJ5a5lKss2Tfe9xg/v9mfdcLFMCzbbR/B3R4Wfxxh+E3asMdlwX7RVuPxYx5qjwfiOeIXl/Fc4zODPEU4/IkvLklHjCNWWAnPkmPF+HD44VYXpC+mEccbLbq+0fWGDyRj1461nXitORcqT9GP+xDPHxuCeF/xi7YK+EXhHW2GsDji4v7HMhHYHu8pYaINx7jjNo7B7/Z9YrzR4R/ti3ggxhHjQbDjx3q0/7gkvfjH8FyLmKYYX7wW+LOd3yxJXwwPxMd5knfa4+CNGV0yeSPGm1VahXmrG8Ph2s/NGXrWiRZzTgGHwcbTiUYaMx7+GCZhMMZo6KwTljCx1h0Nj31Zj/tj1DFDxMzBNmfVMtxbzJemXYDENC+LaHux1Y1w0YaxLYgFKcI4PjCi7bIfSx5QdC9hicCJ8RIHXVB4CC2dBuLFj7TGBwXhedVJ+PY0xTSQH2K+4hjkJ8A/5q2YbljeeTtrBmwl2le8N/F+8Rt/IEy8v9xb7C3eW8K021f7PsTBNvzjAzuGjceO/tgd8UK0n7gkLPbHduKKLXr4R/uLRNuMx41piMeJbzlj2U6cbCeumH72ITzr8Tcu2ns8fjwOflRiyR/EEY8b00J4fnMslqsD0g0cj3XSwpLvUBBY9HunW83qSs+qgvOKRBvi+gP3JtoJrr0Mi36EjbYciXYX7y202zuO+0q4eK9x/GYfBCvhCYd/tKVoD+3gF+9BTAvEvBGXxBuXpC3aIPvEeDk+xyHNMc72JfvE82G/WLazX0wX/hHiIgzd0iKEjdc8XgccfsQd41kf4Xp4i/lzEA0M443GGI0aI40GywWMhTN+7YYJ7ReXsISJS+KN4VnGTOWsv2AbuEgsQCm4oj9L7C0W3hDFOwUfD48Ypt0m8Yv2GMUFcRMP8bNftHW6rMRWR/ZnXxyFLEv2jfYa4yUccUC0cwru+DsW/DE9HDueB+sRtpOe9nQ7wxPuK3AP2+9XtCnAnzJyWQ9w9o/3vv0+sz3aHvvEbdgncbOtvWzFP+aRdluK+0XBhd1GAYztLQ1xIpLjMTlWPB4uiibi45jEQVysx7SyjBAH6WqPoz1/xuOQ1+I6DrheQF6N+XJ1QTope2JaOCf8+BiXSWvohhC3rc1wXtwbllxn4LxiecqS+4TDrrgGMUxc4seS6wXcxxhnJIZhiT/xxXtKWGA/bIN42vcFwrB9aaLNtOc1HP4cI6aXYxGGJXFxnLhPDMP5xf0JE/0h5t2Yfq5Lu+6JDkgPjji4plRmoz/xcBziYv94nOhHvM7Qs870MXfWXda2FvPVAddi6ay7rOvi18px1k/oEoEooxWUjwkR53RtoUxA8CEoY0XccWDpZ8qy5CE25TSvjbeYO46zCB6usbUkOsdxnAitrAhw3howCg2TSjHCDC2vvGWILcCOszz8ObNm8KvsOOsIFKJLO8dx1k/ohhC7QdBizsRhTIDE8K1x6FbHacefIcMDF+aO4ziOs46B8Ob1Oh+As2T6eMaRZxxsWj5jn3jHcYYXLswdx3EcZx0D8U2LZ/woHJgkjwlnaDlHuNOthQ8CEen0k11Wn2LHcVYvLswdx3EcZx2jvSsCS0Q4o24wOzazPTLDJKI8wmgcMbzjOGsOF+aO4ziOs45DdxZaxrfYYovwESit5kzjDrSUI9q9xdxx1jwuzB3HcRxnPYDuK4jzfffdV8ccc4ze+973qre3d1F3Fm8xd5w1jwtzx3Ecx1nHQXQzSguTjjFSyw9/+MOw/MAHPhBa05k0hu2R9nXHcVYfLswdx3EcZz1g6SES//nPf+rKK6/UN7/5zSDc+WA0fhDqY1Y7zprBc57jOI7jrIcw++cVV1yhr371q3rssceCKEeg04JOi7lPue44qx8X5o7jOI6zjoPgXpbbY4899O1vf1u77rqrZs2aFcQ5Duje4jjO6sWFueM4juOsh8S+5ccdd5wOOOAAHXvssUsMm+ijtDjO6seFueM4juOshyDM+QAUcf6HP/xBkydP1plnnhm2+cygjrNmcGHuOI7jOOshfOBJX/JisRjGMb/jjjv0/e9/P4h0hPmCBQtaIR3HWV24MHccx3Gc9RC6qsSPPBmxhS4s//d//xcmH5o9e3YYWtFxnNWLC3PHcRzHWQ+J/clpMQeWTDx00kkn6cgjjwxdXRDv7c5xnFWLC3PHcRzHWQ/p6uoK3VkQ54juOM75aaedps0220xHH310GKGFbi04F+aOs+pxYe44juM46ymIchyt4ywR6gj2c889N/Q5v+CCC4I//c3p8uLi3HFWLS7MHcdxHMcJojx2WRk3bpwuu+wyffCDH9Ttt9+unp6e0KIet7tAd5xVgwtzx3Ecx3FCi3icVIhhFF/84hfrc5/7nPbbbz/NnDkztKo7jrNqcWHuOI7jOE4Q5YhzWs6TJAkjtnzyk58Mfc1POOGE8LEoxNZybzV3nKHHhbnjOI7jOKEvOSOzIMxpMY8fhtLPfMaMGfrUpz4VPgZFtA8MDLT2chxnKHFh7jiO4zjOs6BFnO4rnZ2d4WPQv/71r7r00kvDCC34RZHuOM7Q4cLccRzHcZxlgghHnO+66646/fTTw8egfX196u3tXdTtxXGcocNzlOM4juM4z4IWc0ZiQYjTMv72t79dxx57rHbeeefQxSWOe+44ztDhwtxxHMdxnGcRW8MZKpE+53DmmWeGcc7f/e53L5rGH9GOiMfxwajjOM8fF+aO4ziO4yyT+AFodB0dHbrnnnt03XXXhX7n7ZMO0e2FMI7jPH9cmDuO4ziOMygQ4QyreNFFF4UxzpkdlFZyHKLcW8wd54XhwtxxHMdxnEGBMOdj0L333lvvfOc7w/jm9EEHWswZqcVxnOePC3PHcRzHcQYFreK0mOO++tWvavPNN9frXve6sI1uLnR9iV1bll46jvPcuDB3HMdxHGdQxA9CWTIZ0a9//Ws9/vjjYYbQuXPnhm1xfHMf49xxVh4X5o7jOI7jDJr2Dzy7u7v1pz/9SWeffbbuuuuu0DqOaKe7C+G8tdxxVg4X5o7jOI7jrBSI7tit5SUveYnOO+88HXPMMXrmmWdCi3mlUgninPV2Ie84zopxYe44juM4zkoTW8TpsnLkkUfq4IMPDh+EMiso3VwYoQVx7q3mjjN4XJg7juM4jvO8iK3mCPDf//73GhgY0Be/+MXgj2CPI7Y4jjM4XJg7juM4jvO8iAKcEVlYv+KKK3TBBRfo//7v/zR79uzQWo6/4ziDw4W54ziO4zjPC/qQ022FGUDpujJq1Cj94he/CKO09Pf3a8SIET7pkOOsBC7MHcdxHMd5XtCFBeGNOKdlHEd/84997GN6zWteowULFniL+RqANxVLO2ftwIW54ziO4zjPCwQf4hwQ4PQ3x+8Tn/iEtt56a73jHe8Irel0d2Fm0OHQek76klrZlrae1NVQokrwXyxohY59gY4zXdobv+j4/awAz8e1rbZ5LUE4Xmrn2qirXk/sR2uMeTvXmB5neODC3HEcx3Gc50VsDY+t5bg4+RBdWiZNmqTvf//74SNQxDnCnC4ua4pG3cRpvapcIadavWEilsrCQjVSuuK0XFpWXS/MNcylFg9xLXKNAaVtjt/P2jc1v6Vdo7JCl5hrBMcxWo7zWeRqduZ1pZV5qti51+yW1WvmHy5Iqowp+WysjDhrnIzVDP1WOMOaf//73zrggANCK0Ys+B3HcZzhCWU1Ijyfz2vy5Mnafffddckll2jPPffUyJEjF80euiZITYw36mWpmDcdmlMy/V7zm23PlZwyJlJTGv9NqSJWXyhBXbXHE59dSyyWOtAyn2/Pcb1S24do2nddKto0qO+6MoXNVR+1lYp2nLqdczG8wWDHRJksJ+/ttYMBG7/00kt19NFHh/X41mgocGHuDHtcmDuO46w9UFbTbYWyGoH+u9/9TqeeemqYGXT8+PGhNX1N0ajTVaWhTN4EadqnW392mnL3Xa6epN9EakU19FWaV7bxXEIrPoeWLaHQyg1z9tRq+Txbc/Mza5WBxVG0P9+i51I7LQNEd7NDyvJpZAoasFpHz6EnaeKrT5RyHUqynSqYIG8eiWqKC/PBgo27MHfWW1yYO47jrD3QXSWKckC0fOhDH9K9996ra665JrSY0xd9TZAizBt1ZfOI9F7df/4nNOrei9TVmK+cieS66dIgqNseM4ikJZ465hF/BwHV+hHFFD9poF5in2VA+PbjxHjb44T2eBfRFraRQUyvWFBnkpoaeZPhB3xUm73+s2qkJaXZDuWtktIMQEzEscRRnOWwKoW5V40cx3EcxxkyEN4Ic8Q3DoH+1a9+NWz7yEc+ErbFD0HZtlo/CDXVk83bH1Pf2TRroopKRC0I8mqe7h0Fk6Y5E+n2t+Xypp7bf+fsN/tm8W/fVrdKiLmsuYydki1azuJdtL7YcdZL7B/iyz7Lj+OHNLS7kMqmK6Z1c7Xlu0ZNObsn2UxejWKPnWOXHT8f2sebMpAZXJtLZ83DnXAcx3Ecx1kl0HVl9OjRYdKhq6++WhdeeKEqlUoYAx1RjkhfXZjWNWGaNVGca7ZWZ020mnjNmpLOmW8prdrvRGk2VWMZLnQbCa6xeH0Z4WiBLjRSlerLdwVzDQu3ZLyLXYiLpR0ruuZxoyOcLU3KpWl++Q4R3sipI7E1O2ZT7FuFxAQ916BuFaWqudgy76xZXJg7juM4jrPKQITTij5x4kT96Ec/0vHHH6+nn356kTDnI9HVBaOPhBFIwg8T6Ij0TE51k0PlXEaVHOI9o0wjq6yp+KVdJs0+2y0jrKl11Sz+cj6rijmWi10muJodj1b3rO2/rHjxD9vbXGYZjub5RjZZoUtyVvnJli2sOVlFRFVLo4nzhky0W+WJukTzqjhrGBfmjuM4juOsMkqlksrlclgy+RAfgr7kJS8JQyjG7iyri0xozG6q0KBpza9Ylwq4Bm3PzUChxdo2Lu3aW7TbXbNle3E44sjZcfIWZ57KR1hGp+Bylgy6s7Dv4rhiS3grzrB9sSPNix3hQoJNtFPpWL5L1Kl6pmThi0psSZcdWQWELjycdDMeZzjgwtxxHMdxnFUG4ruzs3PRB6Gnn356mHzofe97X+iDTlcXwkSRjmN9VZBaGhCyGVqLTfYyakrdvBDrCFhakGOfjmZIti1eX4Qp2VrV0mzxpFmWjGqSqmBLPgas2nrNIgxnwTZzJfvNkIxElFNemaRkgrmouin0vB24ZI59ElNm8Zih9d6Wzzq+0Upmi/ZQz3Z5Oz5vB1LVLS30cM/bKeSCCCQeQi0Zn7OmcGHuOI7jOM4qI45bjjCPH4Zef/31YfKhb33rW6E1HTFLlxdGt6CLS9xnyAk6lT+GKVFaihvZTFgihpssKYaX6Uxgl3KIqFxoja7mRqmaHWHLkurZLouvwwLlbb1HldwIc0UtNBFe6+hWtdBh/ibE84kK1AYYtNAUfDUh7uYR6PH9rGMuxwWWtSE6I6eaMnZMah5ZxixvbaRyssyKh7PGcGHuOI7jOM5qA2He0dGh888/Pwjzm2++OfjTqo4opxWd5fAlVSFvlQxL57zMBqpu/gr1Tzxc/dseroXbHaX+7V+j6rZHKtn61RrY5ijze516t3+dFuzwes2ccITmbvEK1XY4TFOyG0j1qpTkTNTnleRNlDWyyjdMLodaQhr6fzvrFz6OuTPs8XHMHcdx1n4ow9sd3VXOOeecIM5vvfVWjRkzJvhDbFkfauzIJnwySukqk+nVpAv+n8bf/Ud11PtFn+0mK24/Jo5CKaOyujR37L7a4cRvSqUe29Jnu9HsXWh1CGe9w06GuBDgxJ9rRm3nOeOfl6py1ZnqtDpInU7uubqKFoxuNnVT5KQzZ0Kd9ReEHZaPSdNCXv0Hn6LNX/P5MI55hmtMZxvb5s3lKwd26hMMOestLswdx3HWfijDo+SI5TgfgNLXnMmH7r777kV9zdk+lGInMlTCvMpHnCPG6OkNDtYex39Vt11xkabeeplKaZ8JXgtBf+56LvQRz4rhIG0fE+bFfFGVbKf2ecN7tdGeL9e9p79RGw88Ydq9bEK/oGJaDf3BGcKQziyMIINufkG4MB9ysGOfYMhxHMdxnLUWxDYt4e39x+m2wvjm8+bN0wknnKDe3t4gzFeFKB8q0LAlc/n+0GvcftS1Qf8U7d2YrD0rD2j38v3avXav9qg9oD2rk/QSW9+tfp/2yD2kXZNJ2j29S0/f8BvTy2UVd3yF5qd2vnbOJT4ftUtDY7vSvDnGWve20/UNF+aO4ziO46w2Yqt5kiRBpHd3d+tvf/ubzjvvvDABEQKebTHccATtzEeUzeEG6Z5SU8GEdjbDpD0N87dKSK6mTK6uXDZV3kJnTHx3FRrqSSrKPv2g6lOf1HZHHqeBURNUzRSUlAcsMkZPYdH8PNNbstc/XJg7juM4jrNaoVU8TixE6/gOO+ygP/3pT3r/+9+vRx55ZNHkQ8NRnNPFpJwrmvhuziBKn/K6ie9GvqZ63tJryqpgW7Kyc7DNprFVatTVU7DwNalYq2tiY56e+O33pc4eZbY5UHOzI5UvNIdsNCmvRpbhHJPmzs56hQtzx3Ecx3FWKwhuxHcU54jwQw45JExAdMwxx6i/vz+EiW74kWlOSsQg6A36gmNwKBQAACsvSURBVNMnvDmTaDbNmn8u9GVP0g6ljWIYXaWR1FVj5s+CyfZ6VQum3KWFs6dqm4OOUW9pw9A6zoiGDWR9GNqwKdSd9QsX5o7jOI7jrDboqoIgx8V+59DV1aULLrhA48eP1ymnnBK21Wo1zZo1Kwj31YepYfp2L8dlzI0sIbrrSvI5U1KpkmpZGUtrrtZg6iBLb9qc1KeaUcbOc4BTTFJ1MmC5Se+K7bdxqaq51/xcpY0maoOdD1Ct0Kkak/7QrG6iP0zDT1poNV+hC4l21hFcmDuO4ziOs0ZBpNMyniSJfvOb3+jKK6/U9773PS1cuHD4dWmxpPQvSJTLdJoYN2HeyKi7o1uFQo+dR4c68ibAi40wg2dHPqtS0o8WVz3Pp6JFZLuYlqjYKOvJm69U/9MPaoN9jtCU3oKJfj6OzVncFspEN91anPULF+aO4ziO46xRaB0fGBgIAn3s2LH66U9/qjPOOEOzZ88OLehsHy6ERupSqkq+piTPB5uJZnRurLs7dtKdXXvqzs59dGfHXrrHllM6t9O0Pqm7E5Ft4jyD0GaKfn5ltN3YgqbeeKm6N9pao3Y5UHWGNcykyppjyMRKptnVx1l/cGHuOI7jOM4ah9FZqtVqEOFHHXWUPvvZz+rlL3956MoyrKBHS93EcyOjzpqp7spC7X7kW7X/p8/WgZ+/QPt+1txpF+iAz12gPT5xrpJtDtCccph430RXja7kzWgQ+Atma+DOq5XMm60tjnyvZqY9qtcT29oICs17qax/uDB3HMdxHGeNghinywrT8rNO15WTTjpJ++67r97+9reHj0HZTlcXtlUqlbBsd6sLhHXBJHOPpTM35U5NueDzeuqXX7Tll/XQ+V/Uo7/8vB4zd8/vz1Im36EJR5+kWdkNlJqQz5ngbqRZ5Sy5+bqJ9HpDI6pzNfm6i9WxyXaqbbqnBuo55eh3b+eUT5mcyFmfcGHuOI7jOM4aJ34EyhJxTreW3/3ud5oyZYq+8Y1vLBLf5XJ50cegUahH0b46oKU7MTdQr2p0bq5yk69R7uHLVHjwz+p54A8add8fNPr+P6rzjgs05Zpfq3Pb3VUZva2qJulDJSLD56HNDztzpZI6bEty3zVqLJyrFx/zEdW6xmkg4SPTXOiv7qxfuDB3HMdxHGdYEYU3Qvbvf/976HN+4YUXhjHPS4jZjo6wHfHOyC34r85+6EmmpEqmaOnLqmAVgoKlIV9rqFhNlKuauKqm2iAd0FP/vUQyAb/zwW/UQnVapcOEdmqViFxJZbqy5BDriUb0Pamnrr9M2nRr9XZvraRjrBhusdbvwnx9w4W54ziO4zjDijglP/3ON954Y5111lk6+eSTdf/99wcBzoeiQOt5sYhApoV59QhzRk0spWXlTVDnVFeeyYAYqLxYtw011TobKnflVC3kNaY2VdV7b1TPSw9T/7idVM6XlGskob2c2T4bVUs/o7jkG5r+n4sk+737mz+s6QOFMDJLvsM//lzfcGHuOI7jOM6wInZPoTWcri18DHr88cfrhBNOCGKc7eeee24Q5fH36oNRVeyvKXQOS+N+o5FVmuSUNaekEFwhqWqjxnz953c/UlorqmfPozWzNlKlfE6ZWp+JcdPyWabrryux/cdrtqb+/WIVtt1b+fHbqWZxD1Tbz4v1+Huxf3sIZ+3HhbnjOI7jOMOK2Me8UCgE0c3yC1/4Qpgt9LjjjtNOO+0UWtER7YQj/OrsygJ1k9R2UGXtsBlTU4WCCfZ8RgvTvPobGdXUUJLParPa05r/5F3a5oDXKj9yW9UyHUq6iqpXEyUWR7Fqyj7t0Kj6PD157U810DtXm77ibZqR7bHzq9MzvXl+dh1yVhkIv4NrqG6/TdM76xB+Ox3HcRzHGfYwlCLT9V9xxRV6+umnNWnSpNClhZb11dmVBZiJn7HIaTlvmJSixZxOJzXlVNloN23+pk9ods8m9muENi4N6L4//FhpPasR+x2qqbSR91ZVLDTHLK/kMia4+9Sw9fH5ivoeu1UbvPhA1TfYydR+Lqh+Wubr5hIT/LGFnLOly7pP279u4cLccRzHcZxhz2c+8xl96lOfCmI8dl255557Qn/0ODrL6oHJgvJNQWyOeTzpD16vNULf8C2OPEnFl71bYw54m/rrBVUWDqhnxp3qffAWbfjiQ7Rw1DYa19OpWo3W8LoG8kWLraokm9GITEUP/uJrUn9Nmx5wjKaXC6GrDB+MNgidyYeKQISRXWhJd9YdXJg7juM4jjPsYSbQSy65JIzIQhcWhPgtt9wS1unqsvpJ7V/W5HLGRHqiSq6gBWN3VPe2e6mWFDV299fpmTSnerFTmxR7NefmC1UqbqBt9nuzptWYSKnZ6p0wPKQtG/antqCsLfNzg4gf+6KDVRu/h6qtNwI5jpSj+0xTiLscXzdxYe44juM4zrAl9h/v6urSIYccovnz5+u3v/2tJkyYoPvuuy90ZQH6n68WENQmxJkyv8qY5LZO6/nTtU7t8q5PKpPPadIff6DCmM004cj/UTpiU5VMT/c98h/NfejOMPX+g41xtHUHdZ1tWFy2zCdSsZRRZ76qx675hTL1qiYc/h5V8z0q5hD/fGWaLGoh529zzVmXcGHuOI7jOM6wJIpyHF1W4segb37zmzV58mQde+yx4TeiPAr0VQ6t16ap6yahGtmMTIcrKeRVGbu9uifsrKeuu1gDN12g+Q/frDE7v0aPzloQwo7OJJp/x0XKjRupbQ85UfVcyaLKqFhP1EgLJrwzSk2VJaopP+9e9dr+o7d7seblN1Y5zatUyAYRT/cVqGdySu26OOsWLswdx3Ecxxn2IL4ZPjF2W+Fj0H322ScIdrqz4FYXNFoX7XD5TCoGVZmRjtQOhx6jrP2edcMl2qo4R0/99/cqjdtGW+97iHrTbpVMRM998Fr1PXSjNt/7dXq63G3iuqC8RdZAYJsqp1Ec1T8qXajp//mTcp0FbfHKd6gvN1J9FRNtVFI4Pi7sQ2qcdQkX5o7jOI7jDHsQ5AyNGFvG+eCTlnRgubpazBHEiTlGZSk1aio3iqqO3UFjXvoq9d1xvbrmPqy8VSIyD9+ggcfv0aZvOlF9pXGqWdjxqurp//5NubE96tj11aqrGPqWp9mqGtlU2XqqknLqsHOtPHazavf8R6MPfLvmmPCv57LKZJsTL9Gfhq4wtJ77qCzrFi7MHcdxHMcZ9rR3aaH1nKn5gXW6szDZ0OoizRZUS0wRVxtqdI5TafsDbL2uq8/7mnqShcrkujSuPF/3/vOXFniM5vVspkwpr856ovLDt5nfNO18/Oe0MDcmCHOawRMEutUtkkqixOLduFTVA1f/zsR6Xhu+5DDbv0eVip2rBaeVnQpC6KdOelp/mMa/+W1oa7SWVms8H6k6awd+pxzHcRzHWWtAnMfJh2K/86HvxhLU7WJM8C52WdXqNVXtmFWTUX1dE7Tjq49T9dHbtWt2ijpyqQq1ikq5rLoeudZ2TrTfe76o+ek45TpSdVen6MFzvmUKrEf1HQ5Vf6ND2ZQp+M3L6hZJriAGRczVyuqc+5jSJ2/WFkd8SH3pSDtvq5RksipZ8hLlVMtaSNuPdwUkLVfPBsdv+6mCrQTh3xLwzvDHhbnjOI7jOM6gyYQ+5t0FE+WFbo3Z/SDzq+uOS87TmM6s6XamGmJWTmlcdbbu/sXXlBm3lQa22EdzGgWNK9p+D9+h+twHtdPrj9eC4nhlTUAXkkYQ0sVGEsR0mHio0at7/vILqbNDuRcdpXk1RoGR5ptAL6SJha0FIZcxT/41Mhw3a46J/hlg0Xa1eOl246wduDB3HMdxHMdZCTpyJn6TuqbnN9LG+79WCybfra6Z9yrfaIgeLqkJ5CRTUY8J9PK9f1dtYJZ2fM1x6s1uHLqqbFLs15MX/1QaubmyW+2nerYrCDJaunPN9u8gsDstjsaTk1SdMVlbHHqcKp3jlU8bqqmkjrr9Nb3N7KMIe0Z1aXZuobtLVpVswRwt7M30OGsHLswdx3Ecx3EGCeK3YOJ4Tq2oCa88VpmuUZp89W+1mYlt+rvnTARns3VlcIVObdmVaMq156tz8600ess9Vct3qKg+9d5znWrTn9QmB75Vs3MjVU6b0/Obzg7iO7Se1xvaINevJy45R9nR49W50ytUy5Ts+HWT71nVspnQpaVhQj3JFE2E55Sx4+dTWtLrYTbRxJSe9zFfe/A75TiO4ziO8xzwgSmuYWK5kUiTKyO10d5HaO7Dk5Q8frOJaMYzLCjDxrBDVnOrZZXnz9Nt114p1aoaucMu6utvqF6uaHzHgPpu+7NG7/ASZbd8sSrZrNIc4pouLPQPtz/1jEaVGio/8k9VZz2qCUe8T083xqvDRHe/yfuyifQEiV40kW7hBzImwTs6lGd0F4aWTBJzVplA7TtrBS7MHcdxHMdxBgmdRcqFTu1x5PHKjhytmTdcpo1zfWFUFbqf0JUE8o2MCqW6Ro7fQEcceYLU2a1p99+g0Z1F5dK80vpc3Xf1z9SYP10b7v8GzauPkho525ZR1uIyfW7qPKfe+Qs1VvM06x+/U278BI3Y4eXK0QaOeK8nJtJtvTJgFYOauko59ZkYR9wj8BhckWh8SMW1BxfmjuM4juM4g6Rh4vvJxjiNPuB1Sh+7WwsnXWsCuawqH31mauHDzTRFoOfDrKD3LSioe68jNO+um9X/xO0mlqvKFztUyqQal12oqbdcoTETd9OIHV+hpG6CHWmfy5uzZZpo9JiRGtFjov7WS1Wf8aDGH/ha3T8wVlPr3Zqb69YzSZfmDhQ0uqukyoJqGM89yRRCN5aqqbyqpYF+5s7agQtzx3Ecx3GcQYIwH7XbISpku/XwVb/XFoV+ZfKFIMzp7V0XM5NmbK2m3v4OjX7x0cqO6dGMf12qTWsLNGDifaBQU0ddGmUhZ/3rQqWmnDc44n/Un6ZKLAY+3KybuC806urvs32SujbMztfMmy5Rzzb7aqv3/Eg7nniWxr/7R9rsvWep46Vv1tS+RmgdZ/xyxjM3hR9opEzd73JvbcHvlOM4juM4Tgu6gaQmbJnsp2HiNghdk9m2UCab1YL8SO34xhNVGZiuxtTblUsGlOGjS0R5UMYmkDPNjzP7Oydo5+NOVmXqPdKTt6rLxHomn5oQr6jRyClve3X3P63HrvurujfaVgNjtgxdYmop/dTzytuis8M8kppKJtJn/fdiJRbXuC23VGnMxsqNnqjuXQ7XiD2P0EC+W6UuqaPArKSJxcySKgIinYQ5awMuzB3HcRzHcVrQDYX+KBlbNuilTctzjl7dGfXXbHXXQ5V2bqipl/9EXeWpQUnlGmUV02qYcCjfSPju08Lm1b/l7lK5ort+9R115earmmekFanbRH8lX7A4E3XlK6rf8efwgeZObzxFveo2QW0CnppAPqtyvaEOC5fNptogmaH7znirbvvi4br5C2/QP854u3qfesAS0BE+TDX9rjqa3ioGaPEgx209RO6sFbgwdxzHcRzHaVFsMDVPI+hxxHifid5KvkcFE9ILShtr4mHvUdr7mPruuUVjVVQ2Q2t6w9akjprtZaK7nC+qMmJj7fXmD1mEVXXOe6w5CVCaCxoZ7ZxVTV2dRXVkTXTPuU8z/nuJCjsfrLk9u6uUL4XJg8qm0mqZvCoZqyTYeiGTaHx3VZsWe7XdyAFtmpmlHhP2zrqDC3PHcRzHcZwWtDInGfplZ1QwcczI4vVyXxijvGOLFym70TZ67OKz1FGfoYH6gNIOPta0fdKC7dOprCnoRrlD1S32lsZupQfP/abGJdNDKzhCn/7foSWeeGtVJUlDG3VV9Pg/fmmRZLXToe/RwkrJwjRUK+QtmAl39D5dbLIZ5XI5GtItBktpng9OictZV3Bh7jiO4ziO06LZUp4Ny4L9KdUr6jRBPD0drU0OPVbVpx5R+cGbNb6YmIqqqVppKFs3TV3PKClVTaQ3NJAUNPHgt6g29VHNuPMfylmYXKZmIroRjkHs9EenLztDIg7017RFdpYGbr9Co16yryqjJyopFC3ShjrsMHwEGmb4RNRbBYHBEGt1UlhSnaZ0Z53B76bjOI7jOE6LLK3RQUA3RM8U+p2U6fe906vVse1+mnPbXzQqW6XXt9J8QY1ia1mrKx1IVM0VVNr5MHVvs6cW3vgnbT3KxLep6mwjtQXxZpWxJWOe17OpGmlWuVxRpcoc/fcP3zSxXtfo/d+quUm3CpW6GpagJNsRhkCsB0mfUUcxr7RSDjOQZi182miEYRJpRKevubP24sLccRzHcRynBcIIsUtXkjSXUb5Q1LT+jDZ9xZtUmzdd8/5xvorpbBPaVeUTC9PIq5LUNa4rpxFJTr21jTRi/2NVnTdTU//7R3WqX12jusM3mDkTzWkGaQ3N6ffxo995zoT7WM1S77RHNX7vI1Tu3lLdJRPgliAmLcpm6FZTVzGfqlKuaGRXXtlqr6XXInbWGVyYO47jOI7jtGD88NDmHPp006rdoQ13PkAjJu6syf+9Rtlityq1LpWTognyLg3UetSXGaHJlZwWjpmgdIsXa8yuu2j+7ZerJ+1Vmgyor7dP2RyTDiHMGxanCX5auRHdfDjaqIWuLRt1prr7Nz+04xa1wUvfoIcrI7VAI9WnbvWlXVqY6dS8zCjN1gjNbPSov7CBxdER0u2sG2RSf+fhDHP+/e9/64ADDgiv5zJWUOIcx3EcZ2UxWRw+vqTrhzK9mnTB/9P4u/+ojnp/aMkOYRrNKfHTXKrElPPC+mhtfPJ56tpyf825/z/qbFSVyxekbJ/FYSI+MXWd1qXOvPrmVzRywnbKF4t66KuvV3c6V6Varxq0lptfLq0qsWcY3VJKFg8zc9JG2lNrqD+fCy31M/pHauKHf6bCVrtp4LFJKmTtWCGCMqlTI8lZ5aGuwkCivvwIjd71APU98ndNOecEjc8v4AwtHs4la/+YBZTxzPOyiNR/8Cna/DWfVyMthTHZ+Qy11STvrATokUsvvVRHH310WOeD3KHCW8wdx3Ecx1k/aDVF8s0lPxgrPLaOA9Pp06+EoQ0zYW79vAn0nArP3K7GU//U2K6F6tygQ8VuqdiTV7Erp1I3Lq9SMaexPRnlB57W1Kt+rq7aLOUbFWVNs+VNFIsW8pYCRjBzXCb/QRyj7UP/86q0YXdG0678iXJTblLPyKzFnVGpx47RVTTXoc6RJfWM6lRp/AiNHWtifsb10sPXKJ+p27FMgNeR5k0Ykz3MAsrR6N5uC864ddb2oyUDg5B3hgPeYu4Me7zF3HEcxxkK4nOEDyUz6Xzdc/5HNfbei9TVGAhitTlzpwlnE7FhBBTlVc2W1JcpqGwiNpspmvCl9TrE1gwchC8CGxh9xdbTqkanCy0YI5YvnyChTVDTWM+QiLTEL6ym6leHaoVulW33HKJ+RTRq6sjWZaFVTAZMoFu67TxbE/SHuKl4ZHMF9b3iFG121Gdte8HSWWieQqB1Ls2TcJ4D7MhbzB3HcRzHcVYxzdFSsqFrS04mehsLNSqZq80yC7RxZZo2S2Zo48Z0bagZ2jCdoY3S6drY1sclU7VRA7+ZGlOfE/Z9LpD+oWuNCWf6ndPnPJdJNLqjplGZudq0NN/in9Zy05dyzWOPzw2oKykrWx5QwYR12mi2h1NfoD87zll7cGHuOI7jOI7Tgo8xcbQiN8dNYajxrJJKc5r8nAlo2sET21S37Ym5Gn2+O/ImxVNV6Q+eD7s9B2noC04FgNZt5hvt77eKQKGgXFJVj6rKDZSVr6Ut11jK1cOyo17VyFxdnQWrTNihLcolaDbouzhfW3Bh7jiO4ziO0wJhFIYwtGWQs5mMKnUT5J0l1fI59dENxjbSeYGwQfeaq1YSE9V5FRgI3QTyoLAdQ1eTVgUgny+oVjWhXsupOpAJv5ntc4UuranRqPIdqjKFnCwZBilqpg/nrD34/XIcx3EcZ72A/uX0Cc4inoMHf9LgF5uaw0ef5oJX2NpQgRbn2oDy2USFgoly+8lMnHlb5lOGPsyoYJE1qoky9UbY1oyyGfcyHTG3jsHfbJqEPul8eMowjY1CUTUL91wQB5OAVqzCULHwuQ6rMmRyFhfzgzb/WYThmEBveCoWzvDEhbnjOI7jOOsxCFWarptqFeEamp+ztkTTIuZbrdP0Aa+bq+WlJJdRjS4uuHxWdXNJzqS1+dfNxcEKluuI3AQ0a7S+hxZ4E+UZ5vfPVZWaa5jCz1halu1sX1vaH0sX6ctZWulDQ6KtxmBCnf7mDas0LD4mVQD7h5p3hiV29xzHcRzHcdZPntWSHfqXm6i1dXqkBGc6NklNeOPCTiagTNxmLWy2UQ8uVzfH0vYLwzDatmfH/WwXWrzDEUlLM24a6JkJNJMyA+nyXBKWFkvYL+zb2ofhGE2Hh8ioTIRKRvhtcNzWqjP8cGHuOI7jOM76wSJFygqdVEwG5eibklcmm7dlMazT8kwLNK3SOQuTt78lU7bF4Jq/s60tWRUWO9uv6Z+z/ekfTjwrcLlsGCed9bq5BpMJZQq2d1751I5iLmNxrtCFNLAshN9ZWtLpqkN3mHxOdTu/BnHbNqtKtET80uLcpfpwwccxd4Y9Po654ziOMyTEZumcCdPGfP3j56dr9h2Xa0RtPlJadZPd9bQ5JjXiKNP6C7RkhtZpfoY/KyaKqxC8uboEMYb2qJofgi5uNSW5S7Ms2cZzMaVbC8/JcDRzFm9K5LatkVa1oFbQHq//qHZ8zQnKFkfZuTaPwxgzzSTwKx7ZWRHcg1U1jvlqEeaVSkX33XefJk+erNmzZ2vu3LmaM2dOWI4ZM0Zjx44Ny3HjxmnixInaeeedVSqVWns76zsuzB3HcZwhwZ4jiNV6NlVSryiX9CpXn69svWrbiqaKOs2ZZM2EDivrDo2Kifyi0uxoE+Wj7fxMSOZ4liLKWTYlekuhO8/BWinMFyxYoFtvvVWTJk0Konxl2WWXXbTbbrtpr7320ogRI1q+zvqIC3PHcRxnSGgEbR7GIKdhPBc6szTHJ0/FOOR0CaHDx7LaqtdeaDhH7GXtpJGQjSRRlu9EGQHGzplx1Nu7oTsrZq0S5v39/br22mt1zTXXqFwut3yfPx0dHTr00EN12GGHhXVn/cOFueM4jjMU8F0nz5KgfJgDnwWitdWHhL+0IGfXIYmK9C6X+1XoKKmeSIVsLpwzbwbC24MM1RN6qLswHyzY0LCfkr9Wq+lvf/ubTjvtNF1++eVDIsqBeIjvs5/9rP7+97+H4ziO4ziO46wsqYnxhbU+ZfMNE6cmwzMI06zqKXIopwzN6C3x3oiOYQdby7De+hf9g7N/6JOw1uYXl0uEXdb2pbdF1wpTrzdHX1n6mEv8i/7mGowI0/pnHuoo5pWpmi5Dmdv5VhO2MPJ6NowikzfX7JvurGmGRJjTb/xrX/uaLr744tBiviqga8zvf/97ff3rXw/HcxzHcRzHWRloEe4udYauK6HLimnRSrmmai1VEkR3Q7Wkbr/rpmcqJojRsVkTurQ8Z5XUaX2u2T5MxJ+x3w3Zfy1cWFY2l1dfX1kLzTXSjIWrqlyxuKsWwMQwfs2jWirCm9/FS1qu27exJHxiAtqSY7vnQphaENTNbWF/XGu9PY7UKhoLFgyYkGcT7f8dVhkZoWKx07YzwyiVEFsxl2HIx5Q+9Xg4a5oXLMwfeOABffWrX9VTTz3V8lm1TJkyJRzv0Ucfbfk4juM4juMMBibzodtBXmo0xSldOLrsZ6FR04LZ01U0j6RWVkcpZ8sBlQf6lTYS1ZOK7V0Prl5nvaGB/oWqVQfU012yZdnC1dTVaREwi6cpLH4XCyawaxVlM81W+jCJECLYBHGDFuzQv4ZlvdmKj1C2Zc5qDYV8RvkwgkwS4vjB978dwhE+ynCa+NOGpcviJ9z8eXN0ycV/1MgRVgFpNv9bKAvX0vEhHcEf1Y6fxcKILiGAs6Z5QcL8+uuv1/e//32rIfa1fFYPHO/b3/62/vWvf7V8HMdxHMdxVgxStGr6E1fJmWDOZvTgI4+qs3u0/nXdbSp2bKjHHntGrzr8yDBsImN/b73djvrjxX9W0shozrwFetHue6mR5vXEk1O1/wGv0PiNNtfErbfXpz/7BRU6eixcVv3lRL/93R/0P+96X2hRzxdKJo2bn5oySVHNwuAYvxw/vsQkzmarfM6ObfLfwlVNgzNdUF+5pkyuqK99/TsWnngIj7zGWQXC4mpkmNA/p6enzdJ1/7kpxEGaiVP1jDJMPhRGYaEJHodYpyuP7WeOrc6a53kL80ceeUS/+c1vQn+nNQH9rejaQjocx3Ecx3GeC5O8Kpg4xeXNZTM1Xfm3S/SNr39BHzjxXSp15rTFFptq8uRHlTPh2tfbq7wppTO+8iXlTchPuutObTR+A3V2FHT0a4/UWT/6gebMnqGbbrpBBx3wchMnNdWTqkoFO1I9CS3qtFjXE1raTfrShaaB2q4Fl6O12pQ7o6T09y0I0rjRYOhGPsdMlSYWxvy6O0phdENaxEMc6eL4aHWndZ4aQFIe0MjuThVItOmzvG1omF5qcAwT52kD8V8wUc97AmLOMKR7a1wWZzjwvIT59OnT9eMf/ziI4zUJxycdjInuOI7jOI6zIuh7jS7mo0cajpNqQ7/97YU64YQPacqUp9XbO0/ZbEZ77L570DpTpz6jQw85VJVyReWBsp584gkT7puHRslx48aGngPM1TJ2zBi99qjXqlgsqlgoKJ/PB0FOF3I+xiwU8kGz8IHom970Jh1++OHa3Y5x2Z//rMTE9z//+U/tvfdeYQSygw48UKd+/FR98MQT9frXv14ve9nLNDAwEOKx2Cyt79eb3/zmMBLIvffeG45z96RJ2nnnnfTOd75TH/nIR0yAMyV/Rn+5/HLtttuuOvqNR+tNx7xR1VpFSY1uMVYxQIm3XLgezrBgpe8ExnHWWWdp4UKrBQ4DSMfZZ5+tatVqmI7jOI7jOMuhOdxuxgQy/cQbJrynaaONNjZxXdW73vUuzZgxIwjePfbYI4wExzwsp5xySphP5Y477gjft336058OIpthoRkeetNNN9V3v/tdzZs3L4wkl81mw3aW7UP8Iqzxu+CCC3T11Vfrtttu0wc+8IEwoSKOcBzzL3/5i/74xz/qk5/8pP5swv2WW26xCkNv2E5X3nPOOSfEge553/veFwbHIE1/+MMfwn5nnHFGOB4VhoMOOiicw8WXXGQVjWm68847bb9KqCg4w5OVFuaXXXZZqEUOJ/gg9JJLLmn9chzHcRzHWTYI3EKhEFq9f/e73+m6667T6NGjg9COona77bYL37ExEtyLXvQiHXnkkXr88cd10003adtttw3zqiRJEjTRM888E8TxfvvtF1rMmy3khXCcKMqBVnT2QdxvttlmGj9+vKZNmxYaGAmHOGc/9uf3VltttcgfEU56Ozs7w+h3I0eODBUIuvMyczoDcZBmKgSEJ33sS3wvfelLw35ULBDrpMGHnh6+rJQwnz9/fpjs5YXC1Pvbb7/9Eg6/FwLpWlVDNTqO4ziOs/aDuI3fxiFar7zyyjBXCqKVBj5+0zq95557htbz2IXk5JNPDi3PCFvENwI4zteC4D799NODQGc7sGQ/jkXY6BDlH/7wh8PxEPMIbOJDeCO0CY8fYRHWLEkD22LcXV1dIW3sTws8QhtxTzpIO3Gg14iXFvPzzjsv7LvPPvuEbYh2zt0ZnqyUMMdgh6KW9fGPf3yZ7oVAunil5DiO4ziOszwQsHPnzg2C9+mnn9b++++vXXbZRTvttFPosnLjjTeGBsO7775bEyZMCAK5p6cnaIxNNtkkiGXEMN1dPv/5z4fuI3QpefWrXx1aq9keu7Ew78rtt98eWuVZIpwR1E8++WTQPTQoEo7wiGaWOCAeiOKbVm8qA9/73vc0adKk0E+d7+zYzgyUJ510Uqg80MecOKkYcI6cB+EefvjhRRUG4nOGJzmr5Z3eWl8h1L6odWE4LwQ+YuB1z9JQA+QjTrqlPF/Y98ADD/Sa4DrGE088oS233DKsU9jgHMdxHOf5gDhFgN91113aeeedgyiPQnXjjTcOemSbbbYJAvqII44IXVdosUZE77333tp1112DuEWM33PPPaE7CUKeGcpppY4t3whr+p1znMmTJweN84Y3vCHET1/yj33sY2Ed3ULjIi3ZdDthHUF/8MEHh+MgxmM3GeLlWFQS3vjGN+p1r3tdSDdxPPjgg+FYX/rSl4KIp2sL/kz+iED/yle+EuLYfPPNwz6k03n+cL132GGHsB4rU0NBxm46n/k+J0y3z81dGUgwXx1vscUWLR8Fg8AQlwVG3z5REUIbI+PkB8tb3/pWHXLIIa1fzroA3ZT4Uh1TdWHuOI7jPF8QtjxLEKXtLdLoD7ahT2IDJGF43kSR3f6bfaJfjJPfiOsYLxCObioso3gjPPvxISct8TF+4o5pIR7W4/HoqtLd3R32Q7jjh/iOvRhiWOKJcdF6v3TLOP6xEuA8f7jfl156aXhTEe1pqBi0xA9D8qwECGRqg4jk2I8ctzxRDmxrD8u+xHHUUUe1Qjw3K5tOx3Ecx3HWDxCwURQjUmPXDkQuS0Q0XV3wZzt+7IPA5TeCmGXs9x2FL/sghBG9+Mf9WNLizXZ+I5pZxz++3Y/HAsLQqk2YeMwottkW+6KzDbHOOmGjX/v+cR+24Ugbv0kn5+EMTwbVYo4B0heKmzwYENQI8wit4NQAVwZEenzdAvSPYpif5wLjY1ZQMpmzbuAt5o7jOM5Q0C55olCNoB/idp4zURjjHwUyfjEc+xJHu9DFj/UYbwyHoAbEOJUC9iGeSBT8cb+ot/DDEU+MC9jOb0Q9Len4s44oxx9IG78h+kXY37v9Pn+4nquqxXxQwpwxNM8999zWr+eG8TwR1gh6RPLz7TdOFxgqBIhshD1jiQ4G+n3RD8xZN3Bh7jiO4zjOcGFVCvNBdWXho4XBgpiO3VUuvPDCF/wxJ2OEAnG291VfESuTXsdxHMdxHMcZDgxKmPN18GCJohxWZr/l0f4xaHvcK4IRZBzHcRzHcRxnbWJQwnxVCF0mFGL4H9wLnVxoaRgn1HEcx3Ecx3HWJgYlzIda6PJxKNPevvvd7w6O9aEc4nAoWuodx3Ecx3EcZ3XynMKcL3eZIWuoYGzz9hFbIvjFgdpfKAzoH79odhzHcRzHcZy1gecU5nxpygD4g4XJgD7wgQ8Et6yJgZY162eEyYiGgjgIv+M4juM4juOsLQyqK8uoUaNaay+cFfUnX9Y2Rmb5zne+E9xgR3gZyvQ6juM4juM4zupgUMJ85MiRrbUXzoomCXrooYdaa4th/HJa3nGDnaRoqD8mdRzHcRzHcZxVzZALc4Y0XNH0+zfccMMyP87Ej21DwVBWJBzHcRzHcRxndTAoYb711lu31p6bOFsnblkTAtHq/ZWvfGWRQI+CHL+VnbZ/eQx2IiLHcRzHcRzHGS4MSpgP1UeZEQT4L37xC33mM58JjvV2UU5L+wc/+EH95Cc/CcvBTiwUGer0Oo7jOI7jOM6qZtAff06cOLH1a9WDGN9jjz3COst3vetdYX0wkE7/+NNxHMdxHMdZ2xiUMIcolJ+L9pFTXvnKV7bWVg76p7cz2GPD3nvv3Vpz1gXSNA1j0uNqtZoymUxri+M4juM4zuqn0WgEF3UJ60NF7nSjtb5CNtxwQ11//fVKkqTls2xIJBMFMTLKxhtvHPp7sw8fZOK3tFvWh6Bx/wgjudx6662tX8uno6NDxx13nEqlUsvHWdtBkD/zzDPacsstg/FjS9nsoOuTjuM4juM4Q859992nXXfdNWiT6IaCTEqT5CC57LLLdPnll7d+LR9E9ec+9zl1dna2fJYPExEtDX3K6b5CSzmi/Pzzzx/Uh6FveMMbdMQRR7R+OesCVPTuueeeYAuI8nw+39riOI7jOI6zZrj00kt19NFHLxLka0SYDwwM6POf/7x6e3tbPssHcf7ud7/7Wd1SlmZZwvz5MGLECJ155pkqFAotH2ddAGF+yimnLKrk0Vq+EibrOI7jOI4zpKA1p0+frh/96EdBk9BTY6je5q+UMIdrr71WF154YevXc0Pr94qGL1zWtP3Ph2OPPVYHHnhg65ezroB5Is4xeBfljuM4juOsadAi9CtvbwxeIy3mQHCmx1/WLJ1riu222y6Mmz5UF8UZPtDHvB3usfcxdxzHcRxnTbEs6TxUGnSlFQ4Hfv/736+xY8e2fNYspIPuMC7K1024r+3OcRzHcRxnTbK0NhlKffK8mh4ZYeXEE09ULpdr+awZOD5jntO/3Fk3iV1Y2p3jOI7jOM66yPNWOQxf97a3va31a83A8SdMmND65ayL8Lpoaec4juM4jrMustJ9zJfm/vvv1znnnKO+vr6Wz6qnu7s7dKfZaaedWj6O4ziO4ziOs3bzgoU5MEnQD37wA02bNq3ls+pg0qKTTz55iQmIHMdxHMdxHGdtZ0iEOTCk3d///nddeeWVq6T1nGEXDz/8cB1yyCE+VrnjOI7jOI6zzjFkwjzCDJ2Ic0R6tVpt+T5/mGYfMX7ooYcGce44juM4juM46yJDLswjzA5622236e6779a9997b8h08O++8s170ohdpr7328lFXHMdxHMdxnHWeVSbM26lUKrrvvvs0efLk0B997ty5mjNnTliOGTMmjEXOkn7jEydODKKc6U0dx3Ecx3EcZ31htQhzx3Ecx3Ecx3FWjM/W4jiO4ziO4zjDABfmjuM4juM4jrPGkf4/ys7I/+xDqwIAAAAASUVORK5CYII=;" vertex="1" parent="1">
          <mxGeometry x="-576" y="-200.40000009536743" width="742" height="410" as="geometry" />
        </mxCell>
        <mxCell id="lFqXXls3AUdGfiTC2-5P-2" value="" style="shape=image;verticalLabelPosition=bottom;labelBackgroundColor=default;verticalAlign=top;aspect=fixed;imageAspect=0;image=data:image/png,iVBORw0KGgoAAAANSUhEUgAAAKEAAABsCAYAAAACJ9LcAAAAAXNSR0IArs4c6QAAAARnQU1BAACxjwv8YQUAAAAJcEhZcwAADsMAAA7DAcdvqGQAAAErSURBVHhe7dIxAQAgDMCwgX/PwIGHPslTA13nGQjtX8iYkJwJyZmQnAnJmZCcCcmZkJwJyZmQnAnJmZCcCcmZkJwJyZmQnAnJmZCcCcmZkJwJyZmQnAnJmZCcCcmZkJwJyZmQnAnJmZCcCcmZkJwJyZmQnAnJmZCcCcmZkJwJyZmQnAnJmZCcCcmZkJwJyZmQnAnJmZCcCcmZkJwJyZmQnAnJmZCcCcmZkJwJyZmQnAnJmZCcCcmZkJwJyZmQnAnJmZCcCcmZkJwJyZmQnAnJmZCcCcmZkJwJyZmQnAnJmZCcCcmZkJwJyZmQnAnJmZCcCcmZkJwJyZmQnAnJmZCcCcmZkJwJyZmQnAnJmZCcCcmZkJwJyZmQnAnJmZCcCcmZkJwJyZmQnAmJzVxH1gTUajzl+gAAAABJRU5ErkJggg==;" vertex="1" parent="1">
          <mxGeometry x="-595.999951171875" y="151" width="161" height="108" as="geometry" />
        </mxCell>
      </root>
    </mxGraphModel>
  </diagram>
</mxfile>
